<svg view-box="0 0 1120 1766" xmlns="http://www.w3.org/2000/svg" xmlns:xlink="http://www.w3.org/1999/xlink">
  <defs>
    <path id="a" d="M826.293 45.024L1120 21.121v1722.333l-293.707-23.965z"/>
    <path d="M645.799 1719.716L1100 1690.323V74.263L658.246 45.625 100 120.153V1646.85l545.799 72.866z" id="b"/>
    <path d="M652.868 1720.66L1090 1692.515V72.07l-424.667-27.39L90 121.49v1524.026l562.868 75.145z" id="c"/>
    <path d="M659.995 1721.611L1080 1694.708V69.875l-407.524-26.15L80 122.824V1644.18l579.995 77.431z" id="d"/>
    <path d="M667.18 1722.57L1070 1696.9V67.682L679.677 42.764 70 124.158v1518.687l597.18 79.725z" id="e"/>
    <path d="M674.42 1723.537l385.58-24.443V65.487L686.936 41.795 60 125.494V1641.51l614.42 82.027z" id="f"/>
    <path d="M681.72 1724.512l368.28-23.226V63.294L694.252 40.818 50 126.828v1513.347l631.72 84.337z" id="g"/>
    <path d="M689.078 1725.494L1040 1703.479V61.1L701.627 39.835 40 128.164V1638.84l649.078 86.654z" id="h"/>
    <path d="M696.494 1726.484L1030 1705.672V58.906L709.06 38.842 30 129.499v1508.006l666.494 88.979z" id="i"/>
    <path d="M703.97 1727.482l316.03-19.617V56.712l-303.448-18.87L20 130.833V1636.17l683.97 91.312z" id="j"/>
    <path d="M711.503 1728.488l298.497-18.43V54.517L724.103 36.833 10 132.17v1502.665l701.503 93.654z" id="k"/>
    <path d="M0 133L1000 .187v1765.626L0 1633V133z" id="l"/>
  </defs>
  <g fill="none" fill-rule="evenodd">
    <use fill="#FFF" xlink:href="#a"/>
    <path stroke="#E535AB" stroke-width="5" d="M828.793 47.329L1117.5 23.832v1716.91l-288.707-23.557V47.329z"/>
    <use fill="#FFF" xlink:href="#b"/>
    <path stroke="#4A4A4A" d="M645.816 1719.214L100.5 1646.412V120.591l557.813-74.47 441.187 28.61v1615.123l-453.684 29.36z"/>
    <use fill="#FFF" xlink:href="#c"/>
    <path stroke="#4A4A4A" d="M652.885 1720.158L90.5 1645.078V121.925l574.9-76.751 424.1 27.363v1619.509l-436.615 28.11z"/>
    <use fill="#FFF" xlink:href="#d"/>
    <path stroke="#4A4A4A" d="M660.012 1721.11L80.5 1643.741V123.262l592.043-79.04L1079.5 70.343v1623.895l-419.488 26.87z"/>
    <use fill="#FFF" xlink:href="#e"/>
    <path stroke="#4A4A4A" d="M667.196 1722.068L70.5 1642.407V124.597L679.743 43.26 1069.5 68.15v1628.282l-402.304 25.636z"/>
    <use fill="#FFF" xlink:href="#f"/>
    <path stroke="#4A4A4A" d="M674.438 1723.035L60.5 1641.072V125.932L687.002 42.29 1059.5 65.957v1632.667l-385.062 24.411z"/>
    <use fill="#FFF" xlink:href="#g"/>
    <path stroke="#4A4A4A" d="M681.738 1724.01L50.5 1639.737V127.267l643.818-85.953L1049.5 63.763v1637.054l-367.762 23.193z"/>
    <use fill="#FFF" xlink:href="#h"/>
    <path stroke="#4A4A4A" d="M689.096 1724.992L40.5 1638.402v-1509.8L701.693 40.33 1039.5 61.57v1641.44l-350.404 21.982z"/>
    <use fill="#FFF" xlink:href="#i"/>
    <path stroke="#4A4A4A" d="M696.512 1725.982L30.5 1637.067V129.937l678.626-90.6L1029.5 59.376v1645.826l-332.988 20.78z"/>
    <g>
      <use fill="#FFF" xlink:href="#j"/>
      <path stroke="#4A4A4A" d="M703.987 1726.98L20.5 1635.732V131.272l696.118-92.935L1019.5 57.182v1650.213l-315.513 19.585z"/>
    </g>
    <g>
      <use fill="#FFF" xlink:href="#k"/>
      <path stroke="#4A4A4A" d="M711.521 1727.986L10.5 1634.396V132.607L724.169 37.33l285.331 17.66v1654.598l-297.979 18.399z"/>
    </g>
    <g>
      <use fill="#FFF" xlink:href="#l"/>
      <path stroke="#E535AB" stroke-width="5" d="M2.5 135.19L997.5 3.04V1762.96L2.5 1630.81V135.19z"/>
    </g>
    <path d="M548.848 267.672a17.846 17.846 0 0 1 3.395-3.281c7.157-5.229 16.286-3.462 20.443 3.992 4.114 7.47 1.671 17.748-5.486 23.002a15.895 15.895 0 0 1-3.986 2.122v43.77c1.351.24 2.679.698 3.943 1.385 7.2 3.942 9.643 13.775 5.486 22-4.114 8.21-13.286 11.649-20.443 7.728a13.485 13.485 0 0 1-3.7-2.982l-34.298 24.437c.49 1.574.755 3.28.755 5.075 0 8.964-6.686 16.806-14.957 17.44-8.271.633-14.957-6.103-14.957-15.07 0-1.595.211-3.151.605-4.637l-34.5-18.717a17.286 17.286 0 0 1-3.348 3.12c-7.2 5.026-16.329 3.152-20.443-4.194-4.114-7.335-1.671-17.344 5.486-22.434a15.958 15.958 0 0 1 3.943-2.043v-42.877a13.125 13.125 0 0 1-3.986-1.328c-7.157-3.735-9.6-13.344-5.486-21.431 4.115-8.098 13.286-11.646 20.443-7.932 1.28.674 2.41 1.535 3.379 2.541l34.518-25.037a16.84 16.84 0 0 1-.611-4.549c0-8.967 6.686-16.925 14.957-17.804 8.271-.879 14.957 5.695 14.957 14.706 0 1.619-.216 3.205-.618 4.721l34.51 18.277zm-38.506-10.749l45.179 81.215c.192-.078.385-.151.579-.22v-43.774c-3.807-.676-7.237-3.01-9.343-6.82-2.099-3.795-2.491-8.315-1.422-12.53l-34.591-18.346c-.132.161-.266.32-.402.475zm-21.102 1.695l-34.582 25.058c1.078 3.952.688 8.493-1.415 12.642-2.106 4.151-5.536 7.095-9.343 8.477v42.986c.197.035.394.075.59.119l45.177-88.865a13.502 13.502 0 0 1-.427-.417zm10.76 3.86a13.483 13.483 0 0 1-4.167-.216l-45.176 88.918a14.224 14.224 0 0 1 2.629 3.373 15.556 15.556 0 0 1 1.577 4.117l90.275-7.757c.327-1.507.85-3.006 1.576-4.453a18.273 18.273 0 0 1 2.633-3.907l-45.168-81.138a14.721 14.721 0 0 1-4.179 1.063zm45.428 97.273a16.698 16.698 0 0 1-.276-1.05l-90.308 7.646c-.048.213-.1.425-.155.637l34.536 18.711c2.719-3.283 6.539-5.499 10.775-5.845 4.387-.36 8.327 1.364 11.061 4.408l34.367-24.507z" fill="#E535AB" fill-rule="nonzero"/>
    <path d="M364.147 439.044c-1.196.088-2.279.33-3.248.727a6.88 6.88 0 0 0-2.511 1.75c-.705.772-1.263 1.737-1.674 2.895-.412 1.158-.645 2.529-.698 4.112-.08 2.544-.08 5.082 0 7.614.053 1.575.286 2.913.698 4.012.411 1.099.97 1.984 1.674 2.654a5.693 5.693 0 0 0 2.51 1.39c.97.257 2.053.344 3.249.261a10.226 10.226 0 0 0 3.268-.757 7.597 7.597 0 0 0 2.61-1.793c.732-.773 1.31-1.739 1.735-2.9.425-1.16.637-2.505.637-4.032v-2.163l-6.935.495c-.584.042-.877-.262-.877-.911v-.593c0-.65.293-.996.877-1.038l8.53-.613c.61-.044.916.26.916.91v3.735c0 1.697-.239 3.263-.717 4.697-.478 1.433-1.176 2.691-2.093 3.773-.916 1.082-2.046 1.945-3.387 2.59-1.342.643-2.863 1.024-4.564 1.142-1.727.12-3.242-.051-4.544-.511-1.302-.46-2.398-1.153-3.288-2.078-.89-.925-1.568-2.055-2.033-3.39-.465-1.334-.724-2.83-.777-4.49a95.738 95.738 0 0 1-.08-4.011c0-1.41.027-2.75.08-4.023.053-1.667.319-3.202.797-4.604.479-1.402 1.163-2.63 2.053-3.682.89-1.053 1.986-1.903 3.288-2.55 1.302-.647 2.803-1.033 4.504-1.16 1.833-.136 3.401.045 4.703.541 1.302.497 2.365 1.126 3.189 1.885.823.76 1.434 1.577 1.833 2.452.399.876.611 1.61.638 2.203a.754.754 0 0 1-.2.63.94.94 0 0 1-.637.28l-.877.063c-.24.017-.412-.034-.518-.153-.107-.12-.213-.331-.32-.634a8.554 8.554 0 0 0-.896-1.864 5.59 5.59 0 0 0-1.534-1.584c-.638-.447-1.395-.794-2.272-1.04-.877-.246-1.913-.325-3.11-.237zm18.813 7.066c.956-2.024 2.763-3.133 5.42-3.327l1.475-.108c.584-.042.877.249.877.873v.595c0 .624-.293.957-.877 1l-1.714.124c-1.594.116-2.856.703-3.787 1.762-.93 1.059-1.394 2.438-1.394 4.138v13.172a.973.973 0 0 1-.26.698.965.965 0 0 1-.657.3l-.638.044c-.585.04-.877-.25-.877-.873v-20.175c0-.284.08-.523.24-.719a.868.868 0 0 1 .637-.322l.638-.047a.805.805 0 0 1 .657.228c.173.172.26.4.26.683v1.954zm24.631 17.457c-.584.04-.877-.252-.877-.877v-2.005c-.239.414-.551.834-.936 1.26a6.748 6.748 0 0 1-1.415 1.164c-.558.351-1.222.66-1.993.927-.77.266-1.674.435-2.71.507a7.435 7.435 0 0 1-2.73-.3 6.787 6.787 0 0 1-2.272-1.185 5.892 5.892 0 0 1-1.555-1.892c-.385-.74-.578-1.563-.578-2.47 0-.965.193-1.844.578-2.637a7.054 7.054 0 0 1 1.614-2.137c.691-.63 1.522-1.172 2.491-1.625.97-.452 2.04-.806 3.209-1.06l6.297-1.388v-1.493c0-1.535-.431-2.699-1.295-3.49-.864-.79-2.239-1.116-4.125-.98-1.488.109-2.637.498-3.448 1.167-.81.67-1.322 1.366-1.534 2.091-.107.349-.233.592-.379.73a.906.906 0 0 1-.578.234l-.558.04a.762.762 0 0 1-.618-.233.869.869 0 0 1-.259-.64c0-.398.133-.904.399-1.52.266-.615.697-1.228 1.295-1.839s1.362-1.157 2.292-1.636c.93-.48 2.06-.768 3.388-.865 1.568-.115 2.863.018 3.886.399 1.023.38 1.827.912 2.411 1.594.585.683.99 1.458 1.216 2.323.226.866.339 1.725.339 2.579v14.21c0 .627-.293.96-.877 1l-.678.047zm-7.533-1.523a7.116 7.116 0 0 0 2.571-.67 6.53 6.53 0 0 0 2.132-1.62c.612-.696 1.09-1.554 1.435-2.574.346-1.02.518-2.197.518-3.534v-1.45l-5.141 1.133c-4.411.966-6.616 2.627-6.616 4.983 0 .71.152 1.309.458 1.798.305.49.697.888 1.176 1.196a4.516 4.516 0 0 0 1.634.631 7.24 7.24 0 0 0 1.833.107zm24.552.772c-1.674.116-3.042-.117-4.105-.7-1.063-.58-1.926-1.319-2.59-2.213v10.13c0 .626-.293.96-.878.999l-.677.046c-.585.04-.877-.254-.877-.88v-28.452c0-.627.292-.961.877-1.004l.677-.05c.585-.042.877.25.877.877v2.009a9.212 9.212 0 0 1 2.59-2.604c1.064-.719 2.432-1.14 4.106-1.261 1.541-.113 2.85.084 3.926.59 1.076.507 1.946 1.215 2.61 2.123.665.909 1.15 1.959 1.456 3.15.305 1.193.485 2.415.538 3.668.026.427.04.897.04 1.411s-.014.986-.04 1.417a18.863 18.863 0 0 1-.538 3.744 10.665 10.665 0 0 1-1.455 3.357 8.259 8.259 0 0 1-2.61 2.494c-1.077.66-2.386 1.043-3.927 1.15zm-6.696-12.614c-.026.43-.04.986-.04 1.67 0 .683.014 1.238.04 1.664.027.852.166 1.704.419 2.556a6.33 6.33 0 0 0 1.175 2.247 5.827 5.827 0 0 0 1.993 1.55c.798.386 1.754.54 2.87.462 1.17-.081 2.146-.363 2.93-.846a5.97 5.97 0 0 0 1.913-1.867c.491-.762.85-1.63 1.076-2.602.226-.972.365-1.974.418-3.006.027-.801.027-1.6 0-2.398-.053-1.024-.192-2-.418-2.925-.226-.926-.585-1.735-1.076-2.428a5.023 5.023 0 0 0-1.913-1.617c-.784-.385-1.76-.535-2.93-.45-1.143.082-2.112.38-2.91.895a6.815 6.815 0 0 0-1.972 1.917 8.508 8.508 0 0 0-1.156 2.498 11.152 11.152 0 0 0-.419 2.68zm23.157-8.302a10.108 10.108 0 0 1 2.59-2.634c1.01-.703 2.38-1.118 4.106-1.244 1.355-.099 2.538.058 3.548.471a6.407 6.407 0 0 1 2.53 1.837c.678.81 1.19 1.79 1.535 2.941.345 1.15.518 2.414.518 3.79v12.214c0 .63-.292.966-.877 1.007l-.677.047c-.585.04-.877-.255-.877-.885V447.45c0-2.293-.518-4.054-1.555-5.283-1.036-1.228-2.55-1.77-4.543-1.625-1.914.139-3.441.893-4.584 2.264-1.143 1.37-1.714 3.212-1.714 5.529v11.97c0 .628-.292.963-.877 1.004l-.677.047c-.585.04-.877-.254-.877-.883v-28.56c0-.63.292-.965.877-1.009l.677-.05c.585-.044.877.25.877.879V441.9zm31.049-13.417c1.541-.115 2.95.025 4.225.42a7.797 7.797 0 0 1 3.288 1.979c.917.925 1.634 2.11 2.152 3.555.518 1.445.804 3.173.857 5.185.053 1.292.08 2.5.08 3.623 0 1.123-.027 2.334-.08 3.634-.133 4.127-1.102 7.218-2.91 9.273l2.551 3.71.08.167c.027.056.04.155.04.3 0 .23-.08.437-.24.62a.797.797 0 0 1-.557.298l-.877.06a.906.906 0 0 1-.757-.314c-.213-.23-.385-.427-.518-.59l-1.754-2.512c-1.594.944-3.454 1.49-5.58 1.637-3.322.23-5.879-.555-7.673-2.354-1.793-1.798-2.743-4.73-2.85-8.798a87.86 87.86 0 0 1-.08-3.61c0-1.12.028-2.326.08-3.621.054-2.013.34-3.777.858-5.293s1.235-2.803 2.152-3.861a9.59 9.59 0 0 1 3.268-2.46c1.262-.583 2.677-.932 4.245-1.048zm0 2.587a9.173 9.173 0 0 0-3.109.768 7.199 7.199 0 0 0-2.51 1.887c-.718.828-1.283 1.86-1.695 3.096-.412 1.236-.644 2.688-.697 4.357-.027.662-.047 1.267-.06 1.813a65.642 65.642 0 0 0 0 3.208c.013.56.033 1.153.06 1.783.053 1.69.285 3.116.697 4.279.412 1.162.97 2.107 1.674 2.833a5.767 5.767 0 0 0 2.491 1.528c.957.292 2.006.399 3.149.32 1.143-.08 2.192-.333 3.149-.76a6.974 6.974 0 0 0 2.49-1.878c.705-.826 1.263-1.85 1.675-3.074.412-1.224.644-2.686.697-4.388.027-.636.04-1.234.04-1.795v-3.217c0-.547-.013-1.15-.04-1.81-.053-1.666-.285-3.088-.697-4.267-.412-1.178-.977-2.13-1.694-2.854a5.882 5.882 0 0 0-2.511-1.52c-.957-.289-1.993-.392-3.11-.31zm19.45 24.084l13.75-.958c.612-.043.918.269.918.933v.65c0 .637-.306.976-.917 1.018l-15.385 1.066c-.585.04-.877-.256-.877-.89v-28.365c0-.634.292-.973.877-1.016l.757-.057c.585-.043.877.253.877.887v26.732zm29.933-18.343c-.08 2.411-.08 4.845 0 7.303.106 3.296.863 5.633 2.272 7.013 1.408 1.38 3.334 1.985 5.78 1.815 1.062-.074 2.038-.25 2.929-.53a6.756 6.756 0 0 0 2.351-1.275c.678-.57 1.256-1.3 1.734-2.19.478-.891.85-2 1.116-3.326.053-.352.16-.6.319-.742a.914.914 0 0 1 .558-.235l.797-.057a.824.824 0 0 1 .618.196c.172.148.245.353.219.617-.053 1.05-.28 2.141-.678 3.274-.398 1.132-1.023 2.186-1.873 3.16-.85.974-1.94 1.805-3.268 2.493-1.329.687-2.936 1.096-4.823 1.227-1.807.125-3.361-.065-4.663-.57-1.302-.503-2.385-1.247-3.249-2.23-.863-.983-1.507-2.176-1.933-3.58-.425-1.404-.664-2.959-.717-4.664a85.425 85.425 0 0 1-.08-3.818c0-1.361.027-2.667.08-3.916.053-1.684.292-3.266.717-4.745.426-1.48 1.07-2.773 1.933-3.88.864-1.107 1.947-2.006 3.249-2.697 1.302-.69 2.856-1.103 4.663-1.238 1.887-.14 3.494.038 4.823.535 1.328.497 2.418 1.172 3.268 2.024a8.005 8.005 0 0 1 1.873 2.892 10.68 10.68 0 0 1 .678 3.176.76.76 0 0 1-.22.648.946.946 0 0 1-.617.285l-.797.058a.804.804 0 0 1-.558-.156c-.16-.119-.266-.35-.32-.696-.265-1.288-.637-2.343-1.115-3.165-.478-.821-1.056-1.469-1.734-1.942-.677-.472-1.461-.785-2.351-.937-.89-.152-1.867-.189-2.93-.11-2.445.18-4.37 1.062-5.78 2.644-1.408 1.582-2.165 4.028-2.271 7.34zm31.925-6.503c1.435-.105 2.697.058 3.787.488 1.09.431 2 1.065 2.73 1.9.73.837 1.289 1.854 1.674 3.051s.605 2.494.658 3.89c0 .234.006.51.02.83a26.095 26.095 0 0 1 0 2.035c-.014.337-.02.607-.02.811a15.483 15.483 0 0 1-.658 3.984c-.385 1.252-.943 2.348-1.674 3.289a8.52 8.52 0 0 1-2.73 2.288c-1.09.586-2.352.928-3.787 1.027-1.434.1-2.696-.068-3.786-.502-1.09-.433-2-1.069-2.73-1.905-.73-.837-1.295-1.852-1.694-3.046-.399-1.194-.611-2.488-.638-3.882 0-.203-.006-.472-.02-.806a25.732 25.732 0 0 1 0-2.028c.014-.321.02-.598.02-.83.027-1.399.24-2.723.638-3.973.399-1.25.963-2.346 1.694-3.287a8.568 8.568 0 0 1 2.73-2.294c1.09-.589 2.352-.936 3.786-1.04zm6.418 9.722c-.08-2.502-.705-4.36-1.874-5.572-1.169-1.213-2.683-1.751-4.543-1.616-1.86.135-3.375.893-4.544 2.273-1.17 1.38-1.794 3.323-1.874 5.83-.026.44-.04.979-.04 1.619s.014 1.177.04 1.612c.08 2.497.705 4.351 1.874 5.565 1.169 1.213 2.683 1.756 4.543 1.626 1.86-.13 3.375-.883 4.544-2.262 1.17-1.379 1.794-3.325 1.874-5.838.026-.44.04-.98.04-1.622 0-.641-.014-1.18-.04-1.615zm10.402 11.306c0 .642-.292.984-.877 1.024l-.677.047c-.585.04-.877-.26-.877-.903v-29.166c0-.642.292-.985.877-1.029l.677-.05c.585-.044.877.256.877.899v29.178zm8.968-.623c0 .643-.292.985-.877 1.026l-.677.047c-.585.04-.877-.261-.877-.904v-29.209c0-.643.292-.986.877-1.03l.677-.05c.585-.044.877.256.877.9v29.22zm5.46-12.587c.107-1.5.38-2.889.818-4.165.438-1.276 1.023-2.38 1.753-3.31a8.671 8.671 0 0 1 2.65-2.259c1.037-.573 2.206-.908 3.508-1.003 2.79-.204 4.956.643 6.497 2.541 1.541 1.899 2.312 4.625 2.312 8.177v.66c0 .294-.087.535-.26.724a.95.95 0 0 1-.657.31l-14.19 1.007v.44c.027.993.193 1.948.499 2.864.306.915.724 1.713 1.255 2.394a5.667 5.667 0 0 0 1.953 1.6c.771.385 1.635.545 2.591.478.85-.059 1.594-.228 2.232-.507a8.156 8.156 0 0 0 1.634-.928c.452-.34.817-.68 1.096-1.022.28-.343.472-.606.578-.79.24-.397.425-.638.558-.72.133-.083.346-.135.638-.155l.638-.045a.82.82 0 0 1 .618.199c.172.15.245.357.219.623-.027.413-.233.94-.618 1.584-.385.643-.93 1.268-1.634 1.875-.704.606-1.561 1.142-2.57 1.608-1.01.466-2.14.742-3.389.829-1.275.088-2.431-.074-3.467-.485a6.935 6.935 0 0 1-2.67-1.88c-.745-.841-1.336-1.869-1.774-3.082-.439-1.214-.711-2.563-.817-4.049a30.357 30.357 0 0 1-.04-1.754c0-.731.013-1.318.04-1.759zm2.432.222l12.674-.904v-.176c0-1.086-.146-2.095-.438-3.028-.292-.933-.71-1.731-1.256-2.396a5.178 5.178 0 0 0-2.012-1.504c-.798-.339-1.688-.472-2.67-.4-1.01.073-1.9.335-2.671.787a6.511 6.511 0 0 0-1.973 1.79 8.063 8.063 0 0 0-1.236 2.572c-.279.972-.418 2-.418 3.083v.176zm19.37-1.25a18.31 18.31 0 0 1 .499-3.87c.305-1.284.797-2.458 1.474-3.521a8.952 8.952 0 0 1 2.61-2.659c1.064-.71 2.38-1.122 3.947-1.236 1.647-.12 3.009.119 4.085.717 1.076.599 1.946 1.36 2.61 2.284v-2.032c0-.295.08-.544.24-.747a.854.854 0 0 1 .638-.333l.637-.047c.266-.02.485.06.658.24.173.178.26.415.26.71v21.52c0 1.415-.134 2.75-.4 4.005-.265 1.255-.737 2.363-1.414 3.322-.678.96-1.588 1.743-2.73 2.35-1.143.607-2.605.971-4.385 1.092-1.7.115-3.082-.049-4.145-.491-1.063-.442-1.907-.988-2.531-1.636-.624-.648-1.05-1.331-1.275-2.05-.226-.72-.352-1.298-.38-1.737a.93.93 0 0 1 .24-.744c.186-.203.399-.314.638-.33l.558-.039a.868.868 0 0 1 .538.118c.146.092.285.34.418.742.107.346.273.738.499 1.179.225.44.55.858.976 1.255.425.398.983.712 1.674.945.69.232 1.554.313 2.59.242 1.09-.074 2.053-.25 2.89-.528.837-.278 1.535-.708 2.093-1.29.558-.584.983-1.341 1.275-2.274.293-.933.439-2.107.439-3.52v-3.048a9.204 9.204 0 0 1-2.61 2.677c-1.077.737-2.439 1.162-4.086 1.276-1.568.108-2.883-.117-3.946-.675a7.262 7.262 0 0 1-2.61-2.288c-.678-.966-1.17-2.07-1.475-3.312a17.342 17.342 0 0 1-.499-3.799 38.206 38.206 0 0 1 0-2.467zm15.226-1.439c-.053-.909-.2-1.811-.439-2.707a7.247 7.247 0 0 0-1.136-2.413 5.57 5.57 0 0 0-1.972-1.69c-.798-.413-1.767-.578-2.91-.495-1.17.085-2.152.384-2.95.898a6.226 6.226 0 0 0-1.933 1.948 8.567 8.567 0 0 0-1.076 2.656 15.447 15.447 0 0 0-.378 3.07 38.235 38.235 0 0 0 0 2.468c.026 1.056.152 2.068.378 3.037.226.969.585 1.81 1.076 2.526a4.88 4.88 0 0 0 1.933 1.65c.798.386 1.78.538 2.95.457 1.143-.08 2.112-.383 2.91-.909a6.866 6.866 0 0 0 1.972-1.97 8.5 8.5 0 0 0 1.136-2.575c.24-.93.386-1.853.439-2.77.026-.444.04-.975.04-1.593 0-.619-.014-1.148-.04-1.588zm7.892-.74c.106-1.511.378-2.909.817-4.194.438-1.285 1.023-2.396 1.753-3.334a8.681 8.681 0 0 1 2.65-2.273c1.037-.577 2.206-.913 3.508-1.008 2.79-.204 4.956.65 6.497 2.562 1.541 1.914 2.312 4.66 2.312 8.237v.666c0 .295-.087.538-.26.728a.947.947 0 0 1-.657.312l-14.19 1.007v.442a9.965 9.965 0 0 0 .499 2.885c.306.923.724 1.727 1.255 2.413a5.68 5.68 0 0 0 1.954 1.612c.77.389 1.634.55 2.59.483.85-.059 1.594-.229 2.232-.51a8.136 8.136 0 0 0 1.634-.933 6.266 6.266 0 0 0 1.096-1.03c.28-.344.472-.609.578-.794.24-.4.425-.643.558-.726.133-.083.346-.135.638-.155l.638-.045c.239-.017.445.05.618.2.172.15.245.36.219.628-.027.416-.233.948-.618 1.595-.385.648-.93 1.277-1.634 1.888-.704.61-1.561 1.15-2.57 1.619-1.01.468-2.14.746-3.389.832-1.275.089-2.431-.075-3.467-.49a6.94 6.94 0 0 1-2.67-1.895c-.745-.847-1.336-1.883-1.774-3.105-.439-1.223-.711-2.582-.817-4.078-.027-.44-.04-1.03-.04-1.767 0-.737.013-1.327.04-1.772zm2.43.225l12.675-.904v-.177c0-1.094-.146-2.11-.438-3.05-.292-.94-.71-1.744-1.256-2.414a5.185 5.185 0 0 0-2.012-1.516c-.798-.341-1.688-.476-2.67-.405-1.01.074-1.9.338-2.671.792a6.523 6.523 0 0 0-1.973 1.803c-.545.747-.957 1.61-1.236 2.589a11.275 11.275 0 0 0-.418 3.105v.177z" fill="#E10098"/>
    <path d="M565.449 401.756l1.118 3.18c6.526-3.07 13.592-6.743 20.19-11.274.612 1.236 3.506 6.006 11.955 6.378 8.293.368 12.16-2.587 12.16-2.587s-.89-6.553-10.526-7.045c-4.575-.232-10.047 1.57-12.465 2.47 4.003-2.837 7.81-6.002 11.19-9.553.21-.22.42-.443.63-.665.395.96 2.688 5.365 11.402 4.804 8.475-.545 12.305-3.913 12.305-3.913s-.635-6.182-11.216-5.415c-5.077.368-10.386 3.121-12.037 4.042 3.164-3.374 6.31-6.94 9.282-10.691.82.945 5.06 5.15 13.525 2.172 8.233-2.901 12.048-8.299 12.048-8.299s-3.4-6.352-13.663-2.644c-4.3 1.551-8.707 5.373-10.803 7.354 3.725-4.838 7.134-9.97 9.904-15.373 1.05 1.072 5.122 4.24 14.184.82 8.005-3.027 11.843-8.727 11.843-8.727-.129-.146-4.53-6.055-13.895-2.051-5.27 2.249-9.499 6.393-11.371 8.433 1.857-3.83 3.385-7.791 4.47-11.875 1.274.47 6.144 1.71 13.882-3.05 6.685-4.122 10.318-11.835 10.318-11.835-.128-.116-5.296-2.89-12.37 1.529-5.734 3.575-9.98 9.717-11.526 12.164.124-.51.24-1.021.35-1.534a94.672 94.672 0 0 0 1.475-8.976c1.94-.543 6.784-2.375 12.106-8.02 6.497-6.903 7.415-17.448 7.415-17.448-.128-.066-8.699.114-13.894 8.971-3.152 5.367-3.776 11.502-5.472 15.05.53-5.37.584-10.778.104-16.127 1.276-.49 5.244-2.527 9.401-9.907 4.755-8.45 3.425-18.616 3.425-18.616-.143-.024-8.345 2.645-11.35 12.536-1.305 4.292-1.726 9.301-1.856 12.584a76.186 76.186 0 0 0-.975-5.673c-.606-2.863-1.228-5.357-1.914-7.701 1.114-.616 3.587-2.706 6.489-9.713 3.725-9.004 1.107-18.85 1.107-18.85-.146 0-7.785 3.054-9.035 14.064-.429 3.78-.197 7.6.126 10.406-1.01-2.897-2.176-5.758-3.602-9.053a72.301 72.301 0 0 0-2.098-4.383c1.157-.732 4.91-3.555 6.65-10.246 3.415-13.141-2.53-18.49-2.53-18.49-.146.02-6.312 4.903-6.785 15.03-.218 4.658.788 9.037 1.544 11.595-2.203-4.035-4.78-8.18-6.945-11.27-.22-.313-.441-.627-.664-.94.661-1.43 2.804-6.57 2.941-13.41.241-12.037-6.192-14.501-6.192-14.501-.55.73-3.016 8.305-1.99 14.92.658 4.234 2.347 8.213 3.591 10.716a179.586 179.586 0 0 0-8.896-11.081c.6-1.566 1.884-5.532 1.577-12.838-.446-10.628-6.595-14.198-6.595-14.198-1.072 1.816-2.097 8.744-1.079 14.916.636 3.859 2.208 7.077 3.575 9.283a174.091 174.091 0 0 0-2.967-3.187 43.606 43.606 0 0 0-2.758-2.635c-1.022-1.94-3.56-5.846-8.063-9.641-7.337-6.169-15.205-1.545-15.205-1.545.387 1.98 5.292 8.395 10.29 11.072 3.824 2.051 10.963 1.407 12.933 1.18 1.016.884 1.99 1.809 2.885 2.768a149.439 149.439 0 0 1 5.512 6.255c-1.95-1.538-5.258-3.526-9.665-3.933-5.691-.524-10.066.94-12.876 3.029 0 0 4.334 5.675 12.64 5.684 6.654.008 10.216-1.925 11.591-2.72a181.146 181.146 0 0 1 7.73 10.345c-1.794-1.515-5.207-3.767-10.018-4.222-5.691-.538-8.424.869-11.233 2.954 0 0 3.461 5.498 11.768 5.525 6.581.023 9.339-1.832 10.594-2.633 2.865 4.261 5.309 8.49 7.456 13.652-1.718-2.047-4.847-5.11-9.204-6.713-7.082-2.6-10.72-.673-13.765.88.97 1.514 4.946 7.836 11.391 9.231 6.126 1.33 10.678-.379 12.49-1.104 1.453 3.767 2.914 7.713 4.179 11.77-1.604-2.196-4.454-5.38-8.533-7.284-6.85-3.193-10.58-1.555-13.7-.243.865 1.6 4.395 8.275 10.693 10.205 5.855 1.798 10.404.554 12.327-.044 1.022 3.584 1.86 7.242 2.378 10.926a76.97 76.97 0 0 1 .582 5.658c-2.641-3.728-4.299-7.806-8.559-11.62-5.556-4.968-10.323-2.774-13.559-2.118 1.593 3.16 3.984 8.173 8.927 11.665 5.394 3.818 11.343 3 13.234 2.771a78.853 78.853 0 0 1-.595 15.106c-2.062-3.74-3.378-6.927-7.024-11.11-4.967-5.69-9.676-4.171-12.927-3.924 1.248 3.372 3.351 8.396 7.864 12.527 4.578 4.197 9.737 3.893 11.907 3.749a75.011 75.011 0 0 1-1.8 8.478 71.447 71.447 0 0 1-1.152 3.78c-3.106-5.272-2.883-6.87-6.344-11.58-3.941-5.358-8.92-4.757-12.156-4.806.991 3.496 2.472 8.213 6.674 12.73 4.095 4.408 8.34 3.89 11.55 4.462-1.513 4.354-3.428 8.55-5.643 12.585-1.964-4.984-1.71-8.38-3.76-12.003-3.545-6.264-7.02-6.244-10.258-6.298 2.582 7.954 1.985 8.043 4.827 12.782 2.562 4.276 5.975 4.879 8.873 6.094-2.085 3.733-4.425 7.325-6.939 10.772-1.037-5.293.13-7.273-1.236-11.34-2.352-6.992-5.715-7.713-8.835-8.455.358 4.792-.183 7.897 2.264 12.92 1.618 3.324 4.86 5.376 7.47 7.336-3.156 4.28-6.577 8.333-10.108 12.153.672-1.475 2.263-5.74 2.054-12.638-.283-9.3-6.387-9.757-6.387-9.757s-2.702 5.983-1.805 12.58c1.115 8.195 4.77 10.012 5.655 10.336-.378.405-.757.808-1.137 1.207-2.75 2.893-5.752 5.523-8.909 7.926.803-1.982 2.081-5.89 2.16-10.841.174-11.079-5.72-10.768-5.72-10.768s-2.704 6.041-2.112 12.695c.566 6.37 3.091 8.993 4.333 9.913-6.627 4.843-13.856 8.739-20.817 12.016zm-162.084-5.405c-.38-.327-.76-.657-1.137-.99.886-.455 4.54-2.8 5.654-10.929.897-6.55-1.805-11.909-1.805-11.909s-6.103 1.456-6.386 10.504c-.21 6.707 1.38 10.581 2.052 11.905-3.531-3.136-6.954-6.508-10.11-10.133 2.608-2.316 5.846-4.827 7.463-8.306 2.447-5.268 1.905-8.185 2.264-12.886-3.12 1.246-6.483 2.509-8.835 9.657-1.366 4.149-.2 5.87-1.234 11.14-2.51-2.914-4.847-5.99-6.93-9.24 2.899-1.65 6.312-2.799 8.874-7.355 2.842-5.058 2.245-5.043 4.827-13.175-3.237.608-6.713 1.186-10.258 7.833-2.05 3.84-1.796 7.068-3.76 12.197-2.216-3.517-4.13-7.234-5.645-11.165 3.21-1.093 7.455-1.314 11.55-6.262 4.202-5.083 5.683-9.9 6.674-13.452-3.237.615-8.215.907-12.156 6.758-3.46 5.13-3.238 6.629-6.343 12.227a57.488 57.488 0 0 1-1.151-3.436 62.372 62.372 0 0 1-1.801-7.834c2.167-.237 7.33-.835 11.912-5.678 4.513-4.777 6.616-10.002 7.864-13.483-3.25.344-7.96-.278-12.926 6.088-3.65 4.67-4.964 7.964-7.029 11.92-.684-4.685-.881-9.532-.596-14.406 1.905-.118 7.839-.4 13.22-5.032 4.943-4.262 7.335-9.54 8.928-12.885-3.236-.04-8.003-1.28-13.56 4.525-4.252 4.436-5.911 8.647-8.544 12.693.125-1.838.319-3.679.58-5.515.519-3.631 1.357-7.296 2.379-10.926 1.927.222 6.472.579 12.317-2.227 6.298-3.028 9.829-10.143 10.694-11.855-3.12-.681-6.85-1.561-13.7 2.808-4.065 2.588-6.91 6.166-8.517 8.572 1.263-4.126 2.721-8.186 4.172-12.078 1.81.357 6.364 1.151 12.495-1.29 6.445-2.569 10.42-9.454 11.392-11.108-3.046-.92-6.684-2.085-13.766 1.792-4.366 2.387-7.5 5.946-9.215 8.242 2.148-5.383 4.592-9.93 7.458-14.597 1.26.532 4.02 1.78 10.585.487 8.307-1.637 11.768-7.655 11.768-7.655-2.81-1.474-5.542-2.302-11.234-.661-4.78 1.377-8.18 4.194-9.984 6.008a237.957 237.957 0 0 1 7.711-11.487c1.372.495 4.935 1.666 11.595.34 8.306-1.656 12.64-8.054 12.64-8.054-2.81-1.471-7.185-2.018-12.876-.363-4.42 1.283-7.733 3.883-9.681 5.763a201.29 201.29 0 0 1 5.523-7.18 52.485 52.485 0 0 1 2.885-3.271c1.963-.177 9.111-.996 12.939-3.774 4.998-3.633 9.902-10.914 10.289-12.932 0 0-7.868-2.879-15.204 4.657-4.484 4.597-7.02 8.892-8.05 10.995a58.825 58.825 0 0 0-2.786 3.145 237.155 237.155 0 0 0-2.947 3.661c1.364-2.412 2.927-5.84 3.561-9.7 1.016-6.197-.008-12.71-1.08-14.248 0 0-6.148 4.736-6.594 15.116-.307 7.124.974 10.706 1.575 12.106a238.783 238.783 0 0 0-8.913 12.497c1.245-2.66 2.94-6.848 3.6-11.081 1.026-6.602-1.44-13.426-1.99-14.019 0 0-6.433 3.684-6.192 15.241.137 6.573 2.283 11.115 2.943 12.361-.222.345-.443.689-.662 1.033-2.156 3.385-4.72 7.853-6.917 12.144.754-2.613 1.745-6.995 1.529-11.41-.474-9.661-6.64-13.139-6.786-13.13 0 0-5.945 6.309-2.53 18.258 1.734 6.077 5.473 8.083 6.64 8.575a85.713 85.713 0 0 0-2.1 4.618c-1.419 3.418-2.58 6.373-3.587 9.328.32-2.75.547-6.442.12-9.975-1.249-10.337-8.888-11.8-9.033-11.771 0 0-2.62 9.925 1.106 17.848 2.894 6.162 5.362 7.72 6.48 8.112a108.973 108.973 0 0 0-1.915 7.746 77.279 77.279 0 0 0-.966 5.55c-.133-3.126-.558-7.814-1.853-11.664-3.005-8.924-11.207-9.949-11.35-9.899 0 0-1.33 9.953 3.425 17.163 4.145 6.295 8.101 7.55 9.39 7.797a78.816 78.816 0 0 0 .104 15.454c-1.697-3.107-2.32-8.879-5.473-13.463-5.196-7.544-13.766-6.174-13.894-6.087 0 0 .917 9.89 7.414 15.337 5.323 4.473 10.167 5.39 12.107 5.575a80.286 80.286 0 0 0 1.475 8.359c.108.467.223.932.345 1.394-1.556-2.096-5.794-7.236-11.513-9.662-7.073-2.997-12.24.544-12.369.676 0 0 3.634 6.727 10.318 9.524 7.72 3.241 12.587 1.247 13.873.575 1.084 3.732 2.608 7.275 4.462 10.641-1.881-1.654-6.1-4.912-11.355-6.18-9.364-2.254-13.766 4.12-13.895 4.282 0 0 3.838 4.802 11.843 6.378 9.047 1.789 13.12-1.909 14.179-3.12 2.76 4.724 6.153 9.094 9.861 13.142-2.117-1.582-6.484-4.505-10.747-5.29-10.263-1.885-13.663 4.75-13.663 4.75s3.815 4.555 12.048 6.026c8.439 1.513 12.679-3.182 13.517-4.245 2.97 3.142 6.114 6.087 9.276 8.847-1.647-.628-6.96-2.453-12.041-2.003-10.581.937-11.216 6.976-11.216 6.976s3.83 2.64 12.304 1.848c8.72-.815 11.01-5.44 11.403-6.429l.632.547c3.376 2.905 7.178 5.378 11.176 7.51-2.434-.5-7.879-1.387-12.434-.456-9.638 1.968-10.526 8.425-10.526 8.425s3.866 2.264 12.159.649c8.432-1.646 11.332-6.708 11.95-8.016 6.596 3.389 13.657 5.886 20.179 7.89l1.125-3.286c-6.96-2.133-14.19-4.817-20.818-8.502 1.243-1.09 3.766-4.038 4.332-10.327.591-6.574-2.113-12.016-2.113-12.016s-5.894.66-5.719 11.392c.078 4.792 1.354 8.385 2.157 10.187-3.154-1.84-6.154-3.918-8.902-6.286z" fill="#E535AB" fill-rule="nonzero"/>
    <path d="M275.15 624.81c2.3-.178 3.45.911 3.45 3.27v2.307c0 2.256-1.15 3.47-3.45 3.645l-51.75 3.921v40.854l48.75-3.234c2.3-.152 3.45.95 3.45 3.307v2.305c0 2.255-1.15 3.456-3.45 3.603l-48.75 3.132v43.891c0 2.228-1.15 3.403-3.45 3.525l-2.7.144c-2.2.118-3.3-.935-3.3-3.158v-99.26c0-2.323 1.1-3.57 3.3-3.742l57.9-4.51zm19.65 29.655c0-2.265 1.1-3.475 3.3-3.633l2.55-.182c2.2-.158 3.3.898 3.3 3.167v43.161c0 17.636 7.45 26.044 22.35 25.224 7.2-.396 12.925-3.05 17.175-7.969 4.25-4.927 6.375-11.615 6.375-20.055v-43.61c0-2.293 1.1-3.518 3.3-3.676l2.55-.182c2.2-.158 3.3.912 3.3 3.21v74.556c0 2.297-1.1 3.504-3.3 3.622l-2.55.136c-2.2.117-3.3-.97-3.3-3.263v-7.347c-2.7 3.796-5.95 6.94-9.75 9.434-3.8 2.49-8.9 3.903-15.3 4.242-5.1.27-9.525-.375-13.275-1.932-3.75-1.553-6.875-3.809-9.375-6.765-2.5-2.953-4.35-6.506-5.55-10.66-1.2-4.15-1.8-8.695-1.8-13.635v-43.843zm97.8 68.193c0 2.315-1.1 3.53-3.3 3.648l-2.55.136c-2.2.117-3.3-.98-3.3-3.289V618.266c0-2.31 1.1-3.55 3.3-3.723l2.55-.2c2.2-.172 3.3.9 3.3 3.214v105.101zm33.75-1.826c0 2.332-1.1 3.557-3.3 3.674l-2.55.136c-2.2.117-3.3-.987-3.3-3.315V615.652c0-2.328 1.1-3.577 3.3-3.75l2.55-.199c2.2-.172 3.3.908 3.3 3.24v105.89zm69.9-22.67c0-2.26-.425-4.119-1.275-5.575-.85-1.456-2.25-2.743-4.2-3.862-1.95-1.118-4.55-2.089-7.8-2.91-3.25-.82-7.225-1.675-11.925-2.564-4.8-.88-8.7-2-11.7-3.36-3-1.36-5.35-2.971-7.05-4.836-1.7-1.863-2.85-3.92-3.45-6.17-.6-2.252-.9-4.655-.9-7.21 0-2.77.55-5.576 1.65-8.421 1.1-2.846 2.775-5.44 5.025-7.784 2.25-2.346 5.05-4.333 8.4-5.96 3.35-1.63 7.275-2.607 11.775-2.93 4.9-.353 9.075.044 12.525 1.193 3.45 1.151 6.275 2.617 8.475 4.399 2.2 1.783 3.825 3.635 4.875 5.555 1.05 1.921 1.625 3.471 1.725 4.65.1 1.071-.2 1.954-.9 2.647-.7.694-1.5 1.071-2.4 1.132l-2.25.151c-1.4.094-2.5-.531-3.3-1.875a42.683 42.683 0 0 0-2.55-3.537c-.9-1.12-2.05-2.089-3.45-2.905-1.4-.816-3.125-1.421-5.175-1.815-2.05-.393-4.575-.485-7.575-.276-6 .42-10.45 2.04-13.35 4.859-2.9 2.815-4.35 6.25-4.35 10.305 0 1.814.3 3.395.9 4.743.6 1.348 1.75 2.58 3.45 3.698 1.7 1.119 4.025 2.118 6.975 2.997 2.95.882 6.825 1.759 11.625 2.633 4.8.877 8.825 1.965 12.075 3.267 3.25 1.303 5.85 2.864 7.8 4.682 1.95 1.82 3.35 3.944 4.2 6.373.85 2.429 1.275 5.154 1.275 8.173 0 3.236-.65 6.346-1.95 9.33-1.3 2.983-3.2 5.647-5.7 7.992-2.5 2.342-5.6 4.257-9.3 5.745-3.7 1.486-8 2.358-12.9 2.618-5.3.28-9.8-.23-13.5-1.529-3.7-1.296-6.75-2.892-9.15-4.788-2.4-1.893-4.175-3.846-5.325-5.859-1.15-2.012-1.775-3.546-1.875-4.605-.1-1.165.25-2.064 1.05-2.695.8-.632 1.55-.968 2.25-1.009l2.25-.13c.6-.034 1.125.042 1.575.23.45.186 1.025.74 1.725 1.66.9 1.335 1.95 2.608 3.15 3.821s2.625 2.255 4.275 3.124c1.65.87 3.575 1.538 5.775 2.005 2.2.467 4.8.618 7.8.453 6-.33 10.95-1.837 14.85-4.525 3.9-2.692 5.85-6.462 5.85-11.305zm43.35-7.738c0 5.867.875 10.353 2.625 13.46 1.75 3.109 4.875 4.54 9.375 4.29l8.1-.448c2.2-.121 3.3 1.019 3.3 3.421v2.293c0 2.402-1.1 3.662-3.3 3.78l-8.85.471c-3.9.208-7.175-.324-9.825-1.595-2.65-1.27-4.75-3.083-6.3-5.44-1.55-2.356-2.65-5.17-3.3-8.44-.65-3.271-.975-6.804-.975-10.599v-47.98l-11.7.813c-2.2.153-3.3-.959-3.3-3.337v-2.27c0-2.377 1.1-3.645 3.3-3.802l11.7-.838V606.88c0-2.385 1.1-3.664 3.3-3.836l2.55-.2c2.2-.172 3.3.937 3.3 3.327v27.379l18.6-1.332c2.2-.157 3.3.965 3.3 3.366v2.293c0 2.401-1.1 3.678-3.3 3.831l-18.6 1.294v47.423zm89.7 23.084c-2.2.117-3.3-1.041-3.3-3.476v-7.802c-.9 1.6-2.075 3.213-3.525 4.841-1.45 1.627-3.225 3.105-5.325 4.434-2.1 1.327-4.6 2.482-7.5 3.464-2.9.981-6.3 1.575-10.2 1.781-3.6.191-7.025-.26-10.275-1.35-3.25-1.088-6.1-2.662-8.55-4.722a23.202 23.202 0 0 1-5.85-7.399c-1.45-2.873-2.175-6.06-2.175-9.56 0-3.721.725-7.101 2.175-10.144 1.45-3.044 3.475-5.769 6.075-8.176 2.6-2.41 5.725-4.47 9.375-6.182 3.65-1.715 7.675-3.043 12.075-3.984l23.7-5.166v-5.81c0-5.976-1.625-10.513-4.875-13.608-3.25-3.091-8.425-4.386-15.525-3.89-5.6.391-9.925 1.875-12.975 4.45-3.05 2.572-4.975 5.256-5.775 8.054-.4 1.344-.875 2.282-1.425 2.812-.55.53-1.275.826-2.175.886l-2.1.14c-.9.06-1.675-.244-2.325-.913-.65-.668-.975-1.496-.975-2.481 0-1.534.5-3.485 1.5-5.854 1-2.37 2.625-4.73 4.875-7.081 2.25-2.353 5.125-4.45 8.625-6.293 3.5-1.844 7.75-2.947 12.75-3.307 5.9-.424 10.775.109 14.625 1.601 3.85 1.495 6.875 3.578 9.075 6.246a22.882 22.882 0 0 1 4.575 9.075c.85 3.38 1.275 6.732 1.275 10.059v55.384c0 2.44-1.1 3.718-3.3 3.835l-2.55.136zm-28.35-6.414c3.4-.187 6.625-.998 9.675-2.435 3.05-1.438 5.725-3.492 8.025-6.163 2.3-2.673 4.1-5.982 5.4-9.93 1.3-3.948 1.95-8.524 1.95-13.726v-5.643l-19.35 4.189c-16.6 3.557-24.9 9.878-24.9 18.977 0 2.741.575 5.065 1.725 6.973 1.15 1.91 2.625 3.472 4.425 4.689 1.8 1.217 3.85 2.064 6.15 2.542 2.3.478 4.6.653 6.9.527zm63.45-44.824c-.1 1.68-.15 3.635-.15 5.866s.05 4.18.15 5.848c.3 10.469 2.675 17.891 7.125 22.273 4.45 4.39 10.075 6.4 16.875 6.026 5.3-.291 9.775-1.801 13.425-4.533 3.65-2.735 6.525-7.373 8.625-13.913.5-1.382.95-2.338 1.35-2.868.4-.53 1.15-.829 2.25-.894l2.1-.125c.9-.053 1.7.238 2.4.873.7.636 1 1.521.9 2.656-.1 3.052-.775 6.194-2.025 9.424-1.25 3.229-3.15 6.238-5.7 9.027-2.55 2.786-5.75 5.098-9.6 6.936-3.85 1.835-8.425 2.891-13.725 3.172-10.6.562-18.7-2.416-24.3-8.92-5.6-6.488-8.55-15.73-8.85-27.74-.1-1.663-.15-3.887-.15-6.67 0-2.784.05-5.014.15-6.691.3-12.046 3.25-21.657 8.85-28.845 5.6-7.203 13.7-11.192 24.3-11.954 5.3-.382 9.875.104 13.725 1.458 3.85 1.357 7.05 3.27 9.6 5.737 2.55 2.47 4.45 5.242 5.7 8.314 1.25 3.074 1.925 6.132 2.025 9.172.1 1.122-.2 2.045-.9 2.768-.7.723-1.5 1.114-2.4 1.173l-2.1.137c-1.1.073-1.85-.132-2.25-.613-.4-.48-.85-1.38-1.35-2.699-2.1-6.278-4.975-10.556-8.625-12.836-3.65-2.276-8.125-3.227-13.425-2.857-6.8.476-12.425 3.19-16.875 8.135-4.45 4.937-6.825 12.656-7.125 23.163zm89.85-4.528l41.7 40c1.3 1.306 1.95 2.417 1.95 3.335 0 2.293-1 3.494-3 3.6l-2.4.128c-1.5.08-2.575-.006-3.225-.257-.65-.252-1.675-1.026-3.075-2.324l-37.65-35.946v37.124c0 2.498-1.1 3.806-3.3 3.923l-2.55.136c-2.2.117-3.3-1.07-3.3-3.564V590.693c0-2.493 1.1-3.825 3.3-3.997l2.55-.2c2.2-.172 3.3.991 3.3 3.489v60.285L782 619.116c1.4-1.358 2.425-2.231 3.075-2.62.65-.39 1.725-.639 3.225-.746l2.85-.204c2-.143 3 .931 3 3.223 0 .458-.125 1.012-.375 1.66-.25.647-.775 1.286-1.575 1.915l-37.95 35.398zM209.225 809.578c10.5-.38 18.875 1.85 25.125 6.702 6.25 4.867 9.375 12.494 9.375 22.87 0 8.24-1.975 14.826-5.925 19.753-3.95 4.919-9.525 8.319-16.725 10.203l24.15 41.283c.3.606.45 1.164.45 1.673 0 .814-.3 1.53-.9 2.148-.6.617-1.3.93-2.1.94l-1.8.021c-1.7.02-2.925-.372-3.675-1.176-.75-.803-1.425-1.76-2.025-2.869l-23.85-40.438-30.9.682v41.2c0 2.205-1.15 3.322-3.45 3.348l-2.7.032c-2.2.026-3.3-1.062-3.3-3.262v-98.273c0-2.3 1.1-3.49 3.3-3.57l34.95-1.267zm-28.8 52.77l28.05-.678c17.2-.416 25.8-7.831 25.8-22.245 0-14.413-8.6-21.326-25.8-20.739l-28.05.958v42.704zm79.8 6.647c.4-5.217 1.425-10.016 3.075-14.399 1.65-4.387 3.85-8.152 6.6-11.297 2.75-3.15 6.075-5.653 9.975-7.511 3.9-1.861 8.3-2.867 13.2-3.016 10.5-.318 18.65 2.974 24.45 9.89 5.8 6.933 8.7 16.678 8.7 29.22v2.333c0 1.036-.325 1.872-.975 2.507-.65.635-1.475.962-2.475.982l-53.4 1.065v1.534c.1 3.478.725 6.843 1.875 10.098 1.15 3.257 2.725 6.125 4.725 8.604 2 2.48 4.45 4.47 7.35 5.97 2.9 1.5 6.15 2.227 9.75 2.179 3.2-.043 6-.493 8.4-1.35 2.4-.858 4.45-1.84 6.15-2.948 1.7-1.109 3.075-2.239 4.125-3.391 1.05-1.153 1.775-2.042 2.175-2.669.9-1.358 1.6-2.17 2.1-2.437.5-.267 1.3-.409 2.4-.427l2.4-.039c.9-.015 1.675.258 2.325.817.65.56.925 1.306.825 2.24-.1 1.452-.875 3.276-2.325 5.472-1.45 2.195-3.5 4.293-6.15 6.293-2.65 1.998-5.875 3.716-9.675 5.155-3.8 1.437-8.05 2.18-12.75 2.234-4.8.054-9.15-.743-13.05-2.39-3.9-1.645-7.25-4.01-10.05-7.096-2.8-3.081-5.025-6.78-6.675-11.098-1.65-4.315-2.675-9.071-3.075-14.271-.1-1.53-.15-3.571-.15-6.124 0-2.553.05-4.596.15-6.13zm9.15 1.178l47.7-1.044v-.621c0-3.827-.55-7.409-1.65-10.743-1.1-3.333-2.675-6.213-4.725-8.638-2.05-2.424-4.575-4.29-7.575-5.6-3-1.308-6.35-1.909-10.05-1.804-3.8.107-7.15.895-10.05 2.362a22.66 22.66 0 0 0-7.425 5.97c-2.05 2.513-3.6 5.445-4.65 8.799-1.05 3.351-1.575 6.92-1.575 10.705v.614zm127.5 43.174c-2.2.026-3.3-1.119-3.3-3.434v-7.419c-.9 1.486-2.075 2.975-3.525 4.466-1.45 1.49-3.225 2.827-5.325 4.008-2.1 1.18-4.6 2.181-7.5 3.002-2.9.82-6.3 1.25-10.2 1.295-3.6.04-7.025-.52-10.275-1.684-3.25-1.16-6.1-2.768-8.55-4.821-2.45-2.05-4.4-4.47-5.85-7.26-1.45-2.786-2.175-5.842-2.175-9.17 0-3.535.725-6.72 2.175-9.555 1.45-2.837 3.475-5.348 6.075-7.536 2.6-2.19 5.725-4.028 9.375-5.515 3.65-1.489 7.675-2.597 12.075-3.322l23.7-4v-5.524c0-5.683-1.625-10.06-4.875-13.127-3.25-3.063-8.425-4.492-15.525-4.291-5.6.158-9.925 1.404-12.975 3.735-3.05 2.328-4.975 4.805-5.775 7.434-.4 1.262-.875 2.135-1.425 2.618-.55.483-1.275.736-2.175.759l-2.1.053c-.9.022-1.675-.297-2.325-.957-.65-.66-.975-1.459-.975-2.396 0-1.457.5-3.292 1.5-5.506 1-2.215 2.625-4.395 4.875-6.544 2.25-2.15 5.125-4.034 8.625-5.652 3.5-1.62 7.75-2.506 12.75-2.658 5.9-.178 10.775.514 14.625 2.08 3.85 1.568 6.875 3.663 9.075 6.285 2.2 2.625 3.725 5.56 4.575 8.805.85 3.246 1.275 6.45 1.275 9.614V909.8c0 2.32-1.1 3.492-3.3 3.518l-2.55.03zm-28.35-7.203c3.4-.045 6.625-.691 9.675-1.938 3.05-1.25 5.725-3.098 8.025-5.548 2.3-2.452 4.1-5.529 5.4-9.232 1.3-3.704 1.95-8.03 1.95-12.976v-5.367l-19.35 3.238c-16.6 2.74-24.9 8.428-24.9 17.076 0 2.605.575 4.836 1.725 6.694a15.23 15.23 0 0 0 4.425 4.628c1.8 1.227 3.85 2.112 6.15 2.655 2.3.544 4.6.8 6.9.77zm63.45-40.169c-.1 1.594-.15 3.453-.15 5.575 0 2.122.05 3.979.15 5.569.3 9.97 2.675 17.123 7.125 21.464 4.45 4.35 10.075 6.482 16.875 6.391 5.3-.07 9.775-1.333 13.425-3.79 3.65-2.462 6.525-6.764 8.625-12.907.5-1.295.95-2.187 1.35-2.677.4-.49 1.15-.744 2.25-.764l2.1-.037c.9-.016 1.7.292 2.4.924.7.633 1 1.487.9 2.563-.1 2.901-.775 5.866-2.025 8.892-1.25 3.024-3.15 5.814-5.7 8.369-2.55 2.552-5.75 4.627-9.6 6.226-3.85 1.596-8.425 2.423-13.725 2.483-10.6.12-18.7-3.028-24.3-9.434-5.6-6.39-8.55-15.296-8.85-26.73-.1-1.587-.15-3.704-.15-6.352 0-2.647.05-4.767.15-6.357.3-11.447 3.25-20.476 8.85-27.099 5.6-6.638 13.7-10.124 24.3-10.445 5.3-.161 9.875.476 13.725 1.911 3.85 1.439 7.05 3.38 9.6 5.827 2.55 2.449 4.45 5.16 5.7 8.132 1.25 2.974 1.925 5.91 2.025 8.807.1 1.072-.2 1.939-.9 2.6s-1.5 1.003-2.4 1.024l-2.1.05c-1.1.027-1.85-.197-2.25-.67-.4-.472-.85-1.346-1.35-2.62-2.1-6.056-4.975-10.238-8.625-12.548-3.65-2.305-8.125-3.381-13.425-3.232-6.8.193-12.425 2.56-16.875 7.094-4.45 4.526-6.825 11.778-7.125 21.761zm89.85 18.15c0 5.844.875 10.35 2.625 13.517 1.75 3.17 4.875 4.725 9.375 4.663l8.1-.111c2.2-.03 3.3 1.151 3.3 3.544v2.284c0 2.394-1.1 3.603-3.3 3.629l-8.85.103c-3.9.046-7.175-.62-9.825-1.996-2.65-1.374-4.75-3.268-6.3-5.68-1.55-2.412-2.65-5.26-3.3-8.545-.65-3.285-.975-6.817-.975-10.598V837.14l-11.7.326c-2.2.062-3.3-1.092-3.3-3.46v-2.262c0-2.368 1.1-3.585 3.3-3.651l11.7-.35v-27.22c0-2.377 1.1-3.605 3.3-3.686l2.55-.093c2.2-.08 3.3 1.07 3.3 3.45v27.274l18.6-.556c2.2-.066 3.3 1.097 3.3 3.49v2.283c0 2.392-1.1 3.619-3.3 3.68l-18.6.52v47.241zm128.4 26.26c-2.2.025-3.3-1.185-3.3-3.63v-7.837c-.9 1.569-2.075 3.14-3.525 4.715-1.45 1.574-3.225 2.984-5.325 4.23-2.1 1.246-4.6 2.301-7.5 3.166-2.9.864-6.3 1.318-10.2 1.362-3.6.041-7.025-.555-10.275-1.786-3.25-1.229-6.1-2.93-8.55-5.101a24.73 24.73 0 0 1-5.85-7.677c-1.45-2.947-2.175-6.178-2.175-9.695 0-3.737.725-7.102 2.175-10.097 1.45-2.997 3.475-5.65 6.075-7.958 2.6-2.311 5.725-4.25 9.375-5.817 3.65-1.57 7.675-2.735 12.075-3.496l23.7-4.195v-5.836c0-6.002-1.625-10.628-4.875-13.873-3.25-3.24-8.425-4.759-15.525-4.558-5.6.158-9.925 1.468-12.975 3.926-3.05 2.455-4.975 5.07-5.775 7.848-.4 1.333-.875 2.255-1.425 2.764-.55.51-1.275.776-2.175.799l-2.1.053c-.9.022-1.675-.316-2.325-1.015-.65-.699-.975-1.543-.975-2.533 0-1.54.5-3.48 1.5-5.817 1-2.34 2.625-4.642 4.875-6.909 2.25-2.268 5.125-4.255 8.625-5.958 3.5-1.706 7.75-2.636 12.75-2.787 5.9-.179 10.775.561 14.625 2.221 3.85 1.664 6.875 3.882 9.075 6.655a24.186 24.186 0 0 1 4.575 9.306c.85 3.43 1.275 6.816 1.275 10.157v55.629c0 2.45-1.1 3.688-3.3 3.713l-2.55.03zm-28.35-7.63c3.4-.046 6.625-.725 9.675-2.04 3.05-1.318 5.725-3.269 8.025-5.855 2.3-2.588 4.1-5.837 5.4-9.747 1.3-3.912 1.95-8.481 1.95-13.705v-5.67l-19.35 3.398c-16.6 2.877-24.9 8.879-24.9 18.018 0 2.753.575 5.112 1.725 7.077a15.768 15.768 0 0 0 4.425 4.894c1.8 1.298 3.85 2.236 6.15 2.811 2.3.577 4.6.85 6.9.819zm122.85 2.78c0 2.496-1.1 3.757-3.3 3.783l-2.55.03c-2.2.025-3.3-1.207-3.3-3.698v-47.386c0-9.058-1.95-16.114-5.85-21.16-3.9-5.037-9.6-7.447-17.1-7.235-7.2.204-12.95 2.895-17.25 8.067-4.3 5.163-6.45 12.283-6.45 21.366v46.93c0 2.466-1.1 3.713-3.3 3.738l-2.55.03c-2.2.026-3.3-1.192-3.3-3.655v-79.913c0-2.462 1.1-3.726 3.3-3.792l2.55-.076c2.2-.066 3.3 1.135 3.3 3.602v7.905c2.7-4.001 5.95-7.293 9.75-9.875 3.8-2.586 8.95-3.98 15.45-4.176 5.1-.155 9.55.67 13.35 2.478 3.8 1.81 6.975 4.377 9.525 7.702 2.55 3.328 4.475 7.3 5.775 11.915 1.3 4.617 1.95 9.65 1.95 15.094v48.327zm51.75-88.01c6.3-.19 11.45.975 15.45 3.5 4 2.53 7.25 5.661 9.75 9.393V789.45c0-2.535 1.1-3.843 3.3-3.924l2.55-.093c2.2-.08 3.3 1.15 3.3 3.69v115.34c0 2.54-1.1 3.822-3.3 3.848l-2.55.03c-2.2.025-3.3-1.23-3.3-3.765v-8.124c-2.5 3.951-5.75 7.246-9.75 9.885-4 2.634-9.15 3.985-15.45 4.057-5.9.067-10.85-1.107-14.85-3.518-4-2.407-7.25-5.562-9.75-9.465-2.5-3.898-4.35-8.287-5.55-13.168a67.543 67.543 0 0 1-1.95-14.831c-.1-3.188-.1-6.377 0-9.568.1-5.014.75-9.984 1.95-14.913 1.2-4.93 3.05-9.396 5.55-13.399 2.5-4.007 5.75-7.297 9.75-9.87 4-2.578 8.95-3.958 14.85-4.136zm25.2 52.133c.1-1.73.15-3.979.15-6.745 0-2.765-.05-5.012-.15-6.738-.1-3.455-.625-6.929-1.575-10.42-.95-3.49-2.425-6.59-4.425-9.301-2-2.709-4.5-4.913-7.5-6.612-3-1.697-6.6-2.486-10.8-2.367-4.4.124-8.075 1.115-11.025 2.972a22.499 22.499 0 0 0-7.2 7.225c-1.85 2.961-3.225 6.336-4.125 10.125-.9 3.788-1.4 7.737-1.5 11.848-.1 3.197-.1 6.392 0 9.585.1 4.106.6 8.063 1.5 11.87.9 3.81 2.275 7.156 4.125 10.04 1.85 2.886 4.25 5.166 7.2 6.84 2.95 1.676 6.625 2.486 11.025 2.427 4.3-.058 7.95-1.025 10.95-2.905a24.15 24.15 0 0 0 7.425-7.268c1.95-2.967 3.4-6.244 4.35-9.831a47.01 47.01 0 0 0 1.575-10.745zm-456.15 202.745l-53.1-1.264-9.3 24.526c-.2.407-.55.886-1.05 1.438-.5.552-1.25.813-2.25.784l-3-.09c-.8-.024-1.5-.354-2.1-.99-.6-.635-.9-1.364-.9-2.187 0-.514.1-1.077.3-1.69l37.95-99.944c.4-1.036.925-1.812 1.575-2.327.65-.516 1.575-.77 2.775-.764l5.1.028c1.2.006 2.125.271 2.775.795.65.524 1.175 1.308 1.575 2.351l37.95 102.45c.2.635.3 1.216.3 1.741 0 .84-.3 1.566-.9 2.178-.6.612-1.3.906-2.1.882l-3-.09c-1-.03-1.75-.34-2.25-.931-.5-.592-.85-1.1-1.05-1.525l-9.3-25.371zm-49.5-10.485l45.9.995-22.95-61.933-22.95 60.938zm118.35 41.59c-6.3-.192-11.45-1.566-15.45-4.12-4-2.55-7.25-5.601-9.75-9.157v37.539c0 2.323-1.1 3.444-3.3 3.364l-2.55-.094c-2.2-.08-3.3-1.28-3.3-3.598v-105.275c0-2.318 1.1-3.464 3.3-3.438l2.55.03c2.2.025 3.3 1.2 3.3 3.523v7.444c2.5-3.557 5.75-6.5 9.75-8.83 4-2.335 9.15-3.469 15.45-3.397 5.8.066 10.725 1.212 14.775 3.443 4.05 2.235 7.325 5.157 9.825 8.766 2.5 3.613 4.325 7.701 5.475 12.262a68.692 68.692 0 0 1 2.025 13.908c.1 1.606.15 3.371.15 5.296 0 1.925-.05 3.689-.15 5.29a67.48 67.48 0 0 1-2.025 13.825c-1.15 4.512-2.975 8.524-5.475 12.033-2.5 3.505-5.775 6.291-9.825 8.357-4.05 2.062-8.975 3.004-14.775 2.828zm-25.2-49.232c-.1 1.582-.15 3.64-.15 6.175 0 2.534.05 4.594.15 6.18.1 3.17.625 6.377 1.575 9.621.95 3.246 2.425 6.163 4.425 8.752 2 2.591 4.5 4.749 7.5 6.472 3 1.726 6.6 2.65 10.8 2.768 4.4.124 8.075-.57 11.025-2.083 2.95-1.516 5.35-3.607 7.2-6.276 1.85-2.67 3.2-5.782 4.05-9.335.85-3.554 1.375-7.25 1.575-11.087.1-2.986.1-5.974 0-8.964-.2-3.846-.725-7.537-1.575-11.073-.85-3.535-2.2-6.677-4.05-9.424-1.85-2.745-4.25-4.964-7.2-6.655-2.95-1.69-6.625-2.563-11.025-2.622-4.3-.058-7.95.741-10.95 2.395-3 1.652-5.475 3.811-7.425 6.478-1.95 2.665-3.4 5.627-4.35 8.886a39.126 39.126 0 0 0-1.575 9.792zm107.55-35.843c5.4.061 10.15 1.063 14.25 3.008 4.1 1.949 7.525 4.598 10.275 7.948 2.75 3.355 4.85 7.329 6.3 11.921 1.45 4.596 2.275 9.51 2.475 14.74 0 .872.025 1.906.075 3.105a96.109 96.109 0 0 1 0 7.595 79.197 79.197 0 0 0-.075 3.02c-.2 5.222-1.025 10.102-2.475 14.637-1.45 4.533-3.55 8.42-6.3 11.66-2.75 3.235-6.175 5.742-10.275 7.52-4.1 1.774-8.85 2.578-14.25 2.414-5.4-.163-10.15-1.25-14.25-3.26-4.1-2.006-7.525-4.689-10.275-8.048-2.75-3.355-4.875-7.307-6.375-11.856-1.5-4.547-2.3-9.397-2.4-14.551 0-.751-.025-1.745-.075-2.98a93.608 93.608 0 0 1 0-7.486c.05-1.18.075-2.2.075-3.058.1-5.15.9-9.966 2.4-14.45 1.5-4.488 3.625-8.351 6.375-11.592 2.75-3.244 6.175-5.784 10.275-7.62 4.1-1.838 8.85-2.728 14.25-2.667zm24.15 38.255c-.3-9.35-2.65-16.479-7.05-21.378-4.4-4.89-10.1-7.378-17.1-7.472-7-.093-12.7 2.23-17.1 6.961-4.4 4.723-6.75 11.703-7.05 20.947-.1 1.611-.15 3.6-.15 5.965 0 2.366.05 4.357.15 5.972.3 9.256 2.65 16.334 7.05 21.24 4.4 4.915 10.1 7.475 17.1 7.673 7 .198 12.7-2.053 17.1-6.76 4.4-4.716 6.75-11.746 7.05-21.085.1-1.628.15-3.637.15-6.028 0-2.39-.05-4.402-.15-6.034zm39.15 45.97c0 2.411-1.1 3.584-3.3 3.518l-2.55-.076c-2.2-.066-3.3-1.302-3.3-3.708V993.124c0-2.406 1.1-3.604 3.3-3.593l2.55.013c2.2.011 3.3 1.222 3.3 3.633v109.48zm33.75.985c0 2.428-1.1 3.61-3.3 3.543l-2.55-.076c-2.2-.066-3.3-1.31-3.3-3.734V993.32c0-2.424 1.1-3.63 3.3-3.619l2.55.013c2.2.011 3.3 1.23 3.3 3.659v110.269zm54.15-83.495c5.4.061 10.15 1.094 14.25 3.101 4.1 2.01 7.525 4.745 10.275 8.203 2.75 3.462 4.85 7.564 6.3 12.306 1.45 4.744 2.275 9.817 2.475 15.217 0 .9.025 1.968.075 3.206a102.452 102.452 0 0 1 0 7.842 84.423 84.423 0 0 0-.075 3.117c-.2 5.392-1.025 10.43-2.475 15.115-1.45 4.68-3.55 8.696-6.3 12.043-2.75 3.344-6.175 5.935-10.275 7.775-4.1 1.836-8.85 2.671-14.25 2.508-5.4-.164-10.15-1.282-14.25-3.354-4.1-2.068-7.525-4.835-10.275-8.302-2.75-3.462-4.875-7.543-6.375-12.241-1.5-4.695-2.3-9.704-2.4-15.028 0-.776-.025-1.802-.075-3.078a99.87 99.87 0 0 1 0-7.733c.05-1.219.075-2.271.075-3.158.1-5.32.9-10.295 2.4-14.928 1.5-4.636 3.625-8.628 6.375-11.976 2.75-3.352 6.175-5.977 10.275-7.875 4.1-1.9 8.85-2.821 14.25-2.76zm24.15 39.492c-.3-9.656-2.65-17.015-7.05-22.071-4.4-5.047-10.1-7.614-17.1-7.708-7-.093-12.7 2.308-17.1 7.197-4.4 4.88-6.75 12.091-7.05 21.639-.1 1.664-.15 3.718-.15 6.162 0 2.443.05 4.5.15 6.168.3 9.56 2.65 16.869 7.05 21.932 4.4 5.072 10.1 7.711 17.1 7.909 7 .198 12.7-2.132 17.1-6.996 4.4-4.873 6.75-12.134 7.05-21.777.1-1.681.15-3.756.15-6.225 0-2.468-.05-4.545-.15-6.23zM255.95 1178.69c-4.5-.22-8.575.168-12.225 1.159-3.65.99-6.8 2.712-9.45 5.169-2.65 2.453-4.75 5.666-6.3 9.64-1.55 3.971-2.425 8.786-2.625 14.448-.3 9.099-.3 18.215 0 27.35.2 5.685 1.075 10.604 2.625 14.759 1.55 4.157 3.65 7.62 6.3 10.387 2.65 2.77 5.8 4.867 9.45 6.29 3.65 1.423 7.725 2.293 12.225 2.607 4.4.308 8.5-.045 12.3-1.059 3.8-1.016 7.075-2.737 9.825-5.162 2.75-2.43 4.925-5.644 6.525-9.645 1.6-4.003 2.4-8.78 2.4-14.328v-7.86l-26.1-1.582c-2.2-.134-3.3-1.374-3.3-3.721V1225c0-2.347 1.1-3.456 3.3-3.328l32.1 1.88c2.3.135 3.45 1.386 3.45 3.754v13.59c0 6.178-.9 11.756-2.7 16.732-1.8 4.972-4.425 9.19-7.875 12.65-3.45 3.456-7.7 6.003-12.75 7.643-5.05 1.635-10.775 2.22-17.175 1.76-6.5-.467-12.2-1.869-17.1-4.202-4.9-2.328-9.025-5.383-12.375-9.164-3.35-3.776-5.9-8.175-7.65-13.198-1.75-5.02-2.725-10.516-2.925-16.493-.2-4.56-.3-9.367-.3-14.42 0-5.054.1-9.849.3-14.386.2-5.952 1.2-11.332 3-16.141 1.8-4.814 4.375-8.91 7.725-12.288 3.35-3.384 7.475-5.95 12.375-7.697 4.9-1.752 10.55-2.48 16.95-2.182 6.9.322 12.8 1.672 17.7 4.053 4.9 2.385 8.9 5.142 12 8.271 3.1 3.133 5.4 6.384 6.9 9.752 1.5 3.37 2.3 6.138 2.4 8.305.1.932-.15 1.664-.75 2.198s-1.4.774-2.4.72l-3.3-.178c-.9-.048-1.55-.314-1.95-.798-.4-.484-.8-1.301-1.2-2.452-.8-2.404-1.925-4.799-3.375-7.183-1.45-2.383-3.375-4.532-5.775-6.447-2.4-1.913-5.25-3.513-8.55-4.801-3.3-1.287-7.2-2.04-11.7-2.259zm70.8 34.397c3.6-6.958 10.4-10.175 20.4-9.641l5.55.295c2.2.118 3.3 1.324 3.3 3.62v2.191c0 2.296-1.1 3.383-3.3 3.261l-6.45-.357c-6-.332-10.75 1.223-14.25 4.66-3.5 3.432-5.25 8.256-5.25 14.476v48.204c0 1.037-.325 1.843-.975 2.419-.65.575-1.475.827-2.475.755l-2.4-.171c-2.2-.158-3.3-1.375-3.3-3.65v-73.71c0-1.035.3-1.872.9-2.512.6-.64 1.4-.935 2.4-.881l2.4.128c1 .053 1.825.434 2.475 1.142.65.709.975 1.581.975 2.618v7.153zm92.7 76.765c-2.2-.158-3.3-1.4-3.3-3.727v-7.455c-.9 1.418-2.075 2.816-3.525 4.194-1.45 1.377-3.225 2.572-5.325 3.585-2.1 1.011-4.6 1.808-7.5 2.391-2.9.582-6.3.733-10.2.452a30.596 30.596 0 0 1-10.275-2.548c-3.25-1.438-6.1-3.29-8.55-5.558-2.45-2.266-4.4-4.86-5.85-7.784-1.45-2.922-2.175-6.054-2.175-9.398 0-3.554.725-6.694 2.175-9.422 1.45-2.73 3.475-5.087 6.075-7.068 2.6-1.984 5.725-3.571 9.375-4.762 3.65-1.192 7.675-1.97 12.075-2.332l23.7-2.044v-5.552c0-5.711-1.625-10.245-4.875-13.599-3.25-3.349-8.425-5.217-15.525-5.608-5.6-.308-9.925.584-12.975 2.672-3.05 2.085-4.975 4.415-5.775 6.99-.4 1.236-.875 2.073-1.425 2.513-.55.44-1.275.633-2.175.58l-2.1-.121c-.9-.053-1.675-.438-2.325-1.156-.65-.718-.975-1.547-.975-2.489 0-1.465.5-3.267 1.5-5.409s2.625-4.199 4.875-6.17c2.25-1.974 5.125-3.627 8.625-4.961 3.5-1.336 7.75-1.873 12.75-1.608 5.9.312 10.775 1.415 14.625 3.31 3.85 1.897 6.875 4.255 9.075 7.074 2.2 2.82 3.725 5.898 4.575 9.23.85 3.333 1.275 6.59 1.275 9.769v52.932c0 2.332-1.1 3.418-3.3 3.261l-2.55-.182zm-28.35-9.602c3.4.238 6.625-.142 9.675-1.142a20.283 20.283 0 0 0 8.025-4.906c2.3-2.273 4.1-5.216 5.4-8.828 1.3-3.615 1.95-7.909 1.95-12.88v-5.393l-19.35 1.64c-16.6 1.371-24.9 6.396-24.9 15.088 0 2.618.575 4.908 1.725 6.871a17.27 17.27 0 0 0 4.425 5.02c1.8 1.384 3.85 2.444 6.15 3.182 2.3.738 4.6 1.188 6.9 1.348zm92.4 15.795c-6.3-.453-11.45-2.054-15.45-4.801-4-2.743-7.25-5.963-9.75-9.66v37.947c0 2.348-1.1 3.437-3.3 3.264l-2.55-.199c-2.2-.172-3.3-1.43-3.3-3.774v-106.422c0-2.344 1.1-3.457 3.3-3.34l2.55.137c2.2.117 3.3 1.35 3.3 3.698v7.525c2.5-3.491 5.75-6.332 9.75-8.522 4-2.194 9.15-3.125 15.45-2.792 5.8.308 10.725 1.671 14.775 4.094 4.05 2.427 7.325 5.516 9.825 9.268 2.5 3.756 4.325 7.963 5.475 12.62a71.36 71.36 0 0 1 2.025 14.142c.1 1.628.15 3.414.15 5.36 0 1.945-.05 3.726-.15 5.34a67.686 67.686 0 0 1-2.025 13.89c-1.15 4.513-2.975 8.492-5.475 11.936-2.5 3.44-5.775 6.12-9.825 8.04-4.05 1.918-8.975 2.667-14.775 2.25zm-25.2-50.807c-.1 1.595-.15 3.673-.15 6.235 0 2.562.05 4.647.15 6.254.1 3.209.625 6.472 1.575 9.791.95 3.32 2.425 6.33 4.425 9.03 2 2.702 4.5 4.986 7.5 6.853 3 1.868 6.6 2.95 10.8 3.244 4.4.307 8.075-.242 11.025-1.65 2.95-1.41 5.35-3.425 7.2-6.046 1.85-2.623 3.2-5.712 4.05-9.268.85-3.557 1.375-7.271 1.575-11.141.1-3.015.1-6.035 0-9.061-.2-3.896-.725-7.649-1.575-11.258-.85-3.608-2.2-6.84-4.05-9.693-1.85-2.852-4.25-5.194-7.2-7.026-2.95-1.83-6.625-2.865-11.025-3.107-4.3-.237-7.95.42-10.95 1.967-3 1.545-5.475 3.625-7.425 6.24-1.95 2.614-3.4 5.547-4.35 8.802a39.187 39.187 0 0 0-1.575 9.834zm87.15-19.96c2.7-3.658 5.95-6.584 9.75-8.776 3.8-2.196 8.95-3.123 15.45-2.779 5.1.27 9.55 1.437 13.35 3.504 3.8 2.07 6.975 4.823 9.525 8.259 2.55 3.44 4.475 7.452 5.775 12.038 1.3 4.588 1.95 9.525 1.95 14.809v46.897c0 2.422-1.1 3.554-3.3 3.396l-2.55-.182c-2.2-.158-3.3-1.445-3.3-3.862V1252.6c0-8.79-1.95-15.796-5.85-21.014-3.9-5.21-9.6-8.018-17.1-8.43-7.2-.396-12.95 1.74-17.25 6.404-4.3 4.654-6.45 11.383-6.45 20.194v45.525c0 2.393-1.1 3.511-3.3 3.354l-2.55-.183c-2.2-.157-3.3-1.43-3.3-3.819v-108.458c0-2.388 1.1-3.531 3.3-3.429l2.55.12c2.2.102 3.3 1.35 3.3 3.743v38.672zm116.85-36.809c5.8.271 11.1 1.468 15.9 3.595 4.8 2.131 8.925 5.214 12.375 9.25 3.45 4.043 6.15 9.007 8.1 14.893 1.95 5.89 3.025 12.778 3.225 20.66.2 5.072.3 9.8.3 14.186 0 4.385-.1 9.102-.3 14.15-.5 16.045-4.15 27.602-10.95 34.656l9.6 15.843.3.696c.1.232.15.63.15 1.192 0 .899-.3 1.664-.9 2.294-.6.63-1.3.916-2.1.857l-3.3-.244c-1.1-.081-2.05-.628-2.85-1.641a60.745 60.745 0 0 1-1.95-2.583l-6.6-10.73c-6 2.818-13 3.937-21 3.361-12.5-.899-22.125-5.31-28.875-13.216-6.75-7.885-10.325-19.685-10.725-35.415-.2-4.989-.3-9.64-.3-13.952 0-4.312.1-8.951.3-13.916.2-7.73 1.275-14.391 3.225-19.987 1.95-5.6 4.65-10.225 8.1-13.878 3.45-3.658 7.55-6.319 12.3-7.982 4.75-1.667 10.075-2.364 15.975-2.089zm0 10.037c-4.2-.205-8.1.3-11.7 1.515-3.6 1.212-6.75 3.25-9.45 6.113-2.7 2.859-4.825 6.576-6.375 11.152-1.55 4.573-2.425 10.067-2.625 16.482a452.06 452.06 0 0 0-.225 6.968 258.584 258.584 0 0 0 0 12.383c.05 2.163.125 4.467.225 6.911.2 6.55 1.075 12.175 2.625 16.877 1.55 4.704 3.65 8.644 6.3 11.82 2.65 3.18 5.775 5.589 9.375 7.228 3.6 1.641 7.55 2.613 11.85 2.913 4.3.3 8.25-.122 11.85-1.269 3.6-1.148 6.725-3.143 9.375-5.986 2.65-2.846 4.75-6.544 6.3-11.096 1.55-4.554 2.425-10.136 2.625-16.745.1-2.462.15-4.788.15-6.976v-12.541c0-2.132-.05-4.492-.15-7.079-.2-6.52-1.075-12.177-2.625-16.972-1.55-4.79-3.675-8.768-6.375-11.93-2.7-3.16-5.85-5.526-9.45-7.102-3.6-1.573-7.5-2.462-11.7-2.666zm73.2 103.774l51.75 3.595c2.3.16 3.45 1.556 3.45 4.19v2.577c0 2.52-1.15 3.697-3.45 3.532l-57.9-4.144c-2.2-.157-3.3-1.479-3.3-3.965v-111.197c0-2.486 1.1-3.677 3.3-3.574l2.85.134c2.2.103 3.3 1.4 3.3 3.892v104.96zM621.564 1528.86c0 1.572-.186 2.985-.558 4.238-.372 1.254-.93 2.308-1.674 3.162a6.692 6.692 0 0 1-2.736 1.891c-1.08.406-2.328.535-3.744.387a11.836 11.836 0 0 1-3.312-.825 8.917 8.917 0 0 1-2.736-1.762c-.792-.747-1.428-1.657-1.908-2.73s-.744-2.316-.792-3.729c0-.239.06-.439.18-.599.12-.16.312-.227.576-.2l.72.075c.24.025.426.124.558.297.132.173.21.38.234.622.072 1.044.294 1.95.666 2.72.372.77.852 1.418 1.44 1.944a6.525 6.525 0 0 0 1.998 1.226c.744.29 1.536.479 2.376.567 1.056.11 1.986.007 2.79-.308a4.766 4.766 0 0 0 2.016-1.487c.54-.676.948-1.506 1.224-2.49.276-.983.414-2.074.414-3.272v-15.34l-13.284-1.336c-.528-.054-.792-.372-.792-.957v-.638c0-.584.264-.85.792-.797l14.724 1.475c.552.055.828.39.828 1.002v16.864zm5.724-9.13c0-.586.264-.853.792-.8l.612.063c.528.053.792.373.792.96v11.164c0 4.561 1.788 7.029 5.364 7.402 1.728.18 3.102-.278 4.122-1.373 1.02-1.097 1.53-2.727 1.53-4.892v-11.183c0-.588.264-.855.792-.802l.612.063c.528.053.792.374.792.962v19.086c0 .588-.264.855-.792.8l-.612-.065c-.528-.055-.792-.376-.792-.964v-1.884a7.124 7.124 0 0 1-2.34 2.04c-.912.492-2.136.658-3.672.497-1.224-.128-2.286-.466-3.186-1.014a7.39 7.39 0 0 1-2.25-2.116c-.6-.863-1.044-1.856-1.332-2.98a14.472 14.472 0 0 1-.432-3.604v-11.36zm23.472 21.493c0 .589-.264.856-.792.8l-.612-.064c-.528-.055-.792-.377-.792-.966v-26.73c0-.588.264-.856.792-.803l.612.061c.528.053.792.374.792.963v26.739zm8.46-24.323c0 .268-.078.475-.234.62-.156.145-.354.205-.594.181l-1.368-.137c-.528-.054-.792-.375-.792-.964v-1.527c0-.268.072-.482.216-.642.144-.16.336-.227.576-.203l1.368.137c.24.024.438.13.594.32.156.19.234.42.234.688v1.527zm-.396 25.166c0 .59-.264.857-.792.801l-.612-.064c-.528-.055-.792-.377-.792-.967v-19.128c0-.59.264-.858.792-.804l.612.062c.528.053.792.375.792.965v19.135zm18.036 2.772c-.528-.055-.792-.379-.792-.97v-1.894c-.216.353-.498.7-.846 1.04-.348.34-.774.631-1.278.874s-1.104.428-1.8.557c-.696.129-1.512.144-2.448.046a7.126 7.126 0 0 1-2.466-.721 7.656 7.656 0 0 1-2.052-1.483 7.095 7.095 0 0 1-1.404-2.037 5.765 5.765 0 0 1-.522-2.428c0-.912.174-1.712.522-2.4a5.16 5.16 0 0 1 1.458-1.76c.624-.486 1.374-.865 2.25-1.138.876-.272 1.842-.434 2.898-.487l5.688-.302v-1.411c0-1.451-.39-2.62-1.17-3.505-.78-.886-2.022-1.415-3.726-1.588-1.344-.137-2.382.046-3.114.549-.732.502-1.194 1.08-1.386 1.73-.096.313-.21.522-.342.63-.132.107-.306.15-.522.127l-.504-.051a.815.815 0 0 1-.558-.319.994.994 0 0 1-.234-.647c0-.376.12-.833.36-1.372.24-.539.63-1.049 1.17-1.53.54-.483 1.23-.875 2.07-1.18.84-.303 1.86-.395 3.06-.273 1.416.143 2.586.477 3.51 1 .924.524 1.65 1.155 2.178 1.894.528.739.894 1.536 1.098 2.39.204.854.306 1.684.306 2.49v13.429c0 .591-.264.86-.792.804l-.612-.064zm-6.804-2.645c.816.085 1.59.011 2.322-.221a4.643 4.643 0 0 0 1.926-1.19c.552-.56.984-1.295 1.296-2.203.312-.908.468-1.994.468-3.257v-1.37l-4.644.247c-3.984.206-5.976 1.423-5.976 3.65 0 .67.138 1.261.414 1.773.276.512.63.951 1.062 1.318a4.89 4.89 0 0 0 1.476.858 6.752 6.752 0 0 0 1.656.395zm29.484 4.128c0 .594-.264.863-.792.808l-.612-.065c-.528-.055-.792-.379-.792-.972v-11.285c0-2.157-.468-3.896-1.404-5.219-.936-1.321-2.304-2.074-4.104-2.257-1.728-.175-3.108.29-4.14 1.397-1.032 1.106-1.548 2.749-1.548 4.93v11.264c0 .592-.264.86-.792.805l-.612-.064c-.528-.055-.792-.379-.792-.97v-19.212c0-.592.264-.862.792-.808l.612.062c.528.054.792.376.792.968v1.898a7.187 7.187 0 0 1 2.34-2.064c.912-.5 2.148-.67 3.708-.513 1.224.124 2.292.461 3.204 1.012a7.506 7.506 0 0 1 2.286 2.133c.612.871 1.074 1.875 1.386 3.013.312 1.138.468 2.354.468 3.649v11.49zm25.668-3.248c-.528-.055-.9-.364-1.116-.928l-6.876-15.966v21.99c0 .595-.264.865-.792.81l-.648-.068c-.552-.058-.828-.384-.828-.98v-26.565c0-.622.276-.905.828-.85l.9.09c.24.025.414.11.522.256.108.146.186.262.234.348l8.172 18.776 8.208-17.134c.048-.076.126-.177.234-.302.108-.124.282-.175.522-.15l.864.086c.552.055.828.395.828 1.019v26.654c0 .597-.276.867-.828.809l-.648-.068c-.528-.055-.792-.381-.792-.978v-22.048l-6.876 14.584c-.216.52-.588.752-1.116.697l-.792-.082zm29.556 9.918c-.528-.055-.792-.382-.792-.98v-1.919a5.47 5.47 0 0 1-.846 1.055c-.348.344-.774.64-1.278.886-.504.247-1.104.435-1.8.566-.696.131-1.512.148-2.448.05a7.054 7.054 0 0 1-2.466-.727 7.646 7.646 0 0 1-2.052-1.498 7.173 7.173 0 0 1-1.404-2.06 5.893 5.893 0 0 1-.522-2.458c0-.923.174-1.733.522-2.43a5.22 5.22 0 0 1 1.458-1.785c.624-.492 1.374-.877 2.25-1.153.876-.277 1.842-.443 2.898-.497l5.688-.313v-1.429c0-1.469-.39-2.651-1.17-3.547-.78-.895-2.022-1.43-3.726-1.602-1.344-.137-2.382.05-3.114.56-.732.509-1.194 1.094-1.386 1.753-.096.316-.21.529-.342.637-.132.11-.306.153-.522.13l-.504-.051a.811.811 0 0 1-.558-.322 1.013 1.013 0 0 1-.234-.655c0-.38.12-.843.36-1.39.24-.545.63-1.062 1.17-1.55.54-.489 1.23-.887 2.07-1.196.84-.31 1.86-.403 3.06-.281 1.416.143 2.586.48 3.51 1.008.924.529 1.65 1.167 2.178 1.914a6.91 6.91 0 0 1 1.098 2.418c.204.865.306 1.705.306 2.522v13.593c0 .599-.264.87-.792.815l-.612-.064zm-6.804-2.669a5.59 5.59 0 0 0 2.322-.227 4.642 4.642 0 0 0 1.926-1.206c.552-.568.984-1.312 1.296-2.232.312-.92.468-2.02.468-3.298v-1.387l-4.644.256c-3.984.214-5.976 1.448-5.976 3.702 0 .68.138 1.277.414 1.795.276.518.63.962 1.062 1.333.432.371.924.66 1.476.867.552.207 1.104.34 1.656.397zm18.288 11.026a1.237 1.237 0 0 1-.288.398c-.12.11-.3.153-.54.127l-.72-.076c-.192-.02-.36-.12-.504-.299a.926.926 0 0 1-.216-.595c0-.136.072-.4.216-.794l2.772-7.067-6.876-19.1c-.144-.422-.216-.702-.216-.838a.76.76 0 0 1 .216-.55.59.59 0 0 1 .504-.194l.756.077c.24.024.42.103.54.238.12.135.216.288.288.458l6.048 16.81 6.192-15.568c.072-.157.168-.29.288-.4.12-.111.3-.155.54-.13l.72.073c.192.02.36.118.504.297a.925.925 0 0 1 .216.595c0 .136-.072.402-.216.797l-10.224 25.74zm20.952-26.702c1.296.131 2.436.486 3.42 1.064a8.118 8.118 0 0 1 2.466 2.221c.66.902 1.164 1.946 1.512 3.131.348 1.186.546 2.438.594 3.757 0 .22.006.48.018.782a23.898 23.898 0 0 1 0 1.91c-.012.314-.018.566-.018.758-.048 1.31-.246 2.52-.594 3.634-.348 1.114-.852 2.054-1.512 2.82a6.043 6.043 0 0 1-2.466 1.713c-.984.376-2.124.495-3.42.36-1.296-.136-2.436-.495-3.42-1.076a8.16 8.16 0 0 1-2.466-2.225c-.66-.902-1.17-1.945-1.53-3.13a13.684 13.684 0 0 1-.576-3.747c0-.19-.006-.444-.018-.76a25.369 25.369 0 0 1 0-1.904c.012-.3.018-.558.018-.777.024-1.308.216-2.518.576-3.628.36-1.11.87-2.049 1.53-2.815a6.073 6.073 0 0 1 2.466-1.717c.984-.379 2.124-.502 3.42-.371zm5.796 10.153c-.072-2.361-.636-4.205-1.692-5.53-1.056-1.326-2.424-2.073-4.104-2.244-1.68-.17-3.048.298-4.104 1.407-1.056 1.108-1.62 2.833-1.692 5.176a26.44 26.44 0 0 0-.036 1.512c0 .601.012 1.108.036 1.52.072 2.357.636 4.198 1.692 5.524 1.056 1.327 2.424 2.077 4.104 2.253 1.68.175 3.048-.29 4.104-1.399 1.056-1.107 1.62-2.835 1.692-5.181.024-.408.036-.913.036-1.515 0-.603-.012-1.11-.036-1.523zm9.36-5.37c.864-1.804 2.496-2.584 4.896-2.34l1.332.134c.528.054.792.382.792.986v.576c0 .604-.264.879-.792.825l-1.548-.157c-1.44-.147-2.58.217-3.42 1.091-.84.874-1.26 2.133-1.26 3.778v12.745c0 .274-.078.485-.234.634a.712.712 0 0 1-.594.184l-.576-.06c-.528-.055-.792-.384-.792-.987v-19.523c0-.274.072-.493.216-.657.144-.163.336-.233.576-.208l.576.058c.24.024.438.134.594.327.156.194.234.428.234.703v1.89zm8.964 7.623c.024-1.205.174-2.384.45-3.536.276-1.152.72-2.17 1.332-3.055a6.352 6.352 0 0 1 2.358-2.067c.96-.494 2.148-.669 3.564-.525 1.488.15 2.718.591 3.69 1.322a9.333 9.333 0 0 1 2.358 2.55v-1.898c0-.275.072-.495.216-.659.144-.164.336-.234.576-.21l.576.059c.24.024.438.133.594.328.156.195.234.43.234.705v20.1c0 1.321-.12 2.547-.36 3.677s-.666 2.09-1.278 2.878c-.612.788-1.434 1.375-2.466 1.76-1.032.386-2.352.494-3.96.323-1.536-.163-2.784-.536-3.744-1.118-.96-.582-1.722-1.226-2.286-1.93-.564-.706-.948-1.412-1.152-2.12-.204-.707-.318-1.268-.342-1.683-.024-.277.048-.496.216-.656.168-.161.36-.23.576-.208l.504.053c.192.02.354.086.486.196.132.11.258.363.378.76.096.34.246.733.45 1.18.204.447.498.89.882 1.329.384.439.888.821 1.512 1.148.624.327 1.404.54 2.34.639.984.104 1.854.093 2.61-.033.756-.127 1.386-.418 1.89-.873.504-.456.888-1.096 1.152-1.921.264-.825.396-1.898.396-3.218v-2.847a6.535 6.535 0 0 1-2.358 2.085c-.972.517-2.202.697-3.69.541-1.416-.148-2.604-.568-3.564-1.259a8.6 8.6 0 0 1-2.358-2.552 11.191 11.191 0 0 1-1.332-3.33 17.855 17.855 0 0 1-.45-3.629 36.926 36.926 0 0 1 0-2.306zm13.752 1.084a14.116 14.116 0 0 0-.396-2.598 8.338 8.338 0 0 0-1.026-2.436 6.594 6.594 0 0 0-1.782-1.893c-.72-.513-1.596-.822-2.628-.927-1.056-.108-1.944.015-2.664.368a4.418 4.418 0 0 0-1.746 1.51c-.444.656-.768 1.426-.972 2.311-.204.886-.318 1.821-.342 2.807a36.95 36.95 0 0 0 0 2.307c.024.99.138 1.956.342 2.897a8.39 8.39 0 0 0 .972 2.532 5.767 5.767 0 0 0 1.746 1.85c.72.487 1.608.786 2.664.896 1.032.108 1.908-.02 2.628-.386a4.87 4.87 0 0 0 1.782-1.526 6.651 6.651 0 0 0 1.026-2.224c.216-.83.348-1.67.396-2.517.024-.41.036-.904.036-1.482 0-.577-.012-1.074-.036-1.489zm20.268 14.334c-.528-.055-.792-.386-.792-.993v-1.945c-.216.364-.498.72-.846 1.07-.348.35-.774.65-1.278.901-.504.25-1.104.443-1.8.577-.696.134-1.512.152-2.448.054a6.972 6.972 0 0 1-2.466-.734 7.636 7.636 0 0 1-2.052-1.516 7.266 7.266 0 0 1-1.404-2.088 6.043 6.043 0 0 1-.522-2.49c0-.937.174-1.759.522-2.466a5.29 5.29 0 0 1 1.458-1.812c.624-.5 1.374-.892 2.25-1.173.876-.282 1.842-.452 2.898-.509l5.688-.326v-1.448c0-1.49-.39-2.688-1.17-3.595-.78-.907-2.022-1.447-3.726-1.62-1.344-.137-2.382.054-3.114.572-.732.518-1.194 1.111-1.386 1.78-.096.32-.21.537-.342.647-.132.11-.306.155-.522.133l-.504-.052c-.216-.022-.402-.13-.558-.325a1.035 1.035 0 0 1-.234-.665c0-.385.12-.855.36-1.409s.63-1.079 1.17-1.575c.54-.496 1.23-.901 2.07-1.216.84-.314 1.86-.41 3.06-.289 1.416.143 2.586.483 3.51 1.018.924.535 1.65 1.18 2.178 1.938a7.045 7.045 0 0 1 1.098 2.45c.204.877.306 1.729.306 2.557v13.786c0 .607-.264.883-.792.827l-.612-.064zm-6.804-2.696c.816.085 1.59.007 2.322-.234a4.642 4.642 0 0 0 1.926-1.226c.552-.577.984-1.332 1.296-2.265.312-.934.468-2.049.468-3.345v-1.407l-4.644.266c-3.984.223-5.976 1.477-5.976 3.763 0 .689.138 1.296.414 1.82.276.525.63.975 1.062 1.35.432.376.924.668 1.476.877.552.21 1.104.343 1.656.4z" fill="#E10098"/>
  </g>
</svg>