<svg view-box="0 0 1000 1500" xmlns="http://www.w3.org/2000/svg" xmlns:xlink="http://www.w3.org/1999/xlink">
  <defs>
    <path id="a" d="M0 0h1000v1500H0z"/>
  </defs>
  <g fill="none" fill-rule="evenodd">
    <use fill="#FFF" xlink:href="#a"/>
    <path stroke="#E535AB" stroke-width="5" d="M2.5 2.5h995v1495H2.5z"/>
    <path d="M514.34 169.287l34.508 19.892a15.06 15.06 0 0 1 3.395-2.681c7.157-4.108 16.286-1.669 20.443 5.477 4.114 7.145 1.671 16.259-5.486 20.41a15.008 15.008 0 0 1-3.986 1.584v39.8a15.01 15.01 0 0 1 3.943 1.574c7.2 4.15 9.643 13.264 5.486 20.41-4.114 7.145-13.286 9.584-20.443 5.476a14.852 14.852 0 0 1-3.7-2.998l-34.298 19.771c.49 1.48.755 3.062.755 4.707 0 8.215-6.686 14.932-14.957 14.932s-14.957-6.674-14.957-14.932c0-1.468.211-2.886.605-4.225l-34.5-19.887a15.064 15.064 0 0 1-3.348 2.632c-7.2 4.108-16.329 1.669-20.443-5.476-4.114-7.146-1.671-16.26 5.486-20.41a15.015 15.015 0 0 1 3.943-1.575v-39.8a15.008 15.008 0 0 1-3.986-1.584c-7.157-4.107-9.6-13.264-5.486-20.41 4.115-7.145 13.286-9.584 20.443-5.476 1.28.742 2.41 1.644 3.379 2.665l34.518-19.898a14.952 14.952 0 0 1-.611-4.247c0-8.258 6.686-14.932 14.957-14.932s14.957 6.674 14.957 14.932c0 1.484-.216 2.917-.618 4.27zm-3.596 6.129c-.132.135-.266.268-.402.398l45.179 78.123c.192-.055.385-.106.579-.154v-39.85c-3.807-.944-7.237-3.369-9.343-7.026a14.89 14.89 0 0 1-1.422-11.551l-34.591-19.94zm-21.077.407c-.145-.138-.287-.28-.427-.424l-34.582 19.934a14.89 14.89 0 0 1-1.415 11.574c-2.106 3.657-5.536 6.082-9.343 7.026v39.854c.197.049.394.101.59.158l45.177-78.122zm14.512 3.54a15.026 15.026 0 0 1-4.179.588c-1.446 0-2.844-.204-4.167-.585l-45.176 78.119a15.047 15.047 0 0 1 2.629 3.335 14.963 14.963 0 0 1 1.577 3.936h90.275c.327-1.349.85-2.674 1.576-3.936a14.853 14.853 0 0 1 2.633-3.354l-45.168-78.104zm6.882 113.285l34.367-19.81c-.103-.323-.195-.65-.276-.98h-90.308c-.048.194-.1.387-.155.579l34.536 19.907A14.924 14.924 0 0 1 500 287.776c4.387 0 8.327 1.877 11.061 4.872z" fill="#E535AB" fill-rule="nonzero"/>
    <path d="M364.147 332.938c-1.196 0-2.279.153-3.248.458a6.295 6.295 0 0 0-2.511 1.472c-.705.676-1.263 1.545-1.674 2.606-.412 1.061-.645 2.335-.698 3.82-.08 2.388-.08 4.776 0 7.163.053 1.486.286 2.759.698 3.82.411 1.061.97 1.93 1.674 2.607a6.295 6.295 0 0 0 2.51 1.472c.97.305 2.053.457 3.249.457 1.17 0 2.258-.165 3.268-.497a7.003 7.003 0 0 0 2.61-1.512c.732-.677 1.31-1.545 1.735-2.606.425-1.062.637-2.308.637-3.74v-2.03h-6.935c-.584 0-.877-.305-.877-.916v-.557c0-.61.293-.915.877-.915h8.53c.61 0 .916.305.916.915v3.502c0 1.592-.239 3.044-.717 4.357-.478 1.313-1.176 2.448-2.093 3.403-.916.955-2.046 1.69-3.387 2.208-1.342.517-2.863.776-4.564.776-1.727 0-3.242-.259-4.544-.776-1.302-.517-2.398-1.24-3.288-2.169-.89-.928-1.568-2.036-2.033-3.322-.465-1.287-.724-2.713-.777-4.278a85.163 85.163 0 0 1-.08-3.78c0-1.327.027-2.587.08-3.78.053-1.566.319-2.992.797-4.278.479-1.287 1.163-2.394 2.053-3.323.89-.928 1.986-1.651 3.288-2.169 1.302-.517 2.803-.776 4.504-.776 1.833 0 3.401.279 4.703.836 1.302.557 2.365 1.22 3.189 1.99.823.77 1.434 1.578 1.833 2.427s.611 1.552.638 2.11c.026.238-.04.43-.2.576-.159.146-.371.219-.637.219h-.877c-.24 0-.412-.06-.518-.18-.107-.119-.213-.324-.32-.616a8.495 8.495 0 0 0-.896-1.81 5.998 5.998 0 0 0-1.534-1.592c-.638-.464-1.395-.842-2.272-1.134-.877-.292-1.913-.438-3.11-.438zm18.813 7.919c.956-1.83 2.763-2.746 5.42-2.746h1.475c.584 0 .877.292.877.875v.558c0 .583-.293.875-.877.875h-1.714c-1.594 0-2.856.464-3.787 1.393-.93.928-1.394 2.188-1.394 3.78v12.336c0 .265-.087.477-.26.636a.933.933 0 0 1-.657.24h-.638c-.585 0-.877-.293-.877-.876v-18.902a.93.93 0 0 1 .24-.656c.159-.173.371-.259.637-.259h.638c.266 0 .485.086.657.259.173.172.26.391.26.656v1.83zm24.631 17.946c-.584 0-.877-.292-.877-.875v-1.87a6.32 6.32 0 0 1-.936 1.114 6.085 6.085 0 0 1-1.415.994c-.558.292-1.222.538-1.993.737-.77.199-1.674.298-2.71.298a8.136 8.136 0 0 1-2.73-.458 7.53 7.53 0 0 1-2.272-1.253 6.163 6.163 0 0 1-1.555-1.87 4.877 4.877 0 0 1-.578-2.348c0-.902.193-1.711.578-2.427a6.043 6.043 0 0 1 1.614-1.89c.691-.544 1.522-.995 2.491-1.353.97-.359 2.04-.617 3.209-.776l6.297-.876v-1.393c0-1.432-.431-2.546-1.295-3.342-.864-.796-2.239-1.194-4.125-1.194-1.488 0-2.637.285-3.448.856-.81.57-1.322 1.187-1.534 1.85-.107.318-.233.537-.379.657-.146.119-.339.179-.578.179h-.558a.844.844 0 0 1-.618-.26.841.841 0 0 1-.259-.616c0-.371.133-.835.399-1.393.266-.557.697-1.1 1.295-1.631.598-.53 1.362-.988 2.292-1.373.93-.385 2.06-.577 3.388-.577 1.568 0 2.863.212 3.886.637 1.023.424 1.827.975 2.411 1.651.585.677.99 1.426 1.216 2.248.226.823.339 1.632.339 2.428v13.25c0 .584-.293.876-.877.876h-.678zm-7.533-1.91c.904 0 1.76-.152 2.571-.458a5.952 5.952 0 0 0 2.132-1.372c.612-.61 1.09-1.38 1.435-2.308.346-.929.518-2.017.518-3.263v-1.353l-5.141.716c-4.411.61-6.616 2.016-6.616 4.218 0 .663.152 1.234.458 1.711a4.03 4.03 0 0 0 1.176 1.194c.478.318 1.023.55 1.634.696a7.871 7.871 0 0 0 1.833.219zm24.552 2.308c-1.674 0-3.042-.305-4.105-.915-1.063-.61-1.926-1.353-2.59-2.229v9.431c0 .584-.293.876-.878.876h-.677c-.585 0-.877-.292-.877-.876v-26.502c0-.583.292-.875.877-.875h.677c.585 0 .877.292.877.875v1.87c.665-.901 1.528-1.65 2.59-2.248 1.064-.596 2.432-.895 4.106-.895 1.541 0 2.85.272 3.926.816 1.076.544 1.946 1.26 2.61 2.149a8.875 8.875 0 0 1 1.456 3.024 15.88 15.88 0 0 1 .538 3.442c.026.398.04.836.04 1.313 0 .478-.014.915-.04 1.313a15.88 15.88 0 0 1-.538 3.442 8.875 8.875 0 0 1-1.455 3.024c-.665.89-1.535 1.605-2.61 2.15-1.077.543-2.386.815-3.927.815zm-6.696-12.176c-.026.397-.04.915-.04 1.551 0 .637.014 1.154.04 1.552.027.796.166 1.599.419 2.408.252.809.644 1.532 1.175 2.168a6.348 6.348 0 0 0 1.993 1.572c.798.411 1.754.617 2.87.617 1.17 0 2.146-.199 2.93-.597a5.271 5.271 0 0 0 1.913-1.611 6.796 6.796 0 0 0 1.076-2.348c.226-.889.365-1.81.418-2.766.027-.743.027-1.485 0-2.228a14.103 14.103 0 0 0-.418-2.746 6.81 6.81 0 0 0-1.076-2.328 5.455 5.455 0 0 0-1.913-1.631c-.784-.411-1.76-.617-2.93-.617-1.143 0-2.112.212-2.91.637a5.995 5.995 0 0 0-1.972 1.651 7.087 7.087 0 0 0-1.156 2.248 9.414 9.414 0 0 0-.419 2.468zm23.157-6.168a8.828 8.828 0 0 1 2.59-2.268c1.01-.584 2.38-.876 4.106-.876 1.355 0 2.538.226 3.548.677a7.04 7.04 0 0 1 2.53 1.87c.678.796 1.19 1.737 1.535 2.825s.518 2.268.518 3.542v11.3c0 .584-.292.876-.877.876h-.677c-.585 0-.877-.292-.877-.875v-11.102c0-2.123-.518-3.787-1.555-4.994-1.036-1.207-2.55-1.81-4.543-1.81-1.914 0-3.441.596-4.584 1.79-1.143 1.194-1.714 2.865-1.714 5.014v11.102c0 .583-.292.875-.877.875h-.677c-.585 0-.877-.292-.877-.875v-26.502c0-.584.292-.876.877-.876h.677c.585 0 .877.292.877.876v9.43zm31.049-10.307c1.541 0 2.95.226 4.225.677a8.68 8.68 0 0 1 3.288 2.05c.917.914 1.634 2.055 2.152 3.421.518 1.367.804 2.978.857 4.835.053 1.194.08 2.308.08 3.343 0 1.034-.027 2.149-.08 3.342-.133 3.794-1.102 6.58-2.91 8.357l2.551 3.581.08.16c.027.052.04.145.04.278 0 .212-.08.398-.24.557a.765.765 0 0 1-.557.239h-.877c-.292 0-.545-.113-.757-.339a13.236 13.236 0 0 1-.518-.577l-1.754-2.427c-1.594.77-3.454 1.154-5.58 1.154-3.322 0-5.879-.889-7.673-2.666-1.793-1.777-2.743-4.55-2.85-8.317a75.446 75.446 0 0 1-.08-3.342c0-1.035.028-2.149.08-3.343.054-1.857.34-3.468.858-4.835.518-1.366 1.235-2.507 2.152-3.422a8.707 8.707 0 0 1 3.268-2.049c1.262-.451 2.677-.677 4.245-.677zm0 2.388c-1.116 0-2.152.166-3.109.497a6.543 6.543 0 0 0-2.51 1.572c-.718.716-1.283 1.632-1.695 2.746-.412 1.114-.644 2.44-.697 3.98-.027.61-.047 1.166-.06 1.67a55.904 55.904 0 0 0 0 2.965c.013.517.033 1.068.06 1.651.053 1.566.285 2.899.697 4 .412 1.1.97 2.009 1.674 2.725a6.373 6.373 0 0 0 2.491 1.572c.957.332 2.006.497 3.149.497 1.143 0 2.192-.165 3.149-.497a6.373 6.373 0 0 0 2.49-1.572c.705-.716 1.263-1.625 1.675-2.726.412-1.1.644-2.433.697-3.999.027-.583.04-1.134.04-1.651v-2.965c0-.504-.013-1.06-.04-1.67-.053-1.54-.285-2.866-.697-3.98-.412-1.114-.977-2.03-1.694-2.746a6.543 6.543 0 0 0-2.511-1.572c-.957-.331-1.993-.497-3.11-.497zm19.45 23.478h13.75c.612 0 .918.305.918.915v.597c0 .583-.306.875-.917.875h-15.385c-.585 0-.877-.292-.877-.875v-26.104c0-.584.292-.876.877-.876h.757c.585 0 .877.292.877.876v24.592zm29.933-14.883c-.08 2.202-.08 4.43 0 6.685.106 3.025.863 5.213 2.272 6.566 1.408 1.353 3.334 2.03 5.78 2.03 1.062 0 2.038-.1 2.929-.299.89-.199 1.674-.537 2.351-1.015.678-.477 1.256-1.107 1.734-1.89.478-.782.85-1.77 1.116-2.964.053-.319.16-.538.319-.657.16-.12.345-.179.558-.179h.797c.24 0 .445.073.618.219a.62.62 0 0 1 .219.577c-.053.955-.28 1.936-.678 2.944-.398 1.009-1.023 1.93-1.873 2.766-.85.836-1.94 1.525-3.268 2.07-1.329.543-2.936.815-4.823.815-1.807 0-3.361-.272-4.663-.816-1.302-.544-2.385-1.293-3.249-2.248-.863-.955-1.507-2.09-1.933-3.402-.425-1.313-.664-2.753-.717-4.318a71.986 71.986 0 0 1-.08-3.501c0-1.247.027-2.441.08-3.582.053-1.538.292-2.97.717-4.297.426-1.327 1.07-2.467 1.933-3.422.864-.956 1.947-1.705 3.249-2.249s2.856-.816 4.663-.816c1.887 0 3.494.272 4.823.816 1.328.544 2.418 1.234 3.268 2.07.85.835 1.475 1.757 1.873 2.765.399 1.008.625 1.99.678 2.945a.62.62 0 0 1-.22.577.926.926 0 0 1-.617.218h-.797a.905.905 0 0 1-.558-.179c-.16-.119-.266-.338-.32-.656-.265-1.194-.637-2.182-1.115-2.965-.478-.782-1.056-1.412-1.734-1.89-.677-.477-1.461-.816-2.351-1.015a13.436 13.436 0 0 0-2.93-.298c-2.445 0-4.37.676-5.78 2.03-1.408 1.352-2.165 3.54-2.271 6.565zm31.925-3.82c1.435 0 2.697.232 3.787.696 1.09.465 2 1.101 2.73 1.91.73.81 1.289 1.771 1.674 2.885.385 1.115.605 2.308.658 3.582 0 .212.006.464.02.756a21.497 21.497 0 0 1 0 1.85c-.014.305-.02.55-.02.736a12.496 12.496 0 0 1-.658 3.582c-.385 1.114-.943 2.075-1.674 2.885-.73.809-1.64 1.445-2.73 1.91-1.09.464-2.352.696-3.787.696-1.434 0-2.696-.232-3.786-.696-1.09-.465-2-1.101-2.73-1.91-.73-.81-1.295-1.771-1.694-2.885a11.26 11.26 0 0 1-.638-3.582c0-.185-.006-.43-.02-.736a21.497 21.497 0 0 1 0-1.85c.014-.292.02-.544.02-.756a11.26 11.26 0 0 1 .638-3.582c.399-1.114.963-2.075 1.694-2.884.73-.81 1.64-1.446 2.73-1.91 1.09-.465 2.352-.697 3.786-.697zm6.418 9.272c-.08-2.282-.705-4.013-1.874-5.193-1.169-1.18-2.683-1.77-4.543-1.77-1.86 0-3.375.59-4.544 1.77-1.17 1.18-1.794 2.911-1.874 5.193-.026.398-.04.888-.04 1.472s.014 1.074.04 1.472c.08 2.282.705 4.013 1.874 5.193 1.169 1.18 2.683 1.771 4.543 1.771 1.86 0 3.375-.59 4.544-1.77 1.17-1.181 1.794-2.912 1.874-5.194.026-.398.04-.888.04-1.472s-.014-1.074-.04-1.472zm10.402 10.943c0 .583-.292.875-.877.875h-.677c-.585 0-.877-.292-.877-.875v-26.502c0-.584.292-.876.877-.876h.677c.585 0 .877.292.877.876v26.502zm8.968 0c0 .583-.292.875-.877.875h-.677c-.585 0-.877-.292-.877-.875v-26.502c0-.584.292-.876.877-.876h.677c.585 0 .877.292.877.876v26.502zm5.46-11.063c.107-1.353.38-2.593.818-3.72.438-1.128 1.023-2.09 1.753-2.885a7.744 7.744 0 0 1 2.65-1.87c1.037-.451 2.206-.677 3.508-.677 2.79 0 4.956.909 6.497 2.726 1.541 1.817 2.312 4.33 2.312 7.54v.597c0 .266-.087.478-.26.637a.933.933 0 0 1-.657.239h-14.19v.398a8.44 8.44 0 0 0 .499 2.626 7.566 7.566 0 0 0 1.255 2.248 6.114 6.114 0 0 0 1.953 1.572c.771.398 1.635.597 2.591.597.85 0 1.594-.106 2.232-.318a7.822 7.822 0 0 0 1.634-.736 5.517 5.517 0 0 0 1.096-.856c.28-.292.472-.517.578-.676.24-.345.425-.55.558-.617.133-.067.346-.1.638-.1h.638c.239 0 .445.073.618.22a.62.62 0 0 1 .219.576c-.027.372-.233.836-.618 1.393s-.93 1.088-1.634 1.592c-.704.504-1.561.935-2.57 1.293-1.01.358-2.14.537-3.389.537-1.275 0-2.431-.219-3.467-.657a7.596 7.596 0 0 1-2.67-1.87c-.745-.809-1.336-1.777-1.774-2.905-.439-1.127-.711-2.367-.817-3.72a25.06 25.06 0 0 1-.04-1.592c0-.663.013-1.194.04-1.592zm2.432.358h12.674v-.159c0-.981-.146-1.903-.438-2.765a6.75 6.75 0 0 0-1.256-2.249 5.663 5.663 0 0 0-2.012-1.492c-.798-.358-1.688-.537-2.67-.537-1.01 0-1.9.18-2.671.537a5.758 5.758 0 0 0-1.973 1.492 6.486 6.486 0 0 0-1.236 2.249 8.93 8.93 0 0 0-.418 2.765v.16zm19.37.12a14.62 14.62 0 0 1 .499-3.462 9.078 9.078 0 0 1 1.474-3.084c.678-.915 1.548-1.658 2.61-2.228 1.064-.57 2.38-.856 3.947-.856 1.647 0 3.009.305 4.085.915 1.076.61 1.946 1.353 2.61 2.229v-1.83a.93.93 0 0 1 .24-.657c.16-.173.372-.259.638-.259h.637c.266 0 .485.086.658.259.173.172.26.391.26.656v19.38c0 1.273-.134 2.466-.4 3.58-.265 1.115-.737 2.083-1.414 2.905-.678.823-1.588 1.473-2.73 1.95-1.143.478-2.605.716-4.385.716-1.7 0-3.082-.232-4.145-.696-1.063-.464-1.907-1.008-2.531-1.631-.624-.624-1.05-1.267-1.275-1.93-.226-.664-.352-1.194-.38-1.592a.746.746 0 0 1 .24-.657.912.912 0 0 1 .638-.258h.558c.212 0 .392.046.538.139.146.093.285.325.418.696.107.319.273.683.499 1.095.225.41.55.809.976 1.193.425.385.983.703 1.674.955.69.252 1.554.378 2.59.378 1.09 0 2.053-.099 2.89-.298.837-.199 1.535-.544 2.093-1.035.558-.49.983-1.147 1.275-1.97.293-.822.439-1.87.439-3.143v-2.746c-.665.902-1.535 1.652-2.61 2.249-1.077.597-2.439.895-4.086.895-1.568 0-2.883-.285-3.946-.856-1.063-.57-1.933-1.313-2.61-2.228a9.078 9.078 0 0 1-1.475-3.084 14.62 14.62 0 0 1-.499-3.462 31.157 31.157 0 0 1 0-2.228zm15.226-.318c-.053-.823-.2-1.645-.439-2.468a6.777 6.777 0 0 0-1.136-2.248 5.995 5.995 0 0 0-1.972-1.651c-.798-.425-1.767-.637-2.91-.637-1.17 0-2.152.206-2.95.617a5.408 5.408 0 0 0-1.933 1.631 6.81 6.81 0 0 0-1.076 2.328 12.33 12.33 0 0 0-.378 2.746 31.156 31.156 0 0 0 0 2.228c.026.955.152 1.877.378 2.766a6.796 6.796 0 0 0 1.076 2.348 5.23 5.23 0 0 0 1.933 1.611c.798.398 1.78.597 2.95.597 1.143 0 2.112-.212 2.91-.637a5.995 5.995 0 0 0 1.972-1.651 6.777 6.777 0 0 0 1.136-2.248c.24-.823.386-1.645.439-2.467.026-.398.04-.876.04-1.433s-.014-1.035-.04-1.432zm7.892-.16c.106-1.353.378-2.593.817-3.72.438-1.128 1.023-2.09 1.753-2.885a7.744 7.744 0 0 1 2.65-1.87c1.037-.451 2.206-.677 3.508-.677 2.79 0 4.956.909 6.497 2.726 1.541 1.817 2.312 4.33 2.312 7.54v.597c0 .266-.087.478-.26.637a.933.933 0 0 1-.657.239h-14.19v.398a8.44 8.44 0 0 0 .499 2.626 7.566 7.566 0 0 0 1.255 2.248 6.114 6.114 0 0 0 1.954 1.572c.77.398 1.634.597 2.59.597.85 0 1.594-.106 2.232-.318a7.822 7.822 0 0 0 1.634-.736 5.517 5.517 0 0 0 1.096-.856c.28-.292.472-.517.578-.676.24-.345.425-.55.558-.617.133-.067.346-.1.638-.1h.638c.239 0 .445.073.618.22a.62.62 0 0 1 .219.576c-.027.372-.233.836-.618 1.393s-.93 1.088-1.634 1.592c-.704.504-1.561.935-2.57 1.293-1.01.358-2.14.537-3.389.537-1.275 0-2.431-.219-3.467-.657a7.596 7.596 0 0 1-2.67-1.87c-.745-.809-1.336-1.777-1.774-2.905-.439-1.127-.711-2.367-.817-3.72a25.06 25.06 0 0 1-.04-1.592c0-.663.013-1.194.04-1.592zm2.43.358h12.675v-.159c0-.981-.146-1.903-.438-2.765a6.75 6.75 0 0 0-1.256-2.249 5.663 5.663 0 0 0-2.012-1.492c-.798-.358-1.688-.537-2.67-.537-1.01 0-1.9.18-2.671.537a5.758 5.758 0 0 0-1.973 1.492 6.486 6.486 0 0 0-1.236 2.249 8.93 8.93 0 0 0-.418 2.765v.16z" fill="#E10098"/>
    <path d="M586.266 303.133c-6.627 3.917-13.856 6.94-20.817 9.425l1.118 2.968c6.526-2.33 13.592-5.166 20.19-8.805.612 1.163 3.506 5.687 11.955 6.615 8.293.911 12.16-1.486 12.16-1.486s-.89-5.976-10.526-7.106c-4.575-.536-10.047.704-12.465 1.347 4.003-2.283 7.81-4.874 11.19-7.841l.63-.557c.395.897 2.688 5.043 11.402 5.16 8.475.113 12.305-2.647 12.305-2.647s-.635-5.613-11.216-5.691c-5.077-.038-10.386 2.064-12.037 2.776 3.164-2.819 6.31-5.81 9.282-8.978.82.913 5.06 5.017 13.525 2.952 8.233-2.008 12.048-6.58 12.048-6.58s-3.4-5.965-13.663-3.396c-4.3 1.076-8.707 4.195-10.803 5.827 3.725-4.088 7.134-8.46 9.904-13.12 1.05 1.045 5.122 4.206 14.184 1.813 8.005-2.115 11.843-6.94 11.843-6.94-.129-.14-4.53-5.782-13.895-2.909-5.27 1.618-9.499 5.025-11.371 6.72 1.857-3.308 3.385-6.758 4.47-10.35 1.274.522 6.144 2.015 13.882-1.664 6.685-3.178 10.318-9.81 10.318-9.81-.128-.115-5.296-3.015-12.37.39-5.734 2.76-9.98 7.952-11.526 10.034.124-.449.24-.9.35-1.353a74.269 74.269 0 0 0 1.475-7.963c1.94-.335 6.784-1.598 12.106-6.245 6.497-5.673 7.415-15.059 7.415-15.059-.128-.07-8.699-.617-13.894 6.917-3.152 4.57-3.776 10.04-5.472 13.097.53-4.79.584-9.652.104-14.505 1.276-.336 5.244-1.843 9.401-8.133 4.755-7.193 3.425-16.434 3.425-16.434-.143-.034-8.345 1.662-11.35 10.305-1.305 3.752-1.726 8.225-1.856 11.169a65.273 65.273 0 0 0-.975-5.187 90.753 90.753 0 0 0-1.914-7.093c1.114-.461 3.587-2.133 6.489-8.19 3.725-7.774 1.107-16.856 1.107-16.856-.146-.014-7.785 2.062-9.035 11.867-.429 3.368-.197 6.828.126 9.382-1.01-2.695-2.176-5.372-3.602-8.464a69.76 69.76 0 0 0-2.098-4.132c1.157-.559 4.91-2.774 6.65-8.647 3.415-11.525-2.53-16.88-2.53-16.88-.146.006-6.312 3.846-6.785 12.935-.218 4.181.788 8.219 1.544 10.591-2.203-3.832-4.78-7.799-6.945-10.779-.22-.303-.441-.605-.664-.908.661-1.232 2.804-5.678 2.941-11.836.241-10.838-6.192-13.662-6.192-13.662-.55.608-3.016 7.222-1.99 13.293.658 3.885 2.347 7.631 3.591 10.003a192.769 192.769 0 0 0-8.896-10.819c.6-1.36 1.884-4.827 1.577-11.46-.446-9.65-6.595-13.465-6.595-13.465-1.072 1.541-2.097 7.715-1.079 13.397.636 3.552 2.208 6.609 3.575 8.73a192.244 192.244 0 0 0-2.967-3.156 48.518 48.518 0 0 0-2.758-2.641c-1.022-1.853-3.56-5.628-8.063-9.493-7.337-6.294-15.205-2.848-15.205-2.848.387 1.836 5.292 8.127 10.29 11.025 3.824 2.218 10.963 2.298 12.933 2.276a43.36 43.36 0 0 1 2.885 2.773 163.09 163.09 0 0 1 5.512 6.165c-1.95-1.57-5.258-3.672-9.665-4.447-5.691-1-10.066-.076-12.876 1.558 0 0 4.334 5.546 12.64 6.31 6.654.613 10.216-.811 11.591-1.404a191.789 191.789 0 0 1 7.73 10.042c-1.794-1.528-5.207-3.869-10.018-4.714-5.691-1.001-8.424.025-11.233 1.66 0 0 3.461 5.29 11.768 6.054 6.581.606 9.339-.823 10.594-1.435 2.865 4.1 5.309 8.13 7.456 12.972-1.718-1.995-4.847-5.033-9.204-6.863-7.082-2.975-10.72-1.554-13.765-.418.97 1.455 4.946 7.521 11.391 9.342 6.126 1.731 10.678.583 12.49.086 1.453 3.52 2.914 7.201 4.179 10.963-1.604-2.113-4.454-5.226-8.533-7.294-6.85-3.473-10.58-2.316-13.7-1.4.865 1.52 4.395 7.855 10.693 10.132 5.855 2.116 10.404 1.379 12.327 1.002 1.022 3.315 1.86 6.678 2.378 10.038.263 1.706.457 3.423.582 5.142-2.641-3.574-4.299-7.384-8.559-11.178-5.556-4.948-10.323-3.37-13.559-3.051 1.593 2.988 3.984 7.715 8.927 11.277 5.394 3.886 11.343 3.635 13.234 3.584a63.316 63.316 0 0 1-.595 13.552c-2.062-3.533-3.378-6.509-7.024-10.574-4.967-5.538-9.676-4.555-12.927-4.599 1.248 3.148 3.351 7.856 7.864 11.948 4.578 4.15 9.737 4.286 11.907 4.33a58.597 58.597 0 0 1-1.8 7.492 55.627 55.627 0 0 1-1.152 3.315c-3.106-4.994-2.883-6.415-6.344-10.935-3.941-5.15-8.92-5.008-12.156-5.312.991 3.237 2.472 7.616 6.674 12.026 4.095 4.298 8.34 4.162 11.55 4.926-1.513 3.805-3.428 7.44-5.643 10.909-1.964-4.645-1.71-7.688-3.76-11.116-3.545-5.93-7.02-6.187-10.258-6.491 2.582 7.389 1.985 7.423 4.827 11.923 2.562 4.057 5.975 4.861 8.873 6.178-2.085 3.209-4.425 6.273-6.939 9.197-1.037-4.857.13-6.556-1.236-10.33-2.352-6.496-5.715-7.408-8.835-8.32.358 4.36-.183 7.126 2.264 11.852 1.618 3.127 4.86 5.224 7.47 7.188-3.156 3.63-6.577 7.041-10.108 10.236.672-1.285 2.263-5.025 2.054-11.274-.283-8.429-6.387-9.307-6.387-9.307s-2.702 5.21-1.805 11.248c1.115 7.5 4.77 9.41 5.655 9.768-.378.339-.757.675-1.137 1.01-2.75 2.417-5.752 4.58-8.909 6.53.803-1.738 2.081-5.184 2.16-9.662.174-10.018-5.72-10.179-5.72-10.179s-2.704 5.275-2.112 11.352c.566 5.816 3.091 8.375 4.333 9.297zm-173.999-.813c-3.154-1.948-6.154-4.11-8.902-6.525-.38-.334-.76-.671-1.137-1.01.886-.358 4.54-2.27 5.654-9.768.897-6.038-1.805-11.248-1.805-11.248s-6.103.878-6.386 9.307c-.21 6.247 1.38 9.985 2.052 11.272-3.531-3.196-6.954-6.607-10.11-10.239 2.608-1.963 5.846-4.059 7.463-7.183 2.447-4.726 1.905-7.492 2.264-11.853-3.12.913-6.483 1.825-8.835 8.32-1.366 3.772-.2 5.472-1.234 10.32-2.51-2.92-4.847-5.98-6.93-9.186 2.899-1.316 6.312-2.12 8.874-6.178 2.842-4.5 2.245-4.534 4.827-11.923-3.237.304-6.713.56-10.258 6.49-2.05 3.43-1.796 6.472-3.76 11.118-2.216-3.47-4.13-7.105-5.645-10.91 3.21-.764 7.455-.629 11.55-4.926 4.202-4.41 5.683-8.79 6.674-12.026-3.237.304-8.215.163-12.156 5.312-3.46 4.52-3.238 5.941-6.343 10.935a55.59 55.59 0 0 1-1.151-3.315 58.578 58.578 0 0 1-1.801-7.493c2.167-.042 7.33-.176 11.912-4.33 4.513-4.091 6.616-8.8 7.864-11.947-3.25.044-7.96-.939-12.926 4.599-3.65 4.068-4.964 7.045-7.029 10.582a63.3 63.3 0 0 1-.596-13.56c1.905.052 7.839.294 13.22-3.584 4.943-3.562 7.335-8.289 8.928-11.277-3.236-.32-8.003-1.897-13.56 3.051-4.252 3.787-5.911 7.59-8.544 11.16.125-1.714.319-3.424.58-5.124.519-3.36 1.357-6.722 2.379-10.036 1.927.377 6.472 1.11 12.317-1.004 6.298-2.277 9.829-8.612 10.694-10.133-3.12-.915-6.85-2.072-13.7 1.401-4.065 2.061-6.91 5.16-8.517 7.273 1.263-3.755 2.721-7.429 4.172-10.944 1.81.497 6.364 1.649 12.495-.084 6.445-1.82 10.42-7.887 11.392-9.342-3.046-1.136-6.684-2.557-13.766.418-4.366 1.834-7.5 4.88-9.215 6.876 2.148-4.846 4.592-8.878 7.458-12.98 1.26.614 4.02 2.034 10.585 1.43 8.307-.764 11.768-6.054 11.768-6.054-2.81-1.635-5.542-2.661-11.234-1.66-4.78.84-8.18 3.156-9.984 4.686 2.45-3.404 5.026-6.761 7.711-10.015 1.372.591 4.935 2.019 11.595 1.406 8.306-.765 12.64-6.31 12.64-6.31-2.81-1.635-7.185-2.56-12.876-1.559-4.42.777-7.733 2.89-9.681 4.46a163.112 163.112 0 0 1 5.523-6.177 43.362 43.362 0 0 1 2.885-2.774c1.963.022 9.111-.056 12.939-2.276 4.998-2.898 9.902-9.189 10.289-11.025 0 0-7.868-3.446-15.204 2.848-4.484 3.848-7.02 7.606-8.05 9.468-.97.86-1.907 1.75-2.786 2.666a192.22 192.22 0 0 0-2.947 3.135c1.364-2.121 2.927-5.17 3.561-8.709 1.016-5.681-.008-11.855-1.08-13.396 0 0-6.148 3.816-6.594 13.466-.307 6.623.974 10.09 1.575 11.454a192.752 192.752 0 0 0-8.913 10.84c1.245-2.37 2.94-6.126 3.6-10.02 1.026-6.071-1.44-12.685-1.99-13.293 0 0-6.433 2.824-6.192 13.662.137 6.163 2.283 10.612 2.943 11.839-.222.302-.443.603-.662.905-2.156 2.968-4.72 6.914-6.917 10.732.754-2.379 1.745-6.39 1.529-10.544-.474-9.09-6.64-12.929-6.786-12.934 0 0-5.945 5.354-2.53 16.88 1.734 5.856 5.473 8.075 6.64 8.641a69.783 69.783 0 0 0-2.1 4.137c-1.419 3.076-2.58 5.742-3.587 8.423.32-2.55.547-5.991.12-9.341-1.249-9.805-8.888-11.881-9.033-11.867 0 0-2.62 9.082 1.106 16.857 2.894 6.04 5.362 7.719 6.48 8.185a90.742 90.742 0 0 0-1.915 7.097 65.26 65.26 0 0 0-.966 5.123c-.133-2.944-.558-7.38-1.853-11.105-3.005-8.643-11.207-10.34-11.35-10.305 0 0-1.33 9.24 3.425 16.434 4.145 6.271 8.101 7.787 9.39 8.13a69.53 69.53 0 0 0 .104 14.508c-1.697-3.057-2.32-8.526-5.473-13.097-5.196-7.533-13.766-6.987-13.894-6.916 0 0 .917 9.386 7.414 15.059 5.323 4.647 10.167 5.91 12.107 6.244a74.279 74.279 0 0 0 1.475 7.963c.108.447.223.892.345 1.336-1.556-2.093-5.794-7.264-11.513-10.017-7.073-3.406-12.24-.505-12.369-.391 0 0 3.634 6.632 10.318 9.81 7.72 3.67 12.587 2.193 13.873 1.667 1.084 3.587 2.608 7.03 4.462 10.333-1.881-1.7-6.1-5.092-11.355-6.705-9.364-2.873-13.766 2.769-13.895 2.91 0 0 3.838 4.824 11.843 6.939 9.047 2.39 13.12-.757 14.179-1.808 2.76 4.641 6.153 8.997 9.861 13.071-2.117-1.643-6.484-4.716-10.747-5.783-10.263-2.57-13.663 3.396-13.663 3.396s3.815 4.572 12.048 6.58c8.439 2.058 12.679-2.013 13.517-2.943 2.97 3.164 6.114 6.154 9.276 8.97-1.647-.71-6.96-2.815-12.041-2.777-10.581.078-11.216 5.691-11.216 5.691s3.83 2.76 12.304 2.647c8.72-.117 11.01-4.267 11.403-5.16l.632.557c3.376 2.963 7.178 5.551 11.176 7.833-2.434-.646-7.879-1.873-12.434-1.339-9.638 1.13-10.526 7.106-10.526 7.106s3.866 2.397 12.159 1.486c8.432-.926 11.332-5.434 11.95-6.608 6.596 3.636 13.657 6.469 20.179 8.798l1.125-2.97c-6.96-2.485-14.19-5.507-20.818-9.424 1.243-.924 3.766-3.484 4.332-9.296.591-6.077-2.113-11.352-2.113-11.352s-5.894.161-5.719 10.18c.078 4.473 1.354 7.918 2.157 9.656z" fill="#E535AB" fill-rule="nonzero"/>
    <path d="M621.564 1331.82c0 1.416-.186 2.706-.558 3.87-.372 1.164-.93 2.166-1.674 3.006a7.678 7.678 0 0 1-2.736 1.962c-1.08.468-2.328.702-3.744.702-1.176 0-2.28-.144-3.312-.432a8.075 8.075 0 0 1-2.736-1.332 6.692 6.692 0 0 1-1.908-2.286c-.48-.924-.744-2.022-.792-3.294 0-.216.06-.402.18-.558.12-.156.312-.234.576-.234h.72c.24 0 .426.072.558.216.132.144.21.324.234.54.072.936.294 1.734.666 2.394.372.66.852 1.2 1.44 1.62.588.42 1.254.726 1.998.918a9.478 9.478 0 0 0 2.376.288c1.056 0 1.986-.18 2.79-.54a5.431 5.431 0 0 0 2.016-1.53c.54-.66.948-1.446 1.224-2.358.276-.912.414-1.908.414-2.988v-13.824h-13.284c-.528 0-.792-.264-.792-.792v-.576c0-.528.264-.792.792-.792h14.724c.552 0 .828.276.828.828v15.192zm5.724-8.748c0-.528.264-.792.792-.792h.612c.528 0 .792.264.792.792v10.044c0 4.104 1.788 6.156 5.364 6.156 1.728 0 3.102-.54 4.122-1.62s1.53-2.592 1.53-4.536v-10.044c0-.528.264-.792.792-.792h.612c.528 0 .792.264.792.792v17.136c0 .528-.264.792-.792.792h-.612c-.528 0-.792-.264-.792-.792v-1.692a7.978 7.978 0 0 1-2.34 2.052c-.912.528-2.136.792-3.672.792-1.224 0-2.286-.204-3.186-.612a6.228 6.228 0 0 1-2.25-1.692c-.6-.72-1.044-1.572-1.332-2.556-.288-.984-.432-2.052-.432-3.204v-10.224zm23.472 17.136c0 .528-.264.792-.792.792h-.612c-.528 0-.792-.264-.792-.792v-23.976c0-.528.264-.792.792-.792h.612c.528 0 .792.264.792.792v23.976zm8.46-22.572c0 .24-.078.432-.234.576a.842.842 0 0 1-.594.216h-1.368c-.528 0-.792-.264-.792-.792v-1.368c0-.24.072-.438.216-.594a.746.746 0 0 1 .576-.234h1.368c.24 0 .438.078.594.234a.805.805 0 0 1 .234.594v1.368zm-.396 22.572c0 .528-.264.792-.792.792h-.612c-.528 0-.792-.264-.792-.792v-17.136c0-.528.264-.792.792-.792h.612c.528 0 .792.264.792.792v17.136zm18.036.792c-.528 0-.792-.264-.792-.792v-1.692a5.715 5.715 0 0 1-.846 1.008 5.496 5.496 0 0 1-1.278.9 8.442 8.442 0 0 1-1.8.666c-.696.18-1.512.27-2.448.27a7.338 7.338 0 0 1-2.466-.414 6.798 6.798 0 0 1-2.052-1.134 5.573 5.573 0 0 1-1.404-1.692 4.418 4.418 0 0 1-.522-2.124c0-.816.174-1.548.522-2.196a5.465 5.465 0 0 1 1.458-1.71c.624-.492 1.374-.9 2.25-1.224a13.663 13.663 0 0 1 2.898-.702l5.688-.792v-1.26c0-1.296-.39-2.304-1.17-3.024-.78-.72-2.022-1.08-3.726-1.08-1.344 0-2.382.258-3.114.774-.732.516-1.194 1.074-1.386 1.674-.096.288-.21.486-.342.594-.132.108-.306.162-.522.162h-.504a.762.762 0 0 1-.558-.234.762.762 0 0 1-.234-.558c0-.336.12-.756.36-1.26s.63-.996 1.17-1.476c.54-.48 1.23-.894 2.07-1.242.84-.348 1.86-.522 3.06-.522 1.416 0 2.586.192 3.51.576.924.384 1.65.882 2.178 1.494s.894 1.29 1.098 2.034a8.28 8.28 0 0 1 .306 2.196v11.988c0 .528-.264.792-.792.792h-.612zm-6.804-1.728c.816 0 1.59-.138 2.322-.414a5.375 5.375 0 0 0 1.926-1.242c.552-.552.984-1.248 1.296-2.088.312-.84.468-1.824.468-2.952v-1.224l-4.644.648c-3.984.552-5.976 1.824-5.976 3.816 0 .6.138 1.116.414 1.548.276.432.63.792 1.062 1.08.432.288.924.498 1.476.63a7.098 7.098 0 0 0 1.656.198zm29.484.936c0 .528-.264.792-.792.792h-.612c-.528 0-.792-.264-.792-.792v-10.044c0-1.92-.468-3.426-1.404-4.518-.936-1.092-2.304-1.638-4.104-1.638-1.728 0-3.108.54-4.14 1.62-1.032 1.08-1.548 2.592-1.548 4.536v10.044c0 .528-.264.792-.792.792h-.612c-.528 0-.792-.264-.792-.792v-17.136c0-.528.264-.792.792-.792h.612c.528 0 .792.264.792.792v1.692a7.978 7.978 0 0 1 2.34-2.052c.912-.528 2.148-.792 3.708-.792 1.224 0 2.292.204 3.204.612a6.36 6.36 0 0 1 2.286 1.692c.612.72 1.074 1.572 1.386 2.556.312.984.468 2.052.468 3.204v10.224zm25.668-5.256c-.528 0-.9-.24-1.116-.72l-6.876-13.536v19.512c0 .528-.264.792-.792.792h-.648c-.552 0-.828-.264-.828-.792v-23.58c0-.552.276-.828.828-.828h.9c.24 0 .414.06.522.18.108.12.186.216.234.288l8.172 15.912 8.208-15.912c.048-.072.126-.168.234-.288.108-.12.282-.18.522-.18h.864c.552 0 .828.276.828.828v23.58c0 .528-.276.792-.828.792h-.648c-.528 0-.792-.264-.792-.792v-19.512l-6.876 13.536c-.216.48-.588.72-1.116.72h-.792zm29.556 6.048c-.528 0-.792-.264-.792-.792v-1.692a5.715 5.715 0 0 1-.846 1.008 5.496 5.496 0 0 1-1.278.9 8.442 8.442 0 0 1-1.8.666c-.696.18-1.512.27-2.448.27a7.338 7.338 0 0 1-2.466-.414 6.798 6.798 0 0 1-2.052-1.134 5.573 5.573 0 0 1-1.404-1.692 4.418 4.418 0 0 1-.522-2.124c0-.816.174-1.548.522-2.196a5.465 5.465 0 0 1 1.458-1.71c.624-.492 1.374-.9 2.25-1.224a13.663 13.663 0 0 1 2.898-.702l5.688-.792v-1.26c0-1.296-.39-2.304-1.17-3.024-.78-.72-2.022-1.08-3.726-1.08-1.344 0-2.382.258-3.114.774-.732.516-1.194 1.074-1.386 1.674-.096.288-.21.486-.342.594-.132.108-.306.162-.522.162h-.504a.762.762 0 0 1-.558-.234.762.762 0 0 1-.234-.558c0-.336.12-.756.36-1.26s.63-.996 1.17-1.476c.54-.48 1.23-.894 2.07-1.242.84-.348 1.86-.522 3.06-.522 1.416 0 2.586.192 3.51.576.924.384 1.65.882 2.178 1.494s.894 1.29 1.098 2.034a8.28 8.28 0 0 1 .306 2.196v11.988c0 .528-.264.792-.792.792h-.612zm-6.804-1.728c.816 0 1.59-.138 2.322-.414a5.375 5.375 0 0 0 1.926-1.242c.552-.552.984-1.248 1.296-2.088.312-.84.468-1.824.468-2.952v-1.224l-4.644.648c-3.984.552-5.976 1.824-5.976 3.816 0 .6.138 1.116.414 1.548.276.432.63.792 1.062 1.08.432.288.924.498 1.476.63a7.098 7.098 0 0 0 1.656.198zm18.288 8.028c-.072.144-.168.27-.288.378-.12.108-.3.162-.54.162h-.72a.69.69 0 0 1-.504-.216.69.69 0 0 1-.216-.504c0-.12.072-.36.216-.72l2.772-6.48-6.876-16.2c-.144-.36-.216-.6-.216-.72a.69.69 0 0 1 .216-.504.69.69 0 0 1 .504-.216h.756c.24 0 .42.054.54.162.12.108.216.234.288.378l6.048 14.256 6.192-14.256c.072-.144.168-.27.288-.378.12-.108.3-.162.54-.162h.72a.69.69 0 0 1 .504.216.69.69 0 0 1 .216.504c0 .12-.072.36-.216.72l-10.224 23.58zm20.952-25.38c1.296 0 2.436.21 3.42.63.984.42 1.806.996 2.466 1.728.66.732 1.164 1.602 1.512 2.61.348 1.008.546 2.088.594 3.24 0 .192.006.42.018.684a18.257 18.257 0 0 1 0 1.674c-.012.276-.018.498-.018.666a11.321 11.321 0 0 1-.594 3.24c-.348 1.008-.852 1.878-1.512 2.61s-1.482 1.308-2.466 1.728c-.984.42-2.124.63-3.42.63-1.296 0-2.436-.21-3.42-.63-.984-.42-1.806-.996-2.466-1.728-.66-.732-1.17-1.602-1.53-2.61a10.202 10.202 0 0 1-.576-3.24c0-.168-.006-.39-.018-.666a19.48 19.48 0 0 1 0-1.674c.012-.264.018-.492.018-.684.024-1.152.216-2.232.576-3.24s.87-1.878 1.53-2.61 1.482-1.308 2.466-1.728c.984-.42 2.124-.63 3.42-.63zm5.796 8.388c-.072-2.064-.636-3.63-1.692-4.698-1.056-1.068-2.424-1.602-4.104-1.602-1.68 0-3.048.534-4.104 1.602s-1.62 2.634-1.692 4.698c-.024.36-.036.804-.036 1.332s.012.972.036 1.332c.072 2.064.636 3.63 1.692 4.698 1.056 1.068 2.424 1.602 4.104 1.602 1.68 0 3.048-.534 4.104-1.602s1.62-2.634 1.692-4.698c.024-.36.036-.804.036-1.332s-.012-.972-.036-1.332zm9.36-5.544c.864-1.656 2.496-2.484 4.896-2.484h1.332c.528 0 .792.264.792.792v.504c0 .528-.264.792-.792.792h-1.548c-1.44 0-2.58.42-3.42 1.26-.84.84-1.26 1.98-1.26 3.42v11.16c0 .24-.078.432-.234.576a.842.842 0 0 1-.594.216h-.576c-.528 0-.792-.264-.792-.792v-17.1c0-.24.072-.438.216-.594a.746.746 0 0 1 .576-.234h.576c.24 0 .438.078.594.234a.805.805 0 0 1 .234.594v1.656zm8.964 5.868c.024-1.056.174-2.1.45-3.132a8.219 8.219 0 0 1 1.332-2.79 7.01 7.01 0 0 1 2.358-2.016c.96-.516 2.148-.774 3.564-.774 1.488 0 2.718.276 3.69.828.972.552 1.758 1.224 2.358 2.016v-1.656c0-.24.072-.438.216-.594a.746.746 0 0 1 .576-.234h.576c.24 0 .438.078.594.234a.805.805 0 0 1 .234.594v17.532c0 1.152-.12 2.232-.36 3.24s-.666 1.884-1.278 2.628c-.612.744-1.434 1.332-2.466 1.764-1.032.432-2.352.648-3.96.648-1.536 0-2.784-.21-3.744-.63-.96-.42-1.722-.912-2.286-1.476-.564-.564-.948-1.146-1.152-1.746-.204-.6-.318-1.08-.342-1.44a.676.676 0 0 1 .216-.594.823.823 0 0 1 .576-.234h.504c.192 0 .354.042.486.126.132.084.258.294.378.63.096.288.246.618.45.99.204.372.498.732.882 1.08.384.348.888.636 1.512.864.624.228 1.404.342 2.34.342.984 0 1.854-.09 2.61-.27.756-.18 1.386-.492 1.89-.936.504-.444.888-1.038 1.152-1.782.264-.744.396-1.692.396-2.844v-2.484c-.6.816-1.386 1.494-2.358 2.034-.972.54-2.202.81-3.69.81-1.416 0-2.604-.258-3.564-.774a7.01 7.01 0 0 1-2.358-2.016 8.219 8.219 0 0 1-1.332-2.79 13.246 13.246 0 0 1-.45-3.132 28.233 28.233 0 0 1 0-2.016zm13.752-.288a10.385 10.385 0 0 0-.396-2.232 6.135 6.135 0 0 0-1.026-2.034 5.417 5.417 0 0 0-1.782-1.494c-.72-.384-1.596-.576-2.628-.576-1.056 0-1.944.186-2.664.558a4.886 4.886 0 0 0-1.746 1.476 6.166 6.166 0 0 0-.972 2.106c-.204.792-.318 1.62-.342 2.484a28.233 28.233 0 0 0 0 2.016c.024.864.138 1.698.342 2.502.204.804.528 1.512.972 2.124a4.725 4.725 0 0 0 1.746 1.458c.72.36 1.608.54 2.664.54 1.032 0 1.908-.192 2.628-.576a5.417 5.417 0 0 0 1.782-1.494c.468-.612.81-1.29 1.026-2.034.216-.744.348-1.488.396-2.232.024-.36.036-.792.036-1.296s-.012-.936-.036-1.296zM845.34 1341c-.528 0-.792-.264-.792-.792v-1.692a5.715 5.715 0 0 1-.846 1.008 5.496 5.496 0 0 1-1.278.9 8.442 8.442 0 0 1-1.8.666c-.696.18-1.512.27-2.448.27a7.338 7.338 0 0 1-2.466-.414 6.798 6.798 0 0 1-2.052-1.134 5.573 5.573 0 0 1-1.404-1.692 4.418 4.418 0 0 1-.522-2.124c0-.816.174-1.548.522-2.196a5.465 5.465 0 0 1 1.458-1.71c.624-.492 1.374-.9 2.25-1.224a13.663 13.663 0 0 1 2.898-.702l5.688-.792v-1.26c0-1.296-.39-2.304-1.17-3.024-.78-.72-2.022-1.08-3.726-1.08-1.344 0-2.382.258-3.114.774-.732.516-1.194 1.074-1.386 1.674-.096.288-.21.486-.342.594-.132.108-.306.162-.522.162h-.504a.762.762 0 0 1-.558-.234.762.762 0 0 1-.234-.558c0-.336.12-.756.36-1.26s.63-.996 1.17-1.476c.54-.48 1.23-.894 2.07-1.242.84-.348 1.86-.522 3.06-.522 1.416 0 2.586.192 3.51.576.924.384 1.65.882 2.178 1.494s.894 1.29 1.098 2.034a8.28 8.28 0 0 1 .306 2.196v11.988c0 .528-.264.792-.792.792h-.612zm-6.804-1.728c.816 0 1.59-.138 2.322-.414a5.375 5.375 0 0 0 1.926-1.242c.552-.552.984-1.248 1.296-2.088.312-.84.468-1.824.468-2.952v-1.224l-4.644.648c-3.984.552-5.976 1.824-5.976 3.816 0 .6.138 1.116.414 1.548.276.432.63.792 1.062 1.08.432.288.924.498 1.476.63a7.098 7.098 0 0 0 1.656.198z" fill="#E10098"/>
    <text font-family="Rubik-Light, Rubik" font-size="152" font-weight="300" fill="#E10098">
      <tspan x="201.928" y="712">GraphQL</tspan> <tspan x="189.768" y="892">Webapps</tspan>
    </text>
  </g>
</svg>