<svg viewBox="0 0 1000 1500" version="1.1" xmlns="http://www.w3.org/2000/svg" xmlns:xlink="http://www.w3.org/1999/xlink">
    <defs>
        <rect id="path-1" x="0" y="0" width="1000" height="1500"></rect>
    </defs>
    <g id="GraphQL-College" stroke="none" stroke-width="1" fill="none" fill-rule="evenodd">
        <g id="graphql-webapps-copy-4">
            <g id="Rectangle">
                <use fill="#FFFFFF" fill-rule="evenodd" xlink:href="#path-1"></use>
                <rect stroke="#E535AB" stroke-width="5" x="2.5" y="2.5" width="995" height="1495"></rect>
            </g>
            <path d="M514.339111,169.287183 L548.848476,189.179389 C549.820197,188.151771 550.955234,187.244438 552.242857,186.497752 C559.4,182.39015 568.528571,184.829039 572.685714,191.974554 C576.8,199.12007 574.357143,208.233811 567.2,212.3842 C565.922218,213.11754 564.580233,213.642218 563.214286,213.968705 L563.214286,253.768673 C564.565445,254.095848 565.892727,254.617198 567.157143,255.342867 C574.357143,259.493256 576.8,268.606997 572.642857,275.752512 C568.528571,282.898028 559.357143,285.336916 552.2,281.229315 C550.775088,280.411534 549.537035,279.393632 548.500382,278.231319 L514.201512,298.002189 C514.691827,299.481349 514.957143,301.063586 514.957143,302.708648 C514.957143,310.923851 508.271429,317.641492 500,317.641492 C491.728571,317.641492 485.042857,310.966639 485.042857,302.708648 C485.042857,301.240769 485.254099,299.822911 485.647939,298.48367 L451.147759,278.596758 C450.186413,279.604199 449.067085,280.494539 447.8,281.229315 C440.6,285.336916 431.471429,282.898028 427.357143,275.752512 C423.242857,268.606997 425.685714,259.493256 432.842857,255.342867 C434.108305,254.616606 435.435382,254.094997 436.785714,253.767872 L436.785714,213.968705 C435.419767,213.642218 434.077782,213.11754 432.8,212.3842 C425.642857,208.276598 423.2,199.12007 427.314286,191.974554 C431.428571,184.829039 440.6,182.39015 447.757143,186.497752 C449.037763,187.240377 450.167452,188.141906 451.135654,189.162631 L485.654328,169.265059 C485.256384,167.919449 485.042857,166.494214 485.042857,165.018418 C485.042857,156.760428 491.728571,150.085575 500,150.085575 C508.271429,150.085575 514.957143,156.760428 514.957143,165.018418 C514.957143,166.502305 514.741269,167.935074 514.339111,169.287183 L514.339111,169.287183 Z M510.743622,175.416041 C510.612269,175.55131 510.478369,175.684099 510.341999,175.814332 L555.521008,253.937251 C555.712954,253.882061 555.905993,253.830677 556.1,253.783131 L556.1,213.933366 C552.293064,212.988608 548.862796,210.564405 546.757143,206.907398 C544.658332,203.262273 544.265888,199.104957 545.33517,195.35562 L510.743622,175.416041 L510.743622,175.416041 Z M489.667465,175.823362 C489.52224,175.684914 489.37981,175.543571 489.240266,175.399423 L454.65847,195.333381 C455.735658,199.088512 455.345818,203.255065 453.242857,206.907398 C451.137204,210.564405 447.706936,212.988608 443.9,213.933366 L443.9,253.786974 C444.097445,253.835658 444.293895,253.888332 444.489219,253.944961 L489.667465,175.823362 L489.667465,175.823362 Z M504.179178,179.362498 C502.853274,179.745844 501.451037,179.951262 500,179.951262 C498.553553,179.951262 497.155598,179.747142 495.833408,179.366131 L450.656801,257.484894 C451.662625,258.442988 452.55167,259.557956 453.285714,260.819669 C454.013157,262.083061 454.535615,263.407982 454.863272,264.756121 L545.13753,264.756121 C545.465238,263.407157 545.987436,262.082031 546.714286,260.819669 C547.44544,259.549832 548.336305,258.428636 549.347193,257.466406 L504.179178,179.362498 L504.179178,179.362498 Z M511.061285,292.648432 L545.428261,272.838302 C545.325159,272.515023 545.233022,272.188333 545.152012,271.858848 L454.844139,271.858848 C454.796251,272.052431 454.74451,272.245056 454.688948,272.436599 L489.224533,292.34392 C491.943758,289.526487 495.763928,287.775805 500,287.775805 C504.386674,287.775805 508.327347,289.653181 511.061285,292.648432 L511.061285,292.648432 Z" id="Combined-Shape" fill="#E535AB" fill-rule="nonzero"></path>
            <path d="M364.146929,332.938029 C362.951208,332.938029 361.868433,333.090565 360.898571,333.395641 C359.928709,333.700718 359.091718,334.191486 358.387571,334.86796 C357.683425,335.544434 357.125431,336.413226 356.713571,337.474361 C356.301712,338.535497 356.069215,339.808841 356.016071,341.294431 C355.936357,343.681986 355.936357,346.069506 356.016071,348.457061 C356.069215,349.942651 356.301712,351.215995 356.713571,352.277131 C357.125431,353.338267 357.683425,354.207058 358.387571,354.883532 C359.091718,355.560006 359.928709,356.050774 360.898571,356.355851 C361.868433,356.660927 362.951208,356.813463 364.146929,356.813463 C365.316077,356.813463 366.405495,356.647663 367.415214,356.316059 C368.424934,355.984454 369.295139,355.480422 370.025857,354.803948 C370.756575,354.127474 371.334498,353.258682 371.759643,352.197546 C372.184788,351.13641 372.397357,349.889595 372.397357,348.457061 L372.397357,346.427649 L365.462214,346.427649 C364.87764,346.427649 364.585357,346.122577 364.585357,345.512424 L364.585357,344.955331 C364.585357,344.345178 364.87764,344.040106 365.462214,344.040106 L373.991643,344.040106 C374.602789,344.040106 374.908357,344.345178 374.908357,344.955331 L374.908357,348.457061 C374.908357,350.048765 374.669217,351.501173 374.190929,352.814328 C373.71264,354.127484 373.015147,355.261555 372.098429,356.216578 C371.18171,357.1716 370.052435,357.907752 368.710571,358.425055 C367.368708,358.942359 365.847509,359.201007 364.146929,359.201007 C362.419777,359.201007 360.905221,358.942359 359.603214,358.425055 C358.301208,357.907752 357.205147,357.184864 356.315,356.25637 C355.424853,355.327876 354.747288,354.220332 354.282286,352.933705 C353.817283,351.647078 353.558215,350.221199 353.505071,348.656023 C353.451928,347.462246 353.425357,346.202166 353.425357,344.875746 C353.425357,343.549327 353.451928,342.289247 353.505071,341.095469 C353.558215,339.530294 353.823926,338.104414 354.302214,336.817787 C354.780502,335.53116 355.46471,334.423616 356.354857,333.495122 C357.245004,332.566629 358.341065,331.843741 359.643071,331.326437 C360.945078,330.809133 362.446349,330.550485 364.146929,330.550485 C365.980366,330.550485 367.548065,330.829029 368.850071,331.386126 C370.152078,331.943222 371.214924,332.606422 372.038643,333.375745 C372.862361,334.145069 373.473498,334.954172 373.872071,335.803081 C374.270645,336.65199 374.483214,337.354982 374.509786,337.912078 C374.536357,338.150833 374.469929,338.343161 374.3105,338.489067 C374.151071,338.634974 373.938501,338.707926 373.672786,338.707926 L372.795929,338.707926 C372.556785,338.707926 372.384072,338.648238 372.277786,338.52886 C372.171499,338.409482 372.065215,338.20389 371.958929,337.912078 C371.746356,337.301925 371.44743,336.698413 371.062143,336.101524 C370.676855,335.504635 370.16536,334.974075 369.527643,334.509828 C368.889925,334.045581 368.132647,333.667558 367.255786,333.375745 C366.378924,333.083933 365.342649,332.938029 364.146929,332.938029 Z M382.9595,340.856715 C383.916076,339.026256 385.722915,338.11104 388.380071,338.11104 L389.854786,338.11104 C390.43936,338.11104 390.731643,338.402848 390.731643,338.986472 L390.731643,339.543566 C390.731643,340.12719 390.43936,340.418998 389.854786,340.418998 L388.140929,340.418998 C386.546635,340.418998 385.284505,340.883238 384.3545,341.811732 C383.424495,342.740226 382.9595,344.000306 382.9595,345.592009 L382.9595,357.92765 C382.9595,358.192934 382.873144,358.405158 382.700429,358.564329 C382.527713,358.723499 382.308501,358.803083 382.042786,358.803083 L381.405071,358.803083 C380.820497,358.803083 380.528214,358.511275 380.528214,357.92765 L380.528214,339.026265 C380.528214,338.760981 380.607928,338.542125 380.767357,338.36969 C380.926787,338.197256 381.139356,338.11104 381.405071,338.11104 L382.042786,338.11104 C382.308501,338.11104 382.527713,338.197256 382.700429,338.36969 C382.873144,338.542125 382.9595,338.760981 382.9595,339.026265 L382.9595,340.856715 Z M407.591214,358.803083 C407.00664,358.803083 406.714357,358.511275 406.714357,357.92765 L406.714357,356.057408 C406.475213,356.428806 406.163002,356.800197 405.777714,357.171595 C405.392427,357.542992 404.920789,357.874592 404.362786,358.166405 C403.804783,358.458217 403.140504,358.703601 402.369929,358.902564 C401.599353,359.101527 400.695934,359.201007 399.659643,359.201007 C398.703067,359.201007 397.793004,359.048471 396.929429,358.743394 C396.065853,358.438318 395.308575,358.020502 394.657571,357.489934 C394.006568,356.959366 393.48843,356.335958 393.103143,355.619692 C392.717855,354.903425 392.525214,354.120849 392.525214,353.271941 C392.525214,352.369975 392.717855,351.560871 393.103143,350.844605 C393.48843,350.128338 394.026497,349.498298 394.717357,348.954466 C395.408218,348.410634 396.238567,347.959658 397.208429,347.601525 C398.178291,347.243392 399.24778,346.984744 400.416929,346.825573 L406.714357,345.950141 L406.714357,344.557407 C406.714357,343.124874 406.282576,342.010698 405.419,341.214846 C404.555424,340.418994 403.180367,340.021075 401.293786,340.021075 C399.805778,340.021075 398.656575,340.30625 397.846143,340.876611 C397.03571,341.446971 396.524215,342.063747 396.311643,342.726957 C396.205357,343.045298 396.079144,343.264154 395.933,343.383532 C395.786856,343.502909 395.594215,343.562597 395.355071,343.562597 L394.797071,343.562597 C394.557927,343.562597 394.352001,343.476381 394.179286,343.303947 C394.006571,343.131512 393.920214,342.92592 393.920214,342.687165 C393.920214,342.315767 394.05307,341.851527 394.318786,341.294431 C394.584501,340.737335 395.016283,340.193511 395.614143,339.662943 C396.212003,339.132375 396.975924,338.674767 397.905929,338.290106 C398.835933,337.905444 399.965208,337.713116 401.293786,337.713116 C402.861508,337.713116 404.156852,337.92534 405.179857,338.349794 C406.202862,338.774248 407.00664,339.324704 407.591214,340.001178 C408.175789,340.677652 408.580999,341.427068 408.806857,342.249448 C409.032715,343.071829 409.145643,343.880932 409.145643,344.676784 L409.145643,357.92765 C409.145643,358.511275 408.85336,358.803083 408.268786,358.803083 L407.591214,358.803083 Z M400.058214,356.893048 C400.961647,356.893048 401.818567,356.740512 402.629,356.435436 C403.439433,356.130359 404.150211,355.672751 404.761357,355.062598 C405.372503,354.452445 405.850784,353.683133 406.196214,352.75464 C406.541645,351.826146 406.714357,350.738498 406.714357,349.491664 L406.714357,348.138722 L401.572786,348.854985 C397.161907,349.465138 394.9565,350.871122 394.9565,353.072979 C394.9565,353.736189 395.109284,354.30654 395.414857,354.784051 C395.72043,355.261563 396.112355,355.659483 396.590643,355.977823 C397.068931,356.296164 397.61364,356.528284 398.224786,356.67419 C398.835932,356.820096 399.447068,356.893048 400.058214,356.893048 Z M424.610214,359.201007 C422.936206,359.201007 421.567791,358.895935 420.504929,358.285782 C419.442066,357.675629 418.578503,356.932845 417.914214,356.057408 L417.914214,365.488205 C417.914214,366.071829 417.621931,366.363637 417.037357,366.363637 L416.359786,366.363637 C415.775211,366.363637 415.482929,366.071829 415.482929,365.488205 L415.482929,338.986472 C415.482929,338.402848 415.775211,338.11104 416.359786,338.11104 L417.037357,338.11104 C417.621931,338.11104 417.914214,338.402848 417.914214,338.986472 L417.914214,340.856715 C418.578503,339.954749 419.442066,339.205333 420.504929,338.608445 C421.567791,338.011556 422.936206,337.713116 424.610214,337.713116 C426.151365,337.713116 427.459995,337.985028 428.536143,338.52886 C429.612291,339.072692 430.482497,339.788948 431.146786,340.677649 C431.811075,341.56635 432.295998,342.574414 432.601571,343.701871 C432.907144,344.829327 433.0865,345.976663 433.139643,347.143912 C433.166214,347.541838 433.1795,347.97955 433.1795,348.457061 C433.1795,348.934572 433.166214,349.372284 433.139643,349.77021 C433.0865,350.93746 432.907144,352.084795 432.601571,353.212252 C432.295998,354.339709 431.811075,355.347773 431.146786,356.236474 C430.482497,357.125175 429.612291,357.841431 428.536143,358.385263 C427.459995,358.929095 426.151365,359.201007 424.610214,359.201007 Z M417.914214,347.024535 C417.887643,347.422461 417.874357,347.939757 417.874357,348.576439 C417.874357,349.21312 417.887643,349.730416 417.914214,350.128342 C417.940786,350.924194 418.080284,351.726665 418.332714,352.535781 C418.585144,353.344897 418.977069,354.067785 419.5085,354.704467 C420.039931,355.341148 420.70421,355.865076 421.501357,356.276266 C422.298504,356.687456 423.255066,356.893048 424.371071,356.893048 C425.54022,356.893048 426.51671,356.694088 427.300571,356.296162 C428.084432,355.898236 428.72214,355.361045 429.213714,354.684571 C429.705288,354.008096 430.063999,353.225521 430.289857,352.336819 C430.515715,351.448118 430.655214,350.52627 430.708357,349.571248 C430.734929,348.828453 430.734929,348.085669 430.708357,347.342874 C430.655214,346.387852 430.515715,345.472636 430.289857,344.597199 C430.063999,343.721762 429.705288,342.945819 429.213714,342.269345 C428.72214,341.592871 428.084432,341.049047 427.300571,340.637857 C426.51671,340.226666 425.54022,340.021075 424.371071,340.021075 C423.228494,340.021075 422.258647,340.233298 421.4615,340.657753 C420.664353,341.082207 420.006717,341.632663 419.488571,342.309137 C418.970426,342.985611 418.585144,343.735027 418.332714,344.557407 C418.080284,345.379787 417.940786,346.202155 417.914214,347.024535 Z M441.071214,340.856715 C441.788646,339.928221 442.652209,339.172173 443.661929,338.588548 C444.671648,338.004924 446.040063,337.713116 447.767214,337.713116 C449.122364,337.713116 450.304781,337.938604 451.3145,338.389586 C452.324219,338.840569 453.167854,339.463977 453.845429,340.259829 C454.523003,341.055681 455.034498,341.997424 455.379929,343.085089 C455.725359,344.172753 455.898071,345.353249 455.898071,346.626611 L455.898071,357.92765 C455.898071,358.511275 455.605789,358.803083 455.021214,358.803083 L454.343643,358.803083 C453.759069,358.803083 453.466786,358.511275 453.466786,357.92765 L453.466786,346.825573 C453.466786,344.703302 452.948648,343.03867 451.912357,341.831628 C450.876066,340.624586 449.36151,340.021075 447.368643,340.021075 C445.45549,340.021075 443.927649,340.617954 442.785071,341.811732 C441.642494,343.00551 441.071214,344.676773 441.071214,346.825573 L441.071214,357.92765 C441.071214,358.511275 440.778931,358.803083 440.194357,358.803083 L439.516786,358.803083 C438.932211,358.803083 438.639929,358.511275 438.639929,357.92765 L438.639929,331.425918 C438.639929,330.842293 438.932211,330.550485 439.516786,330.550485 L440.194357,330.550485 C440.778931,330.550485 441.071214,330.842293 441.071214,331.425918 L441.071214,340.856715 Z M472.119929,330.550485 C473.661079,330.550485 475.069351,330.775973 476.344786,331.226956 C477.620221,331.677939 478.716281,332.361035 479.633,333.276264 C480.549719,334.191494 481.26714,335.332198 481.785286,336.69841 C482.303431,338.064622 482.589071,339.676198 482.642214,341.533185 C482.695357,342.726963 482.721929,343.841139 482.721929,344.875746 C482.721929,345.910354 482.695357,347.024529 482.642214,348.218307 C482.509356,352.011867 481.539509,354.797307 479.732643,356.574709 L482.2835,360.156024 L482.363214,360.315194 C482.389786,360.368251 482.403071,360.461099 482.403071,360.593741 C482.403071,360.805968 482.323358,360.991664 482.163929,361.150834 C482.004499,361.310004 481.818501,361.389588 481.605929,361.389588 L480.729071,361.389588 C480.436784,361.389588 480.184358,361.276844 479.971786,361.051353 C479.759213,360.825862 479.586501,360.633534 479.453643,360.474363 L477.699929,358.047028 C476.105635,358.816351 474.245653,359.201007 472.119929,359.201007 C468.798483,359.201007 466.241009,358.312319 464.447429,356.534917 C462.653848,354.757514 461.703929,351.985339 461.597643,348.218307 C461.5445,347.024529 461.517929,345.910354 461.517929,344.875746 C461.517929,343.841139 461.5445,342.726963 461.597643,341.533185 C461.650786,339.676198 461.936426,338.064622 462.454571,336.69841 C462.972717,335.332198 463.690138,334.191494 464.606857,333.276264 C465.523576,332.361035 466.612994,331.677939 467.875143,331.226956 C469.137292,330.775973 470.552206,330.550485 472.119929,330.550485 Z M472.119929,332.938029 C471.003923,332.938029 469.967648,333.103829 469.011071,333.435434 C468.054495,333.767039 467.217504,334.290967 466.500071,335.007233 C465.782639,335.7235 465.218002,336.638716 464.806143,337.752908 C464.394284,338.867101 464.161786,340.193501 464.108643,341.732147 C464.082071,342.3423 464.062143,342.899388 464.048857,343.403428 C464.035571,343.907467 464.028929,344.398235 464.028929,344.875746 C464.028929,345.353257 464.035571,345.850657 464.048857,346.367961 C464.062143,346.885265 464.082071,347.43572 464.108643,348.019345 C464.161786,349.58452 464.394284,350.917552 464.806143,352.01848 C465.218002,353.119409 465.775996,354.027992 466.480143,354.744259 C467.184289,355.460526 468.014638,355.984454 468.971214,356.316059 C469.92779,356.647663 470.977351,356.813463 472.119929,356.813463 C473.262506,356.813463 474.312067,356.647663 475.268643,356.316059 C476.225219,355.984454 477.055568,355.460526 477.759714,354.744259 C478.463861,354.027992 479.021855,353.119409 479.433714,352.01848 C479.845573,350.917552 480.078071,349.58452 480.131214,348.019345 C480.157786,347.43572 480.171071,346.885265 480.171071,346.367961 L480.171071,343.403428 C480.171071,342.899388 480.157786,342.3423 480.131214,341.732147 C480.078071,340.193501 479.845573,338.867101 479.433714,337.752908 C479.021855,336.638716 478.457218,335.7235 477.739786,335.007233 C477.022354,334.290967 476.185362,333.767039 475.228786,333.435434 C474.27221,333.103829 473.235934,332.938029 472.119929,332.938029 Z M491.570214,356.41554 L505.320929,356.41554 C505.932074,356.41554 506.237643,356.720611 506.237643,357.330765 L506.237643,357.92765 C506.237643,358.511275 505.932074,358.803083 505.320929,358.803083 L489.936071,358.803083 C489.351497,358.803083 489.059214,358.511275 489.059214,357.92765 L489.059214,331.823842 C489.059214,331.240217 489.351497,330.948409 489.936071,330.948409 L490.693357,330.948409 C491.277931,330.948409 491.570214,331.240217 491.570214,331.823842 L491.570214,356.41554 Z M521.502929,341.533185 C521.423214,343.735042 521.423214,345.963394 521.502929,348.218307 C521.609215,351.242544 522.366493,353.431103 523.774786,354.784051 C525.183078,356.137 527.109488,356.813463 529.554071,356.813463 C530.616934,356.813463 531.593424,356.713983 532.483571,356.51502 C533.373719,356.316058 534.157568,355.977826 534.835143,355.500315 C535.512718,355.022803 536.09064,354.392764 536.568929,353.610176 C537.047217,352.827588 537.419213,351.839421 537.684929,350.645643 C537.738072,350.327302 537.844356,350.108446 538.003786,349.989068 C538.163215,349.869691 538.349213,349.810003 538.561786,349.810003 L539.358929,349.810003 C539.598073,349.810003 539.803999,349.882955 539.976714,350.028861 C540.149429,350.174767 540.2225,350.367095 540.195929,350.60585 C540.142785,351.560873 539.916931,352.542408 539.518357,353.550487 C539.119784,354.558566 538.495361,355.480414 537.645071,356.316059 C536.794781,357.151703 535.705364,357.841431 534.376786,358.385263 C533.048208,358.929095 531.440652,359.201007 529.554071,359.201007 C527.747205,359.201007 526.192792,358.929095 524.890786,358.385263 C523.588779,357.841431 522.506004,357.092015 521.642429,356.136993 C520.778853,355.181971 520.134502,354.047899 519.709357,352.734743 C519.284212,351.421588 519.045072,349.982444 518.991929,348.417269 C518.938785,347.329605 518.912214,346.162373 518.912214,344.915539 C518.912214,343.668704 518.938785,342.474944 518.991929,341.334223 C519.045072,339.795577 519.284212,338.363065 519.709357,337.036645 C520.134502,335.710226 520.778853,334.569522 521.642429,333.6145 C522.506004,332.659477 523.588779,331.910062 524.890786,331.36623 C526.192792,330.822397 527.747205,330.550485 529.554071,330.550485 C531.440652,330.550485 533.048208,330.822397 534.376786,331.36623 C535.705364,331.910062 536.794781,332.599789 537.645071,333.435434 C538.495361,334.271078 539.119784,335.192926 539.518357,336.201005 C539.916931,337.209084 540.142785,338.19062 540.195929,339.145642 C540.2225,339.384397 540.149429,339.576725 539.976714,339.722632 C539.803999,339.868538 539.598073,339.94149 539.358929,339.94149 L538.561786,339.94149 C538.349213,339.94149 538.163215,339.881802 538.003786,339.762424 C537.844356,339.643046 537.738072,339.42419 537.684929,339.10585 C537.419213,337.912072 537.047217,336.923904 536.568929,336.141316 C536.09064,335.358729 535.512718,334.728689 534.835143,334.251178 C534.157568,333.773667 533.373719,333.435435 532.483571,333.236472 C531.593424,333.037509 530.616934,332.938029 529.554071,332.938029 C527.109488,332.938029 525.183078,333.614493 523.774786,334.967441 C522.366493,336.320389 521.609215,338.508949 521.502929,341.533185 Z M553.4285,337.713116 C554.863364,337.713116 556.125495,337.945236 557.214929,338.409483 C558.304363,338.87373 559.214425,339.510401 559.945143,340.319517 C560.675861,341.128633 561.233855,342.090273 561.619143,343.204466 C562.00443,344.318658 562.223643,345.512418 562.276786,346.785781 C562.276786,346.998008 562.283429,347.250024 562.296714,347.541836 C562.31,347.833649 562.316643,348.138721 562.316643,348.457061 C562.316643,348.775402 562.31,349.087106 562.296714,349.392183 C562.283429,349.697259 562.276786,349.942643 562.276786,350.128342 C562.223643,351.401705 562.00443,352.595464 561.619143,353.709657 C561.233855,354.823849 560.675861,355.785489 559.945143,356.594605 C559.214425,357.403721 558.304363,358.040393 557.214929,358.50464 C556.125495,358.968887 554.863364,359.201007 553.4285,359.201007 C551.993636,359.201007 550.731505,358.968887 549.642071,358.50464 C548.552637,358.040393 547.642575,357.403721 546.911857,356.594605 C546.181139,355.785489 545.616502,354.823849 545.217929,353.709657 C544.819355,352.595464 544.606786,351.401705 544.580214,350.128342 C544.580214,349.942643 544.573571,349.697259 544.560286,349.392183 C544.547,349.087106 544.540357,348.775402 544.540357,348.457061 C544.540357,348.138721 544.547,347.833649 544.560286,347.541836 C544.573571,347.250024 544.580214,346.998008 544.580214,346.785781 C544.606786,345.512418 544.819355,344.318658 545.217929,343.204466 C545.616502,342.090273 546.181139,341.128633 546.911857,340.319517 C547.642575,339.510401 548.552637,338.87373 549.642071,338.409483 C550.731505,337.945236 551.993636,337.713116 553.4285,337.713116 Z M559.8455,346.984743 C559.765785,344.703301 559.141363,342.972349 557.972214,341.791836 C556.803066,340.611322 555.288509,340.021075 553.4285,340.021075 C551.568491,340.021075 550.053934,340.611322 548.884786,341.791836 C547.715637,342.972349 547.091215,344.703301 547.0115,346.984743 C546.984928,347.382669 546.971643,347.873437 546.971643,348.457061 C546.971643,349.040686 546.984928,349.531454 547.0115,349.92938 C547.091215,352.210822 547.715637,353.941773 548.884786,355.122287 C550.053934,356.3028 551.568491,356.893048 553.4285,356.893048 C555.288509,356.893048 556.803066,356.3028 557.972214,355.122287 C559.141363,353.941773 559.765785,352.210822 559.8455,349.92938 C559.872072,349.531454 559.885357,349.040686 559.885357,348.457061 C559.885357,347.873437 559.872072,347.382669 559.8455,346.984743 Z M570.248214,357.92765 C570.248214,358.511275 569.955931,358.803083 569.371357,358.803083 L568.693786,358.803083 C568.109211,358.803083 567.816929,358.511275 567.816929,357.92765 L567.816929,331.425918 C567.816929,330.842293 568.109211,330.550485 568.693786,330.550485 L569.371357,330.550485 C569.955931,330.550485 570.248214,330.842293 570.248214,331.425918 L570.248214,357.92765 Z M579.216071,357.92765 C579.216071,358.511275 578.923789,358.803083 578.339214,358.803083 L577.661643,358.803083 C577.077069,358.803083 576.784786,358.511275 576.784786,357.92765 L576.784786,331.425918 C576.784786,330.842293 577.077069,330.550485 577.661643,330.550485 L578.339214,330.550485 C578.923789,330.550485 579.216071,330.842293 579.216071,331.425918 L579.216071,357.92765 Z M584.6765,346.865366 C584.782786,345.512418 585.055141,344.272234 585.493571,343.144777 C585.932002,342.01732 586.516568,341.055681 587.247286,340.259829 C587.978004,339.463977 588.861495,338.840569 589.897786,338.389586 C590.934077,337.938604 592.103208,337.713116 593.405214,337.713116 C596.195228,337.713116 598.360778,338.6217 599.901929,340.438895 C601.443079,342.25609 602.213643,344.769617 602.213643,347.979553 L602.213643,348.576439 C602.213643,348.841722 602.127287,349.053946 601.954571,349.213117 C601.781856,349.372287 601.562644,349.451871 601.296929,349.451871 L587.107786,349.451871 L587.107786,349.849795 C587.134357,350.75176 587.300427,351.627184 587.606,352.476093 C587.911573,353.325001 588.330069,354.074417 588.8615,354.724363 C589.392931,355.374309 590.043925,355.898236 590.8145,356.296162 C591.585075,356.694088 592.448638,356.893048 593.405214,356.893048 C594.255504,356.893048 594.999497,356.786936 595.637214,356.574709 C596.274932,356.362482 596.819641,356.117098 597.271357,355.83855 C597.723074,355.560002 598.088427,355.274826 598.367429,354.983013 C598.64643,354.691201 598.839071,354.465713 598.945357,354.306543 C599.184501,353.961674 599.370499,353.756082 599.503357,353.689761 C599.636215,353.62344 599.848784,353.59028 600.141071,353.59028 L600.778786,353.59028 C601.01793,353.59028 601.223856,353.663232 601.396571,353.809138 C601.569287,353.955044 601.642357,354.147372 601.615786,354.386128 C601.589214,354.757525 601.383288,355.221765 600.998,355.778861 C600.612712,356.335958 600.068004,356.866517 599.363857,357.370557 C598.659711,357.874596 597.802791,358.305676 596.793071,358.66381 C595.783352,359.021943 594.654078,359.201007 593.405214,359.201007 C592.129779,359.201007 590.973934,358.982151 589.937643,358.544432 C588.901352,358.106714 588.011218,357.483306 587.267214,356.67419 C586.523211,355.865074 585.932002,354.896802 585.493571,353.769346 C585.055141,352.641889 584.782786,351.401705 584.6765,350.048757 C584.649928,349.650831 584.636643,349.120271 584.636643,348.457061 C584.636643,347.793852 584.649928,347.263292 584.6765,346.865366 Z M587.107786,347.223497 L599.782357,347.223497 L599.782357,347.064328 C599.782357,346.082777 599.636216,345.160929 599.343929,344.298757 C599.051641,343.436584 598.633146,342.687168 598.088429,342.050486 C597.543712,341.413805 596.87279,340.916405 596.075643,340.558272 C595.278496,340.200138 594.388362,340.021075 593.405214,340.021075 C592.395495,340.021075 591.505361,340.200138 590.734786,340.558272 C589.96421,340.916405 589.306574,341.413805 588.761857,342.050486 C588.21714,342.687168 587.805287,343.436584 587.526286,344.298757 C587.247284,345.160929 587.107786,346.082777 587.107786,347.064328 L587.107786,347.223497 Z M606.478357,347.342874 C606.504929,346.175625 606.670998,345.021657 606.976571,343.880936 C607.282144,342.740216 607.773711,341.712256 608.451286,340.797026 C609.128861,339.881797 609.999066,339.139013 611.061929,338.568652 C612.124791,337.998292 613.440064,337.713116 615.007786,337.713116 C616.655223,337.713116 618.016995,338.018188 619.093143,338.628341 C620.169291,339.238494 621.039497,339.981278 621.703786,340.856715 L621.703786,339.026265 C621.703786,338.760981 621.783499,338.542125 621.942929,338.36969 C622.102358,338.197256 622.314927,338.11104 622.580643,338.11104 L623.218357,338.11104 C623.484073,338.11104 623.703285,338.197256 623.876,338.36969 C624.048715,338.542125 624.135071,338.760981 624.135071,339.026265 L624.135071,358.405159 C624.135071,359.678522 624.002216,360.872282 623.7365,361.986474 C623.470784,363.100667 622.999146,364.068939 622.321571,364.891319 C621.643997,365.713699 620.733934,366.363635 619.591357,366.841146 C618.44878,367.318657 616.987366,367.557409 615.207071,367.557409 C613.506491,367.557409 612.124791,367.325289 611.061929,366.861042 C609.999066,366.396795 609.155432,365.852971 608.531,365.229554 C607.906568,364.606137 607.48143,363.962833 607.255571,363.299623 C607.029713,362.636413 606.9035,362.105853 606.876929,361.707927 C606.850357,361.442644 606.93007,361.223788 607.116071,361.051353 C607.302072,360.878918 607.514642,360.792703 607.753786,360.792703 L608.311786,360.792703 C608.524358,360.792703 608.703714,360.839127 608.849857,360.931976 C608.996001,361.024825 609.135499,361.256945 609.268357,361.628343 C609.374643,361.946683 609.540713,362.311443 609.766571,362.722633 C609.99243,363.133824 610.317926,363.531743 610.743071,363.916405 C611.168216,364.301067 611.726211,364.619403 612.417071,364.871423 C613.107932,365.123442 613.971495,365.24945 615.007786,365.24945 C616.09722,365.24945 617.060424,365.14997 617.897429,364.951007 C618.734433,364.752044 619.431926,364.40718 619.989929,363.916405 C620.547931,363.42563 620.97307,362.769062 621.265357,361.946682 C621.557644,361.124302 621.703786,360.076446 621.703786,358.803083 L621.703786,356.057408 C621.039497,356.959373 620.169291,357.708789 619.093143,358.305678 C618.016995,358.902567 616.655223,359.201007 615.007786,359.201007 C613.440064,359.201007 612.124791,358.915831 611.061929,358.34547 C609.999066,357.77511 609.128861,357.032326 608.451286,356.117097 C607.773711,355.201867 607.282144,354.173907 606.976571,353.033186 C606.670998,351.892465 606.504929,350.738498 606.478357,349.571248 C606.451786,348.828453 606.451786,348.085669 606.478357,347.342874 Z M621.703786,347.024535 C621.650643,346.202155 621.504501,345.379787 621.265357,344.557407 C621.026213,343.735027 620.647574,342.985611 620.129429,342.309137 C619.611283,341.632663 618.953647,341.082207 618.1565,340.657753 C617.359353,340.233298 616.389506,340.021075 615.246929,340.021075 C614.07778,340.021075 613.094647,340.226666 612.2975,340.637857 C611.500353,341.049047 610.856002,341.592871 610.364429,342.269345 C609.872855,342.945819 609.514144,343.721762 609.288286,344.597199 C609.062427,345.472636 608.936214,346.387852 608.909643,347.342874 C608.883071,348.085669 608.883071,348.828453 608.909643,349.571248 C608.936214,350.52627 609.062427,351.448118 609.288286,352.336819 C609.514144,353.225521 609.872855,354.008096 610.364429,354.684571 C610.856002,355.361045 611.500353,355.898236 612.2975,356.296162 C613.094647,356.694088 614.07778,356.893048 615.246929,356.893048 C616.389506,356.893048 617.359353,356.680824 618.1565,356.25637 C618.953647,355.831916 619.611283,355.28146 620.129429,354.604986 C620.647574,353.928512 621.026213,353.179096 621.265357,352.356716 C621.504501,351.534335 621.650643,350.711968 621.703786,349.889587 C621.730357,349.491662 621.743643,349.014158 621.743643,348.457061 C621.743643,347.899965 621.730357,347.422461 621.703786,347.024535 Z M629.5955,346.865366 C629.701786,345.512418 629.974141,344.272234 630.412571,343.144777 C630.851002,342.01732 631.435568,341.055681 632.166286,340.259829 C632.897004,339.463977 633.780495,338.840569 634.816786,338.389586 C635.853077,337.938604 637.022208,337.713116 638.324214,337.713116 C641.114228,337.713116 643.279778,338.6217 644.820929,340.438895 C646.362079,342.25609 647.132643,344.769617 647.132643,347.979553 L647.132643,348.576439 C647.132643,348.841722 647.046287,349.053946 646.873571,349.213117 C646.700856,349.372287 646.481644,349.451871 646.215929,349.451871 L632.026786,349.451871 L632.026786,349.849795 C632.053357,350.75176 632.219427,351.627184 632.525,352.476093 C632.830573,353.325001 633.249069,354.074417 633.7805,354.724363 C634.311931,355.374309 634.962925,355.898236 635.7335,356.296162 C636.504075,356.694088 637.367638,356.893048 638.324214,356.893048 C639.174504,356.893048 639.918497,356.786936 640.556214,356.574709 C641.193932,356.362482 641.738641,356.117098 642.190357,355.83855 C642.642074,355.560002 643.007427,355.274826 643.286429,354.983013 C643.56543,354.691201 643.758071,354.465713 643.864357,354.306543 C644.103501,353.961674 644.289499,353.756082 644.422357,353.689761 C644.555215,353.62344 644.767784,353.59028 645.060071,353.59028 L645.697786,353.59028 C645.93693,353.59028 646.142856,353.663232 646.315571,353.809138 C646.488287,353.955044 646.561357,354.147372 646.534786,354.386128 C646.508214,354.757525 646.302288,355.221765 645.917,355.778861 C645.531712,356.335958 644.987004,356.866517 644.282857,357.370557 C643.578711,357.874596 642.721791,358.305676 641.712071,358.66381 C640.702352,359.021943 639.573078,359.201007 638.324214,359.201007 C637.048779,359.201007 635.892934,358.982151 634.856643,358.544432 C633.820352,358.106714 632.930218,357.483306 632.186214,356.67419 C631.442211,355.865074 630.851002,354.896802 630.412571,353.769346 C629.974141,352.641889 629.701786,351.401705 629.5955,350.048757 C629.568928,349.650831 629.555643,349.120271 629.555643,348.457061 C629.555643,347.793852 629.568928,347.263292 629.5955,346.865366 Z M632.026786,347.223497 L644.701357,347.223497 L644.701357,347.064328 C644.701357,346.082777 644.555216,345.160929 644.262929,344.298757 C643.970641,343.436584 643.552146,342.687168 643.007429,342.050486 C642.462712,341.413805 641.79179,340.916405 640.994643,340.558272 C640.197496,340.200138 639.307362,340.021075 638.324214,340.021075 C637.314495,340.021075 636.424361,340.200138 635.653786,340.558272 C634.88321,340.916405 634.225574,341.413805 633.680857,342.050486 C633.13614,342.687168 632.724287,343.436584 632.445286,344.298757 C632.166284,345.160929 632.026786,346.082777 632.026786,347.064328 L632.026786,347.223497 Z" id="GraphQL-College" fill="#E10098"></path>
            <path d="M586.265963,303.133272 C579.639475,307.049773 572.410034,310.072109 565.448984,312.557703 L566.56687,315.525771 C573.092628,313.195402 580.158607,310.360363 586.757796,306.720948 C587.368676,307.884012 590.263324,312.407698 598.712195,313.335958 C607.004878,314.247005 610.871138,311.84961 610.871138,311.84961 C610.871138,311.84961 609.982724,305.873723 600.345528,304.744111 C595.770833,304.207849 590.299442,305.447555 587.881026,306.090995 C591.884091,303.807602 595.690941,301.216707 599.070935,298.249665 C599.281269,298.065014 599.491606,297.879598 599.701899,297.693418 C600.09619,298.589761 602.389004,302.736045 611.103455,302.85281 C619.577642,302.966295 623.40752,300.206316 623.40752,300.206316 C623.40752,300.206316 622.773171,294.592895 612.192276,294.514609 C607.114765,294.476998 601.806351,296.578557 600.155109,297.290914 C603.318935,294.472161 606.465398,291.48006 609.437151,288.312907 C610.256309,289.226087 614.496222,293.329733 622.961992,291.26496 C631.194919,289.256946 635.010163,284.685065 635.010163,284.685065 C635.010163,284.685065 631.610569,278.719898 621.346748,281.288637 C617.046168,282.364991 612.639923,285.483921 610.544224,287.11574 C614.268853,283.027729 617.67839,278.655636 620.44814,273.995944 C621.498696,275.041418 625.570331,278.202475 634.631911,275.808673 C642.637398,273.693874 646.474593,268.869849 646.474593,268.869849 C646.346138,268.728755 641.944512,263.086583 632.580081,265.960452 C627.309052,267.578058 623.081472,270.98544 621.208612,272.680283 C623.06647,269.372184 624.594228,265.922262 625.67964,262.329303 C626.952979,262.852233 631.823483,264.344606 639.560569,260.666064 C646.245528,257.487876 649.879065,250.855401 649.879065,250.855401 C649.75061,250.741185 644.583333,247.841025 637.508943,251.246386 C631.774511,254.006565 627.52833,259.198346 625.982855,261.2799 C626.106651,260.831023 626.22348,260.379946 626.33313,259.926666 C626.966689,257.307686 627.461732,254.648477 627.807889,251.963763 C629.74852,251.629042 634.591697,250.366314 639.914024,245.719323 C646.411341,240.046293 647.328862,230.660132 647.328862,230.660132 C647.20061,230.589686 638.630285,230.043172 633.434553,237.577234 C630.282614,242.147901 629.658837,247.616575 627.962523,250.673605 C628.493051,245.884385 628.547271,241.02192 628.066813,236.169068 C629.342588,235.83273 633.31072,234.326387 637.468191,228.036173 C642.222744,220.842769 640.892581,211.601764 640.892581,211.601764 C640.750102,211.56786 632.547866,213.26445 629.543191,221.906564 C628.238482,225.659318 627.81692,230.132349 627.687314,233.076011 C627.433086,231.342251 627.108803,229.611978 626.711789,227.888988 C626.106415,225.261865 625.48446,222.963966 624.797875,220.795795 C625.911707,220.334972 628.384881,218.663432 631.28689,212.606684 C635.012276,204.831645 632.393577,195.750208 632.393577,195.750208 C632.247642,195.735997 624.608659,197.811615 623.359431,207.616594 C622.930314,210.984659 623.161886,214.444685 623.485062,216.998701 C622.475129,214.304015 621.309095,211.626551 619.88313,208.535234 C619.290424,207.250389 618.576008,205.851316 617.785194,204.402697 C618.941844,203.844199 622.695822,201.628988 624.435772,195.756299 C627.850407,184.230977 621.905081,178.876679 621.905081,178.876679 C621.75874,178.881958 615.592663,182.721769 615.119512,191.81092 C614.901877,195.992492 615.907792,200.029803 616.663506,202.402312 C614.460684,198.570158 611.883914,194.603033 609.719309,191.623132 C609.499358,191.320335 609.277826,191.017547 609.054779,190.714831 C609.716476,189.483326 611.859366,185.037125 611.99624,178.878912 C612.237093,168.0412 605.804167,165.217272 605.804167,165.217272 C605.25372,165.825096 602.787886,172.438894 603.814634,178.509629 C604.471729,182.394652 606.161086,186.141175 607.405151,188.513277 C604.601688,184.832785 601.596703,181.186849 598.508528,177.694445 C599.108839,176.333968 600.39346,172.866692 600.086443,166.234576 C599.639695,156.584903 593.491321,152.76925 593.491321,152.76925 C592.418902,154.310128 591.39435,160.483792 592.411992,166.165957 C593.048094,169.717589 594.619797,172.774914 595.986976,174.896875 C595.001944,173.824788 594.011824,172.771158 593.020325,171.739713 C592.148917,170.833186 591.22226,169.951351 590.262038,169.098553 C589.239876,167.245634 586.702386,163.470795 582.198577,159.606364 C574.862398,153.311501 566.994106,156.757668 566.994106,156.757668 C567.381098,158.594135 572.285569,164.884937 577.283333,167.783169 C581.107534,170.000878 588.246735,170.081251 590.216737,170.058658 C591.232518,170.954095 592.206154,171.881318 593.101992,172.832336 C594.980235,174.826326 596.819582,176.886618 598.61422,178.996828 C596.663746,177.427564 593.35637,175.325118 588.94939,174.550243 C583.257927,173.549646 578.88252,174.473509 576.073374,176.108438 C576.073374,176.108438 580.407114,181.654381 588.713618,182.418933 C595.366571,183.03118 598.929377,181.606737 600.304098,181.014335 C602.996015,184.27702 605.579745,187.643669 608.034684,191.056228 C606.239922,189.527559 602.826878,187.187168 598.016463,186.341513 C592.325,185.340917 589.592073,186.367318 586.782927,188.002251 C586.782927,188.002251 590.244106,193.29199 598.55061,194.056339 C605.132012,194.662001 607.889876,193.232504 609.14528,192.621162 C612.010219,196.720801 614.453639,200.751399 616.600967,205.592998 C614.883059,203.597882 611.753756,200.560455 607.396748,198.730254 C600.314837,195.755284 596.677439,197.175795 593.631504,198.311517 C594.602846,199.766845 598.578049,205.833195 605.022967,207.654233 C611.148962,209.385271 615.700686,208.237108 617.513303,207.739619 C618.96643,211.260583 620.427434,214.941302 621.691617,218.703406 C620.088334,216.589899 617.237539,213.476976 613.15935,211.409306 C606.308537,207.935935 602.578862,209.092914 599.45935,210.008082 C600.323984,211.529085 603.854472,217.863921 610.152439,220.140929 C616.006857,222.257447 620.5565,221.519976 622.478606,221.143453 C623.500697,224.457505 624.338945,227.820793 624.85687,231.181067 C625.119847,232.887317 625.313883,234.603753 625.4388,236.323366 C622.79791,232.74927 621.14005,228.938645 616.880285,225.145047 C611.324187,220.196981 606.556707,221.774402 603.321138,222.093946 C604.913943,225.082113 607.305488,229.809096 612.247967,233.370575 C617.642149,237.257293 623.590518,237.006112 625.481593,236.955418 C625.766828,241.499626 625.569611,246.060002 624.88664,250.507345 C622.824677,246.97406 621.508722,243.998448 617.862602,239.933011 C612.895732,234.395188 608.186789,235.378386 604.935772,235.334332 C606.183821,238.481662 608.287398,243.189968 612.8,247.281517 C617.377621,251.431839 622.536964,251.568313 624.70674,251.61116 C624.267583,254.157786 623.667646,256.663475 622.906301,259.103646 C622.557103,260.222776 622.172461,261.32802 621.75471,262.419445 C618.64868,257.425369 618.87158,256.00372 615.411382,251.483506 C611.469919,246.334659 606.491667,246.47616 603.254675,246.171639 C604.245976,249.408904 605.727439,253.788124 609.928862,258.197594 C614.024114,262.4955 618.269628,262.359501 621.479658,263.124098 C619.965628,266.928912 618.050977,270.5641 615.83623,274.032502 C613.872232,269.387538 614.1253,266.345103 612.076016,262.916863 C608.530894,256.986208 605.055488,256.730207 601.818496,256.425888 C604.400407,263.814795 603.802663,263.848901 606.644919,268.349321 C609.206664,272.405671 612.619763,273.210388 615.517678,274.527052 C613.432987,277.735736 611.093229,280.800477 608.579099,283.723553 C607.541796,278.867326 608.709561,277.16782 607.342886,273.39321 C604.991057,266.897566 601.627642,265.986438 598.507724,265.073077 C598.866484,269.43362 598.324817,272.200095 600.771748,276.92647 C602.390486,280.053085 605.632054,282.149559 608.241371,284.114165 C605.085911,287.744772 601.664715,291.15509 598.134427,294.349541 C598.805583,293.064645 600.397465,289.325451 600.187541,283.075771 C599.904512,274.647432 593.800752,273.768583 593.800752,273.768583 L593.800813,273.768786 C593.800813,273.768786 591.098984,278.978944 591.996484,285.0174 C593.110984,292.516645 596.765315,294.427536 597.650888,294.785133 C597.273032,295.124014 596.894014,295.460438 596.514024,295.794411 C593.763824,298.211718 590.761512,300.374966 587.60502,302.324327 C588.408407,300.58718 589.68599,297.140715 589.764228,292.663119 C589.939126,282.645178 584.044715,282.484391 584.044715,282.484391 L584.044715,282.484188 C584.044715,282.484188 581.340854,287.75931 581.93252,293.835526 C582.498865,299.651717 585.024102,302.210607 586.265963,303.133272 Z M412.267209,302.320093 C409.113366,300.371932 406.113485,298.210158 403.365305,295.794817 C402.9851,295.460625 402.605866,295.12398 402.227795,294.784876 C403.114477,294.426624 406.767331,292.514856 407.881565,285.0174 C408.779065,278.978944 406.077236,273.768786 406.077236,273.768786 L406.077297,273.768583 C406.077297,273.768583 399.973516,274.647432 399.690508,283.075771 C399.480673,289.322788 401.07111,293.061459 401.742764,294.347898 C398.211558,291.152266 394.789459,287.740765 391.633346,284.109023 C394.241487,282.1459 397.478812,280.050357 399.096138,276.92647 C401.543055,272.200095 401.001402,269.43362 401.360163,265.073077 C398.240244,265.986438 394.876829,266.897566 392.525,273.39321 C391.159323,277.165094 392.324424,278.864871 391.291033,283.713038 C388.780274,280.793156 386.44359,277.732053 384.361441,274.527489 C387.259563,273.210566 390.673134,272.40612 393.235163,268.349321 C396.077439,263.848901 395.479675,263.814795 398.061585,256.425888 C394.824593,256.730207 391.349187,256.986208 387.804065,262.916863 C385.754626,266.345395 386.007894,269.388057 384.043349,274.03369 C381.828057,270.564744 379.913101,266.929087 378.399154,263.123916 C381.609093,262.359522 385.854259,262.49516 389.949187,258.197594 C394.150813,253.788124 395.632073,249.408904 396.623374,246.171639 C393.386382,246.47616 388.40813,246.334659 384.466667,251.483506 C381.006671,256.003456 381.229343,257.425203 378.123881,262.418572 C377.706374,261.327551 377.321978,260.222733 376.973028,259.104052 C376.211403,256.663759 375.611271,254.157985 375.171992,251.611266 C377.338549,251.568535 382.502761,251.435252 387.084146,247.281517 C391.596748,243.189968 393.700325,238.481662 394.948374,235.334332 C391.697358,235.378386 386.988415,234.395188 382.021545,239.933011 C378.372872,244.001294 377.057628,246.978227 374.993174,250.514768 C374.30917,246.06531 374.111586,241.502594 374.397042,236.955762 C376.302007,237.007218 382.2358,237.248579 387.617886,233.370575 C392.560366,229.809096 394.951931,225.082113 396.544715,222.093946 C393.309146,221.774402 388.541667,220.196981 382.985569,225.145047 C378.733452,228.931834 377.073905,232.735586 374.44127,236.304111 C374.566251,234.591127 374.759825,232.881277 375.021809,231.181473 C375.53967,227.821617 376.377774,224.458746 377.399692,221.145094 C379.326618,221.52211 383.871552,222.254378 389.71748,220.140929 C396.015447,217.863921 399.545935,211.529085 400.410569,210.008082 C397.291057,209.092914 393.561382,207.935935 386.710569,211.409306 C382.64588,213.470131 379.800472,216.569301 378.194265,218.682384 C379.456998,214.927122 380.915482,211.25311 382.366083,207.738312 C384.175481,208.235093 388.729814,209.386789 394.861179,207.654233 C401.306098,205.833195 405.28128,199.766845 406.252642,198.311517 C403.206707,197.175795 399.569309,195.755284 392.487398,198.730254 C388.121153,200.564336 384.987823,203.610767 383.272271,205.605674 C385.420151,200.76033 387.864309,196.727527 390.730354,192.625927 C391.990281,193.239892 394.750879,194.660433 401.315244,194.056339 C409.621748,193.29199 413.082927,188.002251 413.082927,188.002251 C410.27378,186.367318 407.540854,185.340917 401.84939,186.341513 C397.068967,187.181896 393.668543,189.498434 391.864927,191.027542 C394.314131,187.624231 396.891389,184.266753 399.576262,181.012704 C400.948221,181.604116 404.511458,183.031742 411.170528,182.418933 C419.477033,181.654381 423.810772,176.108438 423.810772,176.108438 C421.001626,174.473509 416.62622,173.549646 410.934756,174.550243 C406.515511,175.327274 403.201999,177.439276 401.253673,179.009917 C403.051727,176.89528 404.894681,174.830727 406.776687,172.832742 C407.672679,171.88156 408.646496,170.954181 409.662467,170.058601 C411.625442,170.081385 418.773407,170.002736 422.600813,167.783169 C427.598577,164.884937 432.503049,158.594135 432.890041,156.757668 C432.890041,156.757668 425.021748,153.311501 417.685569,159.606364 C413.201752,163.453641 410.666836,167.212121 409.635809,169.073766 C408.665627,169.93426 407.729447,170.8244 406.849593,171.739713 C405.864923,172.764054 404.881614,173.810275 403.903296,174.874726 C405.267128,172.753665 406.830132,169.70525 407.464024,166.165957 C408.480285,160.484807 407.455894,154.311143 406.384756,152.770265 C406.384756,152.770265 400.236382,156.585918 399.789634,166.235591 C399.483036,172.859048 400.763907,176.325924 401.365215,177.690121 C398.270897,181.189267 395.260047,184.842599 392.451697,188.530438 C393.696603,186.15927 395.392538,182.404034 396.05122,178.509629 C397.077988,172.438894 394.612134,165.825096 394.061687,165.217272 C394.061687,165.217272 387.62876,168.0412 387.869614,178.878912 C388.006608,185.042454 390.153089,189.49102 390.812789,190.718021 C390.590536,191.019674 390.369788,191.321399 390.15061,191.623132 C387.994924,194.590754 385.430463,198.537481 383.233662,202.354934 C383.987598,199.976296 384.978795,195.964785 384.762602,191.81092 C384.289451,182.721769 378.123374,178.881958 377.977033,178.876679 C377.977033,178.876679 372.031707,184.230977 375.446341,195.756299 C377.181485,201.612762 380.91954,203.83193 382.087273,204.398029 C381.295445,205.848311 380.580131,207.249009 379.986789,208.535234 C378.568018,211.610953 377.406562,214.276986 376.400155,216.957914 C376.720627,214.40792 376.947477,210.966764 376.52065,207.616594 C375.271423,197.811615 367.632439,195.735997 367.486504,195.750208 C367.486504,195.750208 364.867805,204.831645 368.593191,212.606684 C371.487426,218.647206 373.95512,220.325984 375.073225,220.792065 C374.386172,222.961331 373.763851,225.260358 373.15813,227.888988 C372.765967,229.590927 372.444773,231.299973 372.191968,233.012466 C372.059104,230.068251 371.634279,225.632414 370.338923,221.906564 C367.334248,213.26445 359.132012,211.56786 358.989533,211.601764 C358.989533,211.601764 357.65937,220.842769 362.413923,228.036173 C366.55875,234.307005 370.515129,235.823401 371.803447,236.165925 C371.322664,241.020013 371.376854,245.883737 371.907548,250.674175 C370.210677,247.617117 369.587328,242.147918 366.435163,237.577437 C361.239431,230.043578 352.668902,230.589686 352.54065,230.660741 C352.54065,230.660741 353.458171,240.046902 359.955488,245.719932 C365.278349,250.36739 370.121964,251.629904 372.062207,251.964473 C372.40835,254.648946 372.903337,257.307917 373.536789,259.926666 C373.645022,260.374091 373.760251,260.81937 373.882271,261.262506 C372.32615,259.169561 368.087631,253.998908 362.369106,251.246386 C355.295732,247.839807 350.128252,250.74088 350,250.854568 C350,250.854568 353.633537,257.487044 360.318496,260.665232 C368.038748,264.33577 372.904878,262.85787 374.191063,262.331898 C375.274793,265.918517 376.799299,269.362598 378.652922,272.665349 C376.771807,270.965499 372.553561,267.573321 367.297967,265.960452 C357.933537,263.086583 353.531911,268.728755 353.403455,268.869849 C353.403455,268.869849 357.24065,273.693874 365.246341,275.808673 C374.292931,278.198515 378.366071,275.051861 379.424873,274.00115 C382.184298,278.642458 385.578409,282.998408 389.286297,287.072475 C387.168994,285.429383 382.802302,282.355553 378.539431,281.288637 C368.27561,278.719898 364.876016,284.685065 364.876016,284.685065 C364.876016,284.685065 368.69126,289.256946 376.924187,291.26496 C385.362911,293.323136 389.602736,289.252245 390.441072,288.321757 C393.41098,291.486271 396.555196,294.47599 399.716719,297.292615 C398.069997,296.581909 392.757168,294.476968 387.67561,294.514609 C377.094715,294.592895 376.460366,300.206316 376.460366,300.206316 C376.460366,300.206316 380.290244,302.966295 388.764431,302.85281 C397.483087,302.735989 399.773907,298.585759 400.166557,297.692122 C400.377337,297.878738 400.588162,298.064586 400.798984,298.249665 C404.174989,301.213205 407.976843,303.801487 411.974722,306.08291 C409.541094,305.437241 404.096258,304.210086 399.54065,304.744111 C389.903455,305.873723 389.015041,311.84961 389.015041,311.84961 C389.015041,311.84961 392.881301,314.247005 401.17378,313.335958 C409.606127,312.409514 412.505956,307.901694 413.124569,306.727811 C419.720196,310.363927 426.781393,313.196867 433.303049,315.525771 L434.428313,312.555673 C427.467338,310.071303 420.237391,307.048774 413.610397,303.131657 C414.853029,302.207622 417.375652,299.648326 417.941667,293.835526 C418.53313,287.75931 415.829268,282.484188 415.829268,282.484188 L415.829472,282.484391 C415.829472,282.484391 409.935079,282.645178 410.109959,292.663119 C410.188133,297.13708 411.463707,300.581583 412.267209,302.320093 Z" id="Combined-Shape" fill="#E535AB" fill-rule="nonzero"></path>
            <path d="M624.46,1366.38 C624.46,1367.79601 624.274002,1369.08599 623.902,1370.25 C623.529998,1371.41401 622.972004,1372.416 622.228,1373.256 C621.483996,1374.096 620.572005,1374.75 619.492,1375.218 C618.411995,1375.686 617.164007,1375.92 615.748,1375.92 C614.571994,1375.92 613.468005,1375.776 612.436,1375.488 C611.403995,1375.2 610.492004,1374.756 609.7,1374.156 C608.907996,1373.556 608.272002,1372.794 607.792,1371.87 C607.311998,1370.946 607.048,1369.84801 607,1368.576 C607,1368.36 607.059999,1368.174 607.18,1368.018 C607.300001,1367.862 607.491999,1367.784 607.756,1367.784 L608.476,1367.784 C608.716001,1367.784 608.901999,1367.856 609.034,1368 C609.166001,1368.144 609.244,1368.324 609.268,1368.54 C609.34,1369.476 609.561998,1370.274 609.934,1370.934 C610.306002,1371.594 610.785997,1372.134 611.374,1372.554 C611.962003,1372.974 612.627996,1373.28 613.372,1373.472 C614.116004,1373.664 614.907996,1373.76 615.748,1373.76 C616.804005,1373.76 617.733996,1373.58 618.538,1373.22 C619.342004,1372.86 620.013997,1372.35 620.554,1371.69 C621.094003,1371.03 621.501999,1370.244 621.778,1369.332 C622.054001,1368.42 622.192,1367.42401 622.192,1366.344 L622.192,1352.52 L608.908,1352.52 C608.379997,1352.52 608.116,1352.256 608.116,1351.728 L608.116,1351.152 C608.116,1350.624 608.379997,1350.36 608.908,1350.36 L623.632,1350.36 C624.184003,1350.36 624.46,1350.636 624.46,1351.188 L624.46,1366.38 Z M630.184,1357.632 C630.184,1357.104 630.447997,1356.84 630.976,1356.84 L631.588,1356.84 C632.116003,1356.84 632.38,1357.104 632.38,1357.632 L632.38,1367.676 C632.38,1371.78002 634.167982,1373.832 637.744,1373.832 C639.472009,1373.832 640.845995,1373.29201 641.866,1372.212 C642.886005,1371.13199 643.396,1369.62001 643.396,1367.676 L643.396,1357.632 C643.396,1357.104 643.659997,1356.84 644.188,1356.84 L644.8,1356.84 C645.328003,1356.84 645.592,1357.104 645.592,1357.632 L645.592,1374.768 C645.592,1375.296 645.328003,1375.56 644.8,1375.56 L644.188,1375.56 C643.659997,1375.56 643.396,1375.296 643.396,1374.768 L643.396,1373.076 C642.747997,1373.916 641.968005,1374.6 641.056,1375.128 C640.143995,1375.656 638.920008,1375.92 637.384,1375.92 C636.159994,1375.92 635.098004,1375.716 634.198,1375.308 C633.297996,1374.9 632.548003,1374.336 631.948,1373.616 C631.347997,1372.896 630.904001,1372.044 630.616,1371.06 C630.327999,1370.076 630.184,1369.00801 630.184,1367.856 L630.184,1357.632 Z M653.656,1374.768 C653.656,1375.296 653.392003,1375.56 652.864,1375.56 L652.252,1375.56 C651.723997,1375.56 651.46,1375.296 651.46,1374.768 L651.46,1350.792 C651.46,1350.264 651.723997,1350 652.252,1350 L652.864,1350 C653.392003,1350 653.656,1350.264 653.656,1350.792 L653.656,1374.768 Z M662.116,1352.196 C662.116,1352.436 662.038001,1352.628 661.882,1352.772 C661.725999,1352.916 661.528001,1352.988 661.288,1352.988 L659.92,1352.988 C659.391997,1352.988 659.128,1352.724 659.128,1352.196 L659.128,1350.828 C659.128,1350.588 659.199999,1350.39 659.344,1350.234 C659.488001,1350.078 659.679999,1350 659.92,1350 L661.288,1350 C661.528001,1350 661.725999,1350.078 661.882,1350.234 C662.038001,1350.39 662.116,1350.588 662.116,1350.828 L662.116,1352.196 Z M661.72,1374.768 C661.72,1375.296 661.456003,1375.56 660.928,1375.56 L660.316,1375.56 C659.787997,1375.56 659.524,1375.296 659.524,1374.768 L659.524,1357.632 C659.524,1357.104 659.787997,1356.84 660.316,1356.84 L660.928,1356.84 C661.456003,1356.84 661.72,1357.104 661.72,1357.632 L661.72,1374.768 Z M679.756,1375.56 C679.227997,1375.56 678.964,1375.296 678.964,1374.768 L678.964,1373.076 C678.747999,1373.412 678.466002,1373.748 678.118,1374.084 C677.769998,1374.42 677.344003,1374.72 676.84,1374.984 C676.335997,1375.248 675.736003,1375.47 675.04,1375.65 C674.343997,1375.83 673.528005,1375.92 672.592,1375.92 C671.727996,1375.92 670.906004,1375.782 670.126,1375.506 C669.345996,1375.23 668.662003,1374.852 668.074,1374.372 C667.485997,1373.892 667.018002,1373.328 666.67,1372.68 C666.321998,1372.032 666.148,1371.324 666.148,1370.556 C666.148,1369.74 666.321998,1369.008 666.67,1368.36 C667.018002,1367.712 667.503997,1367.142 668.128,1366.65 C668.752003,1366.158 669.501996,1365.75 670.378,1365.426 C671.254004,1365.102 672.219995,1364.868 673.276,1364.724 L678.964,1363.932 L678.964,1362.672 C678.964,1361.37599 678.574004,1360.368 677.794,1359.648 C677.013996,1358.928 675.772009,1358.568 674.068,1358.568 C672.723993,1358.568 671.686004,1358.826 670.954,1359.342 C670.221996,1359.858 669.760001,1360.416 669.568,1361.016 C669.472,1361.304 669.358001,1361.502 669.226,1361.61 C669.093999,1361.718 668.920001,1361.772 668.704,1361.772 L668.2,1361.772 C667.983999,1361.772 667.798001,1361.694 667.642,1361.538 C667.485999,1361.382 667.408,1361.196 667.408,1360.98 C667.408,1360.644 667.527999,1360.224 667.768,1359.72 C668.008001,1359.216 668.397997,1358.724 668.938,1358.244 C669.478003,1357.764 670.167996,1357.35 671.008,1357.002 C671.848004,1356.654 672.867994,1356.48 674.068,1356.48 C675.484007,1356.48 676.653995,1356.672 677.578,1357.056 C678.502005,1357.44 679.227997,1357.938 679.756,1358.55 C680.284003,1359.162 680.649999,1359.84 680.854,1360.584 C681.058001,1361.328 681.16,1362.06 681.16,1362.78 L681.16,1374.768 C681.16,1375.296 680.896003,1375.56 680.368,1375.56 L679.756,1375.56 Z M672.952,1373.832 C673.768004,1373.832 674.541996,1373.694 675.274,1373.418 C676.006004,1373.142 676.647997,1372.728 677.2,1372.176 C677.752003,1371.624 678.183998,1370.928 678.496,1370.088 C678.808002,1369.248 678.964,1368.26401 678.964,1367.136 L678.964,1365.912 L674.32,1366.56 C670.33598,1367.112 668.344,1368.38399 668.344,1370.376 C668.344,1370.976 668.481999,1371.492 668.758,1371.924 C669.034001,1372.356 669.387998,1372.716 669.82,1373.004 C670.252002,1373.292 670.743997,1373.502 671.296,1373.634 C671.848003,1373.766 672.399997,1373.832 672.952,1373.832 Z M702.436,1374.768 C702.436,1375.296 702.172003,1375.56 701.644,1375.56 L701.032,1375.56 C700.503997,1375.56 700.24,1375.296 700.24,1374.768 L700.24,1364.724 C700.24,1362.80399 699.772005,1361.29801 698.836,1360.206 C697.899995,1359.11399 696.532009,1358.568 694.732,1358.568 C693.003991,1358.568 691.624005,1359.10799 690.592,1360.188 C689.559995,1361.26801 689.044,1362.77999 689.044,1364.724 L689.044,1374.768 C689.044,1375.296 688.780003,1375.56 688.252,1375.56 L687.64,1375.56 C687.111997,1375.56 686.848,1375.296 686.848,1374.768 L686.848,1357.632 C686.848,1357.104 687.111997,1356.84 687.64,1356.84 L688.252,1356.84 C688.780003,1356.84 689.044,1357.104 689.044,1357.632 L689.044,1359.324 C689.692003,1358.484 690.471995,1357.8 691.384,1357.272 C692.296005,1356.744 693.531992,1356.48 695.092,1356.48 C696.316006,1356.48 697.383995,1356.684 698.296,1357.092 C699.208005,1357.5 699.969997,1358.064 700.582,1358.784 C701.194003,1359.504 701.655998,1360.356 701.968,1361.34 C702.280002,1362.324 702.436,1363.39199 702.436,1364.544 L702.436,1374.768 Z M728.104,1369.512 C727.575997,1369.512 727.204001,1369.272 726.988,1368.792 L720.112,1355.256 L720.112,1374.768 C720.112,1375.296 719.848003,1375.56 719.32,1375.56 L718.672,1375.56 C718.119997,1375.56 717.844,1375.296 717.844,1374.768 L717.844,1351.188 C717.844,1350.636 718.119997,1350.36 718.672,1350.36 L719.572,1350.36 C719.812001,1350.36 719.985999,1350.42 720.094,1350.54 C720.202001,1350.66 720.28,1350.756 720.328,1350.828 L728.5,1366.74 L736.708,1350.828 C736.756,1350.756 736.833999,1350.66 736.942,1350.54 C737.050001,1350.42 737.223999,1350.36 737.464,1350.36 L738.328,1350.36 C738.880003,1350.36 739.156,1350.636 739.156,1351.188 L739.156,1374.768 C739.156,1375.296 738.880003,1375.56 738.328,1375.56 L737.68,1375.56 C737.151997,1375.56 736.888,1375.296 736.888,1374.768 L736.888,1355.256 L730.012,1368.792 C729.795999,1369.272 729.424003,1369.512 728.896,1369.512 L728.104,1369.512 Z M757.66,1375.56 C757.131997,1375.56 756.868,1375.296 756.868,1374.768 L756.868,1373.076 C756.651999,1373.412 756.370002,1373.748 756.022,1374.084 C755.673998,1374.42 755.248003,1374.72 754.744,1374.984 C754.239997,1375.248 753.640003,1375.47 752.944,1375.65 C752.247997,1375.83 751.432005,1375.92 750.496,1375.92 C749.631996,1375.92 748.810004,1375.782 748.03,1375.506 C747.249996,1375.23 746.566003,1374.852 745.978,1374.372 C745.389997,1373.892 744.922002,1373.328 744.574,1372.68 C744.225998,1372.032 744.052,1371.324 744.052,1370.556 C744.052,1369.74 744.225998,1369.008 744.574,1368.36 C744.922002,1367.712 745.407997,1367.142 746.032,1366.65 C746.656003,1366.158 747.405996,1365.75 748.282,1365.426 C749.158004,1365.102 750.123995,1364.868 751.18,1364.724 L756.868,1363.932 L756.868,1362.672 C756.868,1361.37599 756.478004,1360.368 755.698,1359.648 C754.917996,1358.928 753.676009,1358.568 751.972,1358.568 C750.627993,1358.568 749.590004,1358.826 748.858,1359.342 C748.125996,1359.858 747.664001,1360.416 747.472,1361.016 C747.376,1361.304 747.262001,1361.502 747.13,1361.61 C746.997999,1361.718 746.824001,1361.772 746.608,1361.772 L746.104,1361.772 C745.887999,1361.772 745.702001,1361.694 745.546,1361.538 C745.389999,1361.382 745.312,1361.196 745.312,1360.98 C745.312,1360.644 745.431999,1360.224 745.672,1359.72 C745.912001,1359.216 746.301997,1358.724 746.842,1358.244 C747.382003,1357.764 748.071996,1357.35 748.912,1357.002 C749.752004,1356.654 750.771994,1356.48 751.972,1356.48 C753.388007,1356.48 754.557995,1356.672 755.482,1357.056 C756.406005,1357.44 757.131997,1357.938 757.66,1358.55 C758.188003,1359.162 758.553999,1359.84 758.758,1360.584 C758.962001,1361.328 759.064,1362.06 759.064,1362.78 L759.064,1374.768 C759.064,1375.296 758.800003,1375.56 758.272,1375.56 L757.66,1375.56 Z M750.856,1373.832 C751.672004,1373.832 752.445996,1373.694 753.178,1373.418 C753.910004,1373.142 754.551997,1372.728 755.104,1372.176 C755.656003,1371.624 756.087998,1370.928 756.4,1370.088 C756.712002,1369.248 756.868,1368.26401 756.868,1367.136 L756.868,1365.912 L752.224,1366.56 C748.23998,1367.112 746.248,1368.38399 746.248,1370.376 C746.248,1370.976 746.385999,1371.492 746.662,1371.924 C746.938001,1372.356 747.291998,1372.716 747.724,1373.004 C748.156002,1373.292 748.647997,1373.502 749.2,1373.634 C749.752003,1373.766 750.303997,1373.832 750.856,1373.832 Z M769.144,1381.86 C769.072,1382.004 768.976001,1382.13 768.856,1382.238 C768.735999,1382.346 768.556001,1382.4 768.316,1382.4 L767.596,1382.4 C767.403999,1382.4 767.236001,1382.328 767.092,1382.184 C766.947999,1382.04 766.876,1381.872 766.876,1381.68 C766.876,1381.56 766.947999,1381.32 767.092,1380.96 L769.864,1374.48 L762.988,1358.28 C762.843999,1357.92 762.772,1357.68 762.772,1357.56 C762.772,1357.368 762.843999,1357.2 762.988,1357.056 C763.132001,1356.912 763.299999,1356.84 763.492,1356.84 L764.248,1356.84 C764.488001,1356.84 764.667999,1356.894 764.788,1357.002 C764.908001,1357.11 765.004,1357.236 765.076,1357.38 L771.124,1371.636 L777.316,1357.38 C777.388,1357.236 777.483999,1357.11 777.604,1357.002 C777.724001,1356.894 777.903999,1356.84 778.144,1356.84 L778.864,1356.84 C779.056001,1356.84 779.223999,1356.912 779.368,1357.056 C779.512001,1357.2 779.584,1357.368 779.584,1357.56 C779.584,1357.68 779.512001,1357.92 779.368,1358.28 L769.144,1381.86 Z M790.096,1356.48 C791.392006,1356.48 792.531995,1356.69 793.516,1357.11 C794.500005,1357.53 795.321997,1358.106 795.982,1358.838 C796.642003,1359.57 797.145998,1360.43999 797.494,1361.448 C797.842002,1362.45601 798.04,1363.53599 798.088,1364.688 C798.088,1364.88 798.094,1365.108 798.106,1365.372 C798.118,1365.636 798.124,1365.912 798.124,1366.2 C798.124,1366.488 798.118,1366.77 798.106,1367.046 C798.094,1367.322 798.088,1367.544 798.088,1367.712 C798.04,1368.86401 797.842002,1369.94399 797.494,1370.952 C797.145998,1371.96001 796.642003,1372.83 795.982,1373.562 C795.321997,1374.294 794.500005,1374.87 793.516,1375.29 C792.531995,1375.71 791.392006,1375.92 790.096,1375.92 C788.799994,1375.92 787.660005,1375.71 786.676,1375.29 C785.691995,1374.87 784.870003,1374.294 784.21,1373.562 C783.549997,1372.83 783.040002,1371.96001 782.68,1370.952 C782.319998,1369.94399 782.128,1368.86401 782.104,1367.712 C782.104,1367.544 782.098,1367.322 782.086,1367.046 C782.074,1366.77 782.068,1366.488 782.068,1366.2 C782.068,1365.912 782.074,1365.636 782.086,1365.372 C782.098,1365.108 782.104,1364.88 782.104,1364.688 C782.128,1363.53599 782.319998,1362.45601 782.68,1361.448 C783.040002,1360.43999 783.549997,1359.57 784.21,1358.838 C784.870003,1358.106 785.691995,1357.53 786.676,1357.11 C787.660005,1356.69 788.799994,1356.48 790.096,1356.48 Z M795.892,1364.868 C795.82,1362.80399 795.256005,1361.23801 794.2,1360.17 C793.143995,1359.10199 791.776008,1358.568 790.096,1358.568 C788.415992,1358.568 787.048005,1359.10199 785.992,1360.17 C784.935995,1361.23801 784.372,1362.80399 784.3,1364.868 C784.276,1365.228 784.264,1365.672 784.264,1366.2 C784.264,1366.728 784.276,1367.172 784.3,1367.532 C784.372,1369.59601 784.935995,1371.16199 785.992,1372.23 C787.048005,1373.29801 788.415992,1373.832 790.096,1373.832 C791.776008,1373.832 793.143995,1373.29801 794.2,1372.23 C795.256005,1371.16199 795.82,1369.59601 795.892,1367.532 C795.916,1367.172 795.928,1366.728 795.928,1366.2 C795.928,1365.672 795.916,1365.228 795.892,1364.868 Z M805.252,1359.324 C806.116004,1357.66799 807.747988,1356.84 810.148,1356.84 L811.48,1356.84 C812.008003,1356.84 812.272,1357.104 812.272,1357.632 L812.272,1358.136 C812.272,1358.664 812.008003,1358.928 811.48,1358.928 L809.932,1358.928 C808.491993,1358.928 807.352004,1359.348 806.512,1360.188 C805.671996,1361.028 805.252,1362.16799 805.252,1363.608 L805.252,1374.768 C805.252,1375.008 805.174001,1375.2 805.018,1375.344 C804.861999,1375.488 804.664001,1375.56 804.424,1375.56 L803.848,1375.56 C803.319997,1375.56 803.056,1375.296 803.056,1374.768 L803.056,1357.668 C803.056,1357.428 803.127999,1357.23 803.272,1357.074 C803.416001,1356.918 803.607999,1356.84 803.848,1356.84 L804.424,1356.84 C804.664001,1356.84 804.861999,1356.918 805.018,1357.074 C805.174001,1357.23 805.252,1357.428 805.252,1357.668 L805.252,1359.324 Z M814.216,1365.192 C814.24,1364.13599 814.389999,1363.09201 814.666,1362.06 C814.942001,1361.02799 815.385997,1360.098 815.998,1359.27 C816.610003,1358.442 817.395995,1357.77 818.356,1357.254 C819.316005,1356.738 820.503993,1356.48 821.92,1356.48 C823.408007,1356.48 824.637995,1356.756 825.61,1357.308 C826.582005,1357.86 827.367997,1358.532 827.968,1359.324 L827.968,1357.668 C827.968,1357.428 828.039999,1357.23 828.184,1357.074 C828.328001,1356.918 828.519999,1356.84 828.76,1356.84 L829.336,1356.84 C829.576001,1356.84 829.773999,1356.918 829.93,1357.074 C830.086001,1357.23 830.164,1357.428 830.164,1357.668 L830.164,1375.2 C830.164,1376.35201 830.044001,1377.43199 829.804,1378.44 C829.563999,1379.44801 829.138003,1380.324 828.526,1381.068 C827.913997,1381.812 827.092005,1382.4 826.06,1382.832 C825.027995,1383.264 823.708008,1383.48 822.1,1383.48 C820.563992,1383.48 819.316005,1383.27 818.356,1382.85 C817.395995,1382.43 816.634003,1381.938 816.07,1381.374 C815.505997,1380.81 815.122001,1380.228 814.918,1379.628 C814.713999,1379.028 814.6,1378.548 814.576,1378.188 C814.552,1377.948 814.623999,1377.75 814.792,1377.594 C814.960001,1377.438 815.151999,1377.36 815.368,1377.36 L815.872,1377.36 C816.064001,1377.36 816.225999,1377.402 816.358,1377.486 C816.490001,1377.57 816.615999,1377.78 816.736,1378.116 C816.832,1378.404 816.981999,1378.734 817.186,1379.106 C817.390001,1379.478 817.683998,1379.838 818.068,1380.186 C818.452002,1380.534 818.955997,1380.822 819.58,1381.05 C820.204003,1381.278 820.983995,1381.392 821.92,1381.392 C822.904005,1381.392 823.773996,1381.302 824.53,1381.122 C825.286004,1380.942 825.915997,1380.63 826.42,1380.186 C826.924003,1379.742 827.307999,1379.148 827.572,1378.404 C827.836001,1377.66 827.968,1376.71201 827.968,1375.56 L827.968,1373.076 C827.367997,1373.892 826.582005,1374.57 825.61,1375.11 C824.637995,1375.65 823.408007,1375.92 821.92,1375.92 C820.503993,1375.92 819.316005,1375.662 818.356,1375.146 C817.395995,1374.63 816.610003,1373.958 815.998,1373.13 C815.385997,1372.302 814.942001,1371.37201 814.666,1370.34 C814.389999,1369.30799 814.24,1368.26401 814.216,1367.208 C814.192,1366.536 814.192,1365.864 814.216,1365.192 Z M827.968,1364.904 C827.92,1364.16 827.788001,1363.416 827.572,1362.672 C827.355999,1361.928 827.014002,1361.25 826.546,1360.638 C826.077998,1360.026 825.484004,1359.528 824.764,1359.144 C824.043996,1358.76 823.168005,1358.568 822.136,1358.568 C821.079995,1358.568 820.192004,1358.754 819.472,1359.126 C818.751996,1359.498 818.170002,1359.99 817.726,1360.602 C817.281998,1361.214 816.958001,1361.916 816.754,1362.708 C816.549999,1363.5 816.436,1364.328 816.412,1365.192 C816.388,1365.864 816.388,1366.536 816.412,1367.208 C816.436,1368.072 816.549999,1368.906 816.754,1369.71 C816.958001,1370.514 817.281998,1371.222 817.726,1371.834 C818.170002,1372.446 818.751996,1372.932 819.472,1373.292 C820.192004,1373.652 821.079995,1373.832 822.136,1373.832 C823.168005,1373.832 824.043996,1373.64 824.764,1373.256 C825.484004,1372.872 826.077998,1372.374 826.546,1371.762 C827.014002,1371.15 827.355999,1370.472 827.572,1369.728 C827.788001,1368.984 827.92,1368.24 827.968,1367.496 C827.992,1367.136 828.004,1366.704 828.004,1366.2 C828.004,1365.696 827.992,1365.264 827.968,1364.904 Z M848.236,1375.56 C847.707997,1375.56 847.444,1375.296 847.444,1374.768 L847.444,1373.076 C847.227999,1373.412 846.946002,1373.748 846.598,1374.084 C846.249998,1374.42 845.824003,1374.72 845.32,1374.984 C844.815997,1375.248 844.216003,1375.47 843.52,1375.65 C842.823997,1375.83 842.008005,1375.92 841.072,1375.92 C840.207996,1375.92 839.386004,1375.782 838.606,1375.506 C837.825996,1375.23 837.142003,1374.852 836.554,1374.372 C835.965997,1373.892 835.498002,1373.328 835.15,1372.68 C834.801998,1372.032 834.628,1371.324 834.628,1370.556 C834.628,1369.74 834.801998,1369.008 835.15,1368.36 C835.498002,1367.712 835.983997,1367.142 836.608,1366.65 C837.232003,1366.158 837.981996,1365.75 838.858,1365.426 C839.734004,1365.102 840.699995,1364.868 841.756,1364.724 L847.444,1363.932 L847.444,1362.672 C847.444,1361.37599 847.054004,1360.368 846.274,1359.648 C845.493996,1358.928 844.252009,1358.568 842.548,1358.568 C841.203993,1358.568 840.166004,1358.826 839.434,1359.342 C838.701996,1359.858 838.240001,1360.416 838.048,1361.016 C837.952,1361.304 837.838001,1361.502 837.706,1361.61 C837.573999,1361.718 837.400001,1361.772 837.184,1361.772 L836.68,1361.772 C836.463999,1361.772 836.278001,1361.694 836.122,1361.538 C835.965999,1361.382 835.888,1361.196 835.888,1360.98 C835.888,1360.644 836.007999,1360.224 836.248,1359.72 C836.488001,1359.216 836.877997,1358.724 837.418,1358.244 C837.958003,1357.764 838.647996,1357.35 839.488,1357.002 C840.328004,1356.654 841.347994,1356.48 842.548,1356.48 C843.964007,1356.48 845.133995,1356.672 846.058,1357.056 C846.982005,1357.44 847.707997,1357.938 848.236,1358.55 C848.764003,1359.162 849.129999,1359.84 849.334,1360.584 C849.538001,1361.328 849.64,1362.06 849.64,1362.78 L849.64,1374.768 C849.64,1375.296 849.376003,1375.56 848.848,1375.56 L848.236,1375.56 Z M841.432,1373.832 C842.248004,1373.832 843.021996,1373.694 843.754,1373.418 C844.486004,1373.142 845.127997,1372.728 845.68,1372.176 C846.232003,1371.624 846.663998,1370.928 846.976,1370.088 C847.288002,1369.248 847.444,1368.26401 847.444,1367.136 L847.444,1365.912 L842.8,1366.56 C838.81598,1367.112 836.824,1368.38399 836.824,1370.376 C836.824,1370.976 836.961999,1371.492 837.238,1371.924 C837.514001,1372.356 837.867998,1372.716 838.3,1373.004 C838.732002,1373.292 839.223997,1373.502 839.776,1373.634 C840.328003,1373.766 840.879997,1373.832 841.432,1373.832 Z" id="Julian-Mayorga" fill="#E10098"></path>
            <text id="Fullstack-React-and" font-family="Rubik-Light, Rubik" font-size="150" font-weight="300" fill="#E10098">
                <tspan x="199.85" y="610">Fullstack</tspan>
                <tspan x="156.875" y="788">React and</tspan>
                <tspan x="290.225" y="966">Apollo </tspan>
                <tspan x="205.85" y="1144">GraphQL</tspan>
            </text>
        </g>
    </g>
</svg>