<svg viewBox="0 0 35 35" version="1.1" xmlns="http://www.w3.org/2000/svg" xmlns:xlink="http://www.w3.org/1999/xlink">
  <g id="Page-1" stroke="none" stroke-width="1" fill="none" fill-rule="evenodd">
    <g id="medium-logo" fill-rule="nonzero" fill="#000000">
      <path d="M0,35 L0,0 L35,0 L35,35 L0,35 Z M8.56,22.373 C8.56,22.928 8.533,23.06 8.242,23.403 L5.785,26.388 L5.785,26.784 L12.759,26.784 L12.759,26.388 L10.303,23.403 C10.012,23.06 9.959,22.901 9.959,22.373 L9.959,13.42 L16.086,26.784 L16.8,26.784 L22.056,13.42 L22.056,24.064 C22.056,24.354 22.056,24.406 21.871,24.592 L20.023,26.388 L20.023,26.784 L29.213,26.784 L29.213,26.388 L27.391,24.592 C27.207,24.406 27.181,24.354 27.181,24.064 L27.181,10.937 C27.181,10.646 27.207,10.593 27.391,10.409 L29.214,8.612 L29.214,8.216 L22.743,8.216 L18.121,19.758 L12.918,8.216 L6.128,8.216 L6.128,8.612 L8.268,11.252 C8.507,11.544 8.559,11.622 8.559,12.02 L8.559,22.373 L8.56,22.373 Z" id="Shape"/>
    </g>
  </g>
</svg>